{
.appVersion = "939";
copyright = "Copyright (c) 2013 by Juan Pablo del Peral (huertatipografica.com.ar)";
customParameters = (
{
name = openTypeOS2Type;
value = (
);
},
{
name = license;
value = "This Font Software is licensed under the SIL Open Font License, Version 1.1. This license is available with a FAQ at: http://scripts.sil.org/OFL";
},
{
name = licenseURL;
value = "http://scripts.sil.org/OFL";
},
{
name = vendorID;
value = HT;
},
{
name = "Use Typo Metrics";
value = 1;
},
{
name = "Disable Last Change";
value = 1;
}
);
date = "2012-03-22 21:34:14 +0000";
designer = "Juan Pablo del Peral";
designerURL = "http://www.huertatipografica.com.ar";
familyName = "Alegreya Sans";
fontMaster = (
{
alignmentZones = (
"{700, 12}",
"{647, 12}",
"{586, 12}",
"{513, 12}",
"{472, 12}",
"{0, -12}",
"{-83, -12}",
"{-185, -12}"
);
ascender = 700;
capHeight = 647;
customParameters = (
{
name = typoAscender;
value = 800;
},
{
name = typoDescender;
value = -200;
},
{
name = typoLineGap;
value = 200;
},
{
name = winAscent;
value = 900;
},
{
name = winDescent;
value = -300;
},
{
name = underlineThickness;
value = 80;
},
{
name = underlinePosition;
value = -170;
},
{
name = smallCapHeight;
value = 513;
},
{
name = paramArea;
value = "232";
},
{
name = paramDepth;
value = "15";
},
{
name = paramOver;
value = "10";
}
);
descender = -185;
horizontalStems = (
128,
153,
162
);
id = "6DC2006A-28B6-4A13-A5DF-3641E0854074";
italicAngle = 7;
userData = {
GSCornerRadius = 29;
GSOffsetHorizontal = 10;
GSOffsetProportional = 1;
GSOffsetVertical = 10;
};
verticalStems = (
184,
194,
210
);
weight = Bold;
weightValue = 175;
xHeight = 472;
}
);
glyphs = (
{
color = 1;
glyphname = A;
layers = (
{
anchors = (
{
name = bottom;
position = "{311, 0}";
},
{
name = ogonek;
position = "{614, 40}";
},
{
name = top;
position = "{344, 647}";
}
);
associatedMasterId = UUID0;
background = {
paths = (
{
closed = 1;
nodes = (
"338 376 OFFCURVE",
"260 650 OFFCURVE",
"260 650 CURVE",
"256 644 LINE",
"293 627 LINE",
"80 111 LINE SMOOTH",
"52 43 OFFCURVE",
"32 26 OFFCURVE",
"-12 23 CURVE",
"-20 -4 LINE",
"-20 -4 OFFCURVE",
"37 0 OFFCURVE",
"78 0 CURVE SMOOTH",
"147 0 OFFCURVE",
"210 -9 OFFCURVE",
"210 -9 CURVE",
"215 14 LINE",
"215 14 OFFCURVE",
"216 15 OFFCURVE",
"216 15 CURVE",
"143 15 LINE SMOOTH",
"94 15 OFFCURVE",
"69 32 OFFCURVE",
"69 67 CURVE SMOOTH",
"69 78 OFFCURVE",
"73 93 OFFCURVE",
"81 114 CURVE SMOOTH",
"131 248 LINE",
"153 252 OFFCURVE",
"208 258 OFFCURVE",
"255 258 CURVE SMOOTH",
"287 258 OFFCURVE",
"350 258 OFFCURVE",
"372 257 CURVE",
"410 142 LINE SMOOTH",
"422 105 OFFCURVE",
"431 75 OFFCURVE",
"431 50 CURVE SMOOTH",
"431 27 OFFCURVE",
"403 14 OFFCURVE",
"330 10 CURVE",
"327 -6 LINE",
"327 -12 LINE",
"327 -12 OFFCURVE",
"387 0 OFFCURVE",
"455 0 CURVE SMOOTH",
"479 0 OFFCURVE",
"544 -3 OFFCURVE",
"544 -3 CURVE",
"550 19 LINE",
"550 19 OFFCURVE",
"551 20 OFFCURVE",
"551 20 CURVE",
"479 26 OFFCURVE",
"454 40 OFFCURVE",
"436 93 CURVE SMOOTH"
);
},
{
closed = 1;
nodes = (
"261 571 LINE",
"261 571 OFFCURVE",
"261 571 OFFCURVE",
"261 571 CURVE",
"362 265 LINE",
"337 263 OFFCURVE",
"282 259 OFFCURVE",
"249 259 CURVE SMOOTH",
"142 259 LINE"
);
}
);
};
layerId = "FA91AE6F-CE46-462A-A5B4-C38BCDC0BBC5";
name = "Light Sep 25 12, 08:53";
paths = (
{
closed = 1;
nodes = (
"253 637 LINE",
"68 189 LINE",
"89 181 LINE",
"105 228 LINE",
"260 607 LINE",
"264 607 LINE",
"398 228 LINE",
"411 181 LINE",
"432 188 LINE",
"273 637 LINE"
);
},
{
closed = 1;
nodes = (
"338 376 OFFCURVE",
"260 650 OFFCURVE",
"260 650 CURVE",
"256 644 LINE",
"293 627 LINE",
"80 111 LINE SMOOTH",
"52 43 OFFCURVE",
"32 26 OFFCURVE",
"-12 23 CURVE",
"-20 -4 LINE",
"-20 -4 OFFCURVE",
"37 0 OFFCURVE",
"78 0 CURVE SMOOTH",
"147 0 OFFCURVE",
"210 -9 OFFCURVE",
"210 -9 CURVE",
"215 14 LINE",
"215 14 OFFCURVE",
"216 15 OFFCURVE",
"216 15 CURVE",
"143 15 LINE SMOOTH",
"94 15 OFFCURVE",
"69 32 OFFCURVE",
"69 67 CURVE SMOOTH",
"69 78 OFFCURVE",
"73 93 OFFCURVE",
"81 114 CURVE SMOOTH",
"131 248 LINE",
"153 252 OFFCURVE",
"208 258 OFFCURVE",
"255 258 CURVE SMOOTH",
"287 258 OFFCURVE",
"350 258 OFFCURVE",
"372 257 CURVE",
"410 142 LINE SMOOTH",
"422 105 OFFCURVE",
"431 75 OFFCURVE",
"431 50 CURVE SMOOTH",
"431 27 OFFCURVE",
"403 14 OFFCURVE",
"330 10 CURVE",
"327 -6 LINE",
"327 -12 LINE",
"327 -12 OFFCURVE",
"387 0 OFFCURVE",
"455 0 CURVE SMOOTH",
"479 0 OFFCURVE",
"544 -3 OFFCURVE",
"544 -3 CURVE",
"550 19 LINE",
"550 19 OFFCURVE",
"551 20 OFFCURVE",
"551 20 CURVE",
"479 26 OFFCURVE",
"454 40 OFFCURVE",
"436 93 CURVE SMOOTH"
);
},
{
closed = 1;
nodes = (
"261 571 LINE",
"261 571 OFFCURVE",
"261 571 OFFCURVE",
"261 571 CURVE",
"362 265 LINE",
"337 263 OFFCURVE",
"282 259 OFFCURVE",
"249 259 CURVE SMOOTH",
"142 259 LINE"
);
}
);
width = 538;
},
{
anchors = (
{
name = ogonek;
position = "{564, 10}";
},
{
name = top;
position = "{315, 647}";
}
);
associatedMasterId = UUID0;
background = {
paths = (
{
closed = 1;
nodes = (
"195 647 LINE",
"2 0 LINE",
"196 0 LINE",
"217 121 LINE",
"307 477 LINE",
"319 477 LINE",
"396 109 LINE",
"412 0 LINE",
"617 0 LINE",
"445 647 LINE"
);
},
{
closed = 1;
nodes = (
"187 107 LINE",
"297 112 LINE",
"412 110 LINE",
"412 257 LINE",
"309 255 LINE",
"187 258 LINE"
);
}
);
};
layerId = "CBDBD615-2330-4291-925D-64014D83AB8A";
name = "Bold Jul 18 13, 09:12";
paths = (
{
closed = 1;
nodes = (
"205 647 LINE",
"212 620 LINE",
"2 0 LINE",
"196 0 LINE",
"217 104 LINE",
"304 409 LINE",
"316 409 LINE",
"396 94 LINE",
"411 -6 LINE",
"617 0 LINE",
"425 654 LINE"
);
},
{
closed = 1;
nodes = (
"187 107 LINE",
"297 112 LINE",
"412 110 LINE",
"412 257 LINE",
"309 255 LINE",
"187 258 LINE"
);
}
);
width = 627;
},
{
anchors = (
{
name = ogonek;
position = "{499, 10}";
},
{
name = top;
position = "{278, 637}";
}
);
associatedMasterId = UUID0;
background = {
paths = (
{
closed = 1;
nodes = (
"272 637 LINE",
"19 0 LINE SMOOTH",
"43 0 LINE",
"57 43 LINE",
"280 607 LINE",
"284 607 LINE",
"490 43 LINE",
"503 0 LINE",
"526 0 LINE",
"294 637 LINE"
);
},
{
closed = 1;
nodes = (
"115 213 LINE",
"269 213 LINE",
"438 213 LINE",
"432 233 LINE",
"273 233 LINE",
"120 233 LINE"
);
}
);
};
layerId = "F0A0404F-F861-42A6-A929-D6D479329ACF";
name = "Light Jul 18 13, 09:12";
paths = (
{
closed = 1;
nodes = (
"267 637 LINE",
"271 626 LINE",
"19 0 LINE SMOOTH",
"43 0 LINE",
"57 43 LINE",
"280 599 LINE",
"284 599 LINE",
"490 43 LINE",
"503 0 LINE",
"526 0 LINE",
"291 638 LINE"
);
},
{
closed = 1;
nodes = (
"115 213 LINE",
"269 213 LINE",
"438 213 LINE",
"432 233 LINE",
"273 233 LINE",
"120 233 LINE"
);
}
);
width = 554;
},
{
anchors = (
{
name = bottom;
position = "{285, 0}";
},
{
name = ogonek;
position = "{588, 0}";
},
{
name = top;
position = "{365, 647}";
}
);
background = {
paths = (
{
closed = 1;
nodes = (
"198 647 LINE",
"2 0 LINE",
"198 0 LINE",
"217 119 LINE",
"309 468 LINE",
"321 468 LINE",
"396 107 LINE",
"414 0 LINE",
"617 0 LINE",
"440 647 LINE"
);
},
{
closed = 1;
nodes = (
"309 255 LINE",
"187 258 LINE",
"187 107 LINE",
"297 112 LINE",
"412 110 LINE",
"412 257 LINE"
);
}
);
};
layerId = "6DC2006A-28B6-4A13-A5DF-3641E0854074";
paths = (
{
closed = 1;
nodes = (
"249 647 LINE",
"-27 0 LINE",
"169 0 LINE",
"203 119 LINE",
"338 468 LINE",
"350 468 LINE",
"381 107 LINE",
"385 0 LINE",
"588 0 LINE",
"491 647 LINE"
);
},
{
closed = 1;
nodes = (
"312 255 LINE",
"190 258 LINE",
"172 107 LINE",
"282 112 LINE",
"397 110 LINE",
"415 257 LINE"
);
}
);
width = 627;
}
);
leftKerningGroup = A;
rightKerningGroup = A;
unicode = 0041;
},
{
color = 10;
glyphname = Aacute;
layers = (
{
background = {
paths = (
{
closed = 1;
nodes = (
"198 647 LINE",
"2 0 LINE",
"198 0 LINE",
"217 119 LINE",
"309 468 LINE",
"321 468 LINE",
"396 107 LINE",
"414 0 LINE",
"617 0 LINE",
"440 647 LINE"
);
},
{
closed = 1;
nodes = (
"309 255 LINE",
"187 258 LINE",
"187 107 LINE",
"297 112 LINE",
"412 110 LINE",
"412 257 LINE"
);
},
{
closed = 1;
nodes = (
"340 876 OFFCURVE",
"269 837 OFFCURVE",
"186 795 CURVE",
"216 716 LINE",
"233 712 LINE",
"310 732 OFFCURVE",
"385 754 OFFCURVE",
"471 781 CURVE",
"477 797 LINE",
"428 914 LINE",
"411 918 LINE"
);
}
);
};
components = (
{
name = A;
},
{
name = acutecomb.case;
transform = "{1, 0, 0, 1, 147, 175}";
}
);
layerId = "6DC2006A-28B6-4A13-A5DF-3641E0854074";
width = 627;
}
);
leftKerningGroup = A;
rightKerningGroup = A;
unicode = 00C1;
},
{
color = 10;
glyphname = Abreve;
layers = (
{
background = {
paths = (
{
closed = 1;
nodes = (
"198 647 LINE",
"2 0 LINE",
"198 0 LINE",
"217 119 LINE",
"309 468 LINE",
"321 468 LINE",
"396 107 LINE",
"414 0 LINE",
"617 0 LINE",
"440 647 LINE"
);
},
{
closed = 1;
nodes = (
"309 255 LINE",
"187 258 LINE",
"187 107 LINE",
"297 112 LINE",
"412 110 LINE",
"412 257 LINE"
);
},
{
closed = 1;
nodes = (
"426 900 LINE",
"405 868 OFFCURVE",
"366 850 OFFCURVE",
"319 850 CURVE SMOOTH",
"267 850 OFFCURVE",
"226 868 OFFCURVE",
"204 900 CURVE",
"177 900 LINE",
"137 840 LINE",
"165 760 OFFCURVE",
"227 716 OFFCURVE",
"312 716 CURVE SMOOTH",
"399 716 OFFCURVE",
"463 760 OFFCURVE",
"493 840 CURVE SMOOTH",
"453 900 LINE"
);
}
);
};
components = (
{
name = A;
},
{
name = brevecomb.case;
transform = "{1, 0, 0, 1, 137, 175}";
}
);
layerId = "6DC2006A-28B6-4A13-A5DF-3641E0854074";
width = 627;
}
);
leftKerningGroup = A;
rightKerningGroup = A;
unicode = 0102;
},
{
color = 10;
glyphname = Abreveacute;
layers = (
{
background = {
paths = (
{
closed = 1;
nodes = (
"198 647 LINE",
"2 0 LINE",
"198 0 LINE",
"217 119 LINE",
"309 468 LINE",
"321 468 LINE",
"396 107 LINE",
"414 0 LINE",
"617 0 LINE",
"440 647 LINE"
);
},
{
closed = 1;
nodes = (
"309 255 LINE",
"187 258 LINE",
"187 107 LINE",
"297 112 LINE",
"412 110 LINE",
"412 257 LINE"
);
},
{
closed = 1;
nodes = (
"352 1052 LINE",
"321 1002 OFFCURVE",
"288 954 OFFCURVE",
"255 906 CURVE",
"313 861 LINE",
"328 866 LINE",
"372 904 OFFCURVE",
"415 944 OFFCURVE",
"457 985 CURVE",
"454 999 LINE",
"365 1056 LINE"
);
},
{
closed = 1;
nodes = (
"426 880 LINE",
"405 848 OFFCURVE",
"366 830 OFFCURVE",
"319 830 CURVE SMOOTH",
"267 830 OFFCURVE",
"226 848 OFFCURVE",
"204 880 CURVE",
"177 880 LINE",
"137 820 LINE",
"165 740 OFFCURVE",
"227 696 OFFCURVE",
"312 696 CURVE SMOOTH",
"399 696 OFFCURVE",
"463 740 OFFCURVE",
"493 820 CURVE SMOOTH",
"453 880 LINE"
);
}
);
};
components = (
{
name = A;
},
{
name = brevecomb_acutecomb;
transform = "{1, 0, 0, 1, 145, 175}";
}
);
layerId = "6DC2006A-28B6-4A13-A5DF-3641E0854074";
width = 627;
}
);
leftKerningGroup = A;
rightKerningGroup = A;
unicode = 1EAE;
},
{
color = 10;
glyphname = Abrevedotbelow;
layers = (
{
background = {
paths = (
{
closed = 1;
nodes = (
"426 900 LINE",
"405 868 OFFCURVE",
"366 850 OFFCURVE",
"319 850 CURVE SMOOTH",
"267 850 OFFCURVE",
"226 868 OFFCURVE",
"204 900 CURVE",
"177 900 LINE",
"137 840 LINE",
"165 760 OFFCURVE",
"227 716 OFFCURVE",
"312 716 CURVE SMOOTH",
"399 716 OFFCURVE",
"463 760 OFFCURVE",
"493 840 CURVE SMOOTH",
"453 900 LINE"
);
},
{
closed = 1;
nodes = (
"249 -32 OFFCURVE",
"210 -72 OFFCURVE",
"210 -136 CURVE SMOOTH",
"210 -197 OFFCURVE",
"243 -231 OFFCURVE",
"304 -231 CURVE SMOOTH",
"366 -231 OFFCURVE",
"405 -191 OFFCURVE",
"405 -127 CURVE SMOOTH",
"405 -67 OFFCURVE",
"371 -32 OFFCURVE",
"312 -32 CURVE SMOOTH"
);
},
{
closed = 1;
nodes = (
"198 647 LINE",
"2 0 LINE",
"198 0 LINE",
"217 119 LINE",
"309 468 LINE",
"321 468 LINE",
"396 107 LINE",
"414 0 LINE",
"617 0 LINE",
"440 647 LINE"
);
},
{
closed = 1;
nodes = (
"309 255 LINE",
"187 258 LINE",
"187 107 LINE",
"297 112 LINE",
"412 110 LINE",
"412 257 LINE"
);
}
);
};
components = (
{
name = A;
},
{
name = dotbelowcomb;
transform = "{1, 0, 0, 1, 201, 0}";
},
{
name = brevecomb.case;
transform = "{1, 0, 0, 1, 137, 175}";
}
);
layerId = "6DC2006A-28B6-4A13-A5DF-3641E0854074";
width = 627;
}
);
leftKerningGroup = A;
rightKerningGroup = A;
unicode = 1EB6;
},
{
color = 10;
glyphname = Abrevegrave;
layers = (
{
background = {
paths = (
{
closed = 1;
nodes = (
"198 647 LINE",
"2 0 LINE",
"198 0 LINE",
"217 119 LINE",
"309 468 LINE",
"321 468 LINE",
"396 107 LINE",
"414 0 LINE",
"617 0 LINE",
"440 647 LINE"
);
},
{
closed = 1;
nodes = (
"309 255 LINE",
"187 258 LINE",
"187 107 LINE",
"297 112 LINE",
"412 110 LINE",
"412 257 LINE"
);
},
{
closed = 1;
nodes = (
"180 999 LINE",
"177 985 LINE",
"219 944 OFFCURVE",
"262 904 OFFCURVE",
"306 866 CURVE",
"321 861 LINE",
"379 906 LINE",
"346 954 OFFCURVE",
"313 1002 OFFCURVE",
"282 1052 CURVE",
"269 1056 LINE"
);
},
{
closed = 1;
nodes = (
"426 880 LINE",
"405 848 OFFCURVE",
"366 830 OFFCURVE",
"319 830 CURVE SMOOTH",
"267 830 OFFCURVE",
"226 848 OFFCURVE",
"204 880 CURVE",
"177 880 LINE",
"137 820 LINE",
"165 740 OFFCURVE",
"227 696 OFFCURVE",
"312 696 CURVE SMOOTH",
"399 696 OFFCURVE",
"463 740 OFFCURVE",
"493 820 CURVE SMOOTH",
"453 880 LINE"
);
}
);
};
components = (
{
name = A;
},
{
name = brevecomb_gravecomb;
transform = "{1, 0, 0, 1, 145, 175}";
}
);
layerId = "6DC2006A-28B6-4A13-A5DF-3641E0854074";
width = 627;
}
);
leftKerningGroup = A;
rightKerningGroup = A;
unicode = 1EB0;
},
{
color = 10;
glyphname = Abrevehookabove;
layers = (
{
background = {
paths = (
{
closed = 1;
nodes = (
"198 647 LINE",
"2 0 LINE",
"198 0 LINE",
"217 119 LINE",
"309 468 LINE",
"321 468 LINE",
"396 107 LINE",
"414 0 LINE",
"617 0 LINE",
"440 647 LINE"
);
},
{
closed = 1;
nodes = (
"309 255 LINE",
"187 258 LINE",
"187 107 LINE",
"297 112 LINE",
"412 110 LINE",
"412 257 LINE"
);
},
{
closed = 1;
nodes = (
"259 1117 OFFCURVE",
"212 1093 OFFCURVE",
"178 1056 CURVE",
"207 1009 LINE",
"228 1025 OFFCURVE",
"256 1035 OFFCURVE",
"277 1035 CURVE SMOOTH",
"294 1035 OFFCURVE",
"307 1028 OFFCURVE",
"307 1011 CURVE SMOOTH",
"307 990 OFFCURVE",
"287 959 OFFCURVE",
"253 935 CURVE",
"307 855 LINE",
"371 894 LINE",
"344 937 LINE",
"391 979 OFFCURVE",
"405 1000 OFFCURVE",
"405 1029 CURVE SMOOTH",
"405 1082 OFFCURVE",
"361 1117 OFFCURVE",
"305 1117 CURVE SMOOTH"
);
},
{
closed = 1;
nodes = (
"426 880 LINE",
"405 848 OFFCURVE",
"366 830 OFFCURVE",
"319 830 CURVE SMOOTH",
"267 830 OFFCURVE",
"226 848 OFFCURVE",
"204 880 CURVE",
"177 880 LINE",
"137 820 LINE",
"165 740 OFFCURVE",
"227 696 OFFCURVE",
"312 696 CURVE SMOOTH",
"399 696 OFFCURVE",
"463 740 OFFCURVE",
"493 820 CURVE SMOOTH",
"453 880 LINE"
);
}
);
};
components = (
{
name = A;
},
{
name = brevecomb_hookabovecomb;
transform = "{1, 0, 0, 1, 154, 175}";
}
);
layerId = "6DC2006A-28B6-4A13-A5DF-3641E0854074";
width = 627;
}
);
leftKerningGroup = A;
rightKerningGroup = A;
unicode = 1EB2;
},
{
color = 10;
glyphname = Abrevetilde;
layers = (
{
background = {
paths = (
{
closed = 1;
nodes = (
"198 647 LINE",
"2 0 LINE",
"198 0 LINE",
"217 119 LINE",
"309 468 LINE",
"321 468 LINE",
"396 107 LINE",
"414 0 LINE",
"617 0 LINE",
"440 647 LINE"
);
},
{
closed = 1;
nodes = (
"309 255 LINE",
"187 258 LINE",
"187 107 LINE",
"297 112 LINE",
"412 110 LINE",
"412 257 LINE"
);
},
{
closed = 1;
nodes = (
"430 1084 LINE",
"409 1057 OFFCURVE",
"391 1031 OFFCURVE",
"368 1031 CURVE SMOOTH",
"344 1031 OFFCURVE",
"276 1055 OFFCURVE",
"228 1062 CURVE",
"214 1056 LINE",
"140 954 LINE",
"140 939 LINE",
"192 889 LINE",
"207 889 LINE",
"228 915 OFFCURVE",
"246 942 OFFCURVE",
"269 942 CURVE SMOOTH",
"293 942 OFFCURVE",
"361 917 OFFCURVE",
"408 911 CURVE",
"423 916 LINE",
"497 1019 LINE",
"497 1034 LINE",
"445 1084 LINE"
);
},
{
closed = 1;
nodes = (
"423 867 LINE",
"403 837 OFFCURVE",
"367 821 OFFCURVE",
"323 821 CURVE SMOOTH",
"275 821 OFFCURVE",
"237 837 OFFCURVE",
"216 867 CURVE",
"191 867 LINE",
"154 811 LINE",
"180 737 OFFCURVE",
"238 696 OFFCURVE",
"317 696 CURVE SMOOTH",
"398 696 OFFCURVE",
"457 737 OFFCURVE",
"485 811 CURVE SMOOTH",
"448 867 LINE"
);
}
);
};
components = (
{
name = A;
},
{
name = brevecomb_tildecomb;
transform = "{1, 0, 0, 1, 119, 175}";
}
);
layerId = "6DC2006A-28B6-4A13-A5DF-3641E0854074";
width = 627;
}
);
leftKerningGroup = A;
rightKerningGroup = A;
unicode = 1EB4;
},
{
color = 10;
glyphname = Acaron;
layers = (
{
background = {
paths = (
{
closed = 1;
nodes = (
"198 647 LINE",
"2 0 LINE",
"198 0 LINE",
"217 119 LINE",
"309 468 LINE",
"321 468 LINE",
"396 107 LINE",
"414 0 LINE",
"617 0 LINE",
"440 647 LINE"
);
},
{
closed = 1;
nodes = (
"309 255 LINE",
"187 258 LINE",
"187 107 LINE",
"297 112 LINE",
"412 110 LINE",
"412 257 LINE"
);
},
{
closed = 1;
nodes = (
"433 907 LINE",
"394 887 OFFCURVE",
"354 867 OFFCURVE",
"315 847 CURVE",
"276 867 OFFCURVE",
"236 887 OFFCURVE",
"197 907 CURVE",
"179 907 LINE",
"145 831 LINE",
"202 792 OFFCURVE",
"253 753 OFFCURVE",
"298 712 CURVE",
"332 712 LINE",
"377 753 OFFCURVE",
"428 792 OFFCURVE",
"485 831 CURVE",
"451 907 LINE"
);
}
);
};
components = (
{
name = A;
},
{
name = caroncomb.case;
transform = "{1, 0, 0, 1, 137, 175}";
}
);
layerId = "6DC2006A-28B6-4A13-A5DF-3641E0854074";
width = 627;
}
);
leftKerningGroup = A;
rightKerningGroup = A;
unicode = 01CD;
},
{
color = 10;
glyphname = Acircumflex;
layers = (
{
background = {
paths = (
{
closed = 1;
nodes = (
"198 647 LINE",
"2 0 LINE",
"198 0 LINE",
"217 119 LINE",
"309 468 LINE",
"321 468 LINE",
"396 107 LINE",
"414 0 LINE",
"617 0 LINE",
"440 647 LINE"
);
},
{
closed = 1;
nodes = (
"309 255 LINE",
"187 258 LINE",
"187 107 LINE",
"297 112 LINE",
"412 110 LINE",
"412 257 LINE"
);
},
{
closed = 1;
nodes = (
"197 721 LINE",
"236 741 OFFCURVE",
"276 761 OFFCURVE",
"315 781 CURVE",
"354 761 OFFCURVE",
"394 741 OFFCURVE",
"433 721 CURVE",
"451 721 LINE",
"485 797 LINE",
"428 836 OFFCURVE",
"377 875 OFFCURVE",
"332 916 CURVE",
"298 916 LINE",
"253 875 OFFCURVE",
"202 836 OFFCURVE",
"145 797 CURVE",
"179 721 LINE"
);
}
);
};
components = (
{
name = A;
},
{
name = circumflexcomb.case;
transform = "{1, 0, 0, 1, 143, 175}";
}
);
layerId = "6DC2006A-28B6-4A13-A5DF-3641E0854074";
width = 627;
}
);
leftKerningGroup = A;
rightKerningGroup = A;
unicode = 00C2;
},
{
color = 10;
glyphname = Acircumflexacute;
layers = (
{
background = {
paths = (
{
closed = 1;
nodes = (
"198 647 LINE",
"2 0 LINE",
"198 0 LINE",
"217 119 LINE",
"309 468 LINE",
"321 468 LINE",
"396 107 LINE",
"414 0 LINE",
"617 0 LINE",
"440 647 LINE"
);
},
{
closed = 1;
nodes = (
"309 255 LINE",
"187 258 LINE",
"187 107 LINE",
"297 112 LINE",
"412 110 LINE",
"412 257 LINE"
);
},
{
closed = 1;
nodes = (
"443 1045 LINE",
"373 896 LINE",
"437 849 LINE",
"448 849 LINE",
"558 998 LINE",
"553 1011 LINE",
"455 1052 LINE"
);
},
{
closed = 1;
nodes = (
"196 701 LINE",
"235 721 OFFCURVE",
"275 741 OFFCURVE",
"314 761 CURVE",
"353 741 OFFCURVE",
"393 721 OFFCURVE",
"432 701 CURVE",
"450 701 LINE",
"484 777 LINE",
"427 816 OFFCURVE",
"376 855 OFFCURVE",
"331 896 CURVE",
"297 896 LINE",
"252 855 OFFCURVE",
"201 816 OFFCURVE",
"144 777 CURVE",
"178 701 LINE"
);
}
);
};
components = (
{
name = A;
},
{
name = circumflexcomb_acutecomb;
transform = "{1, 0, 0, 1, 147, 175}";
}
);
layerId = "6DC2006A-28B6-4A13-A5DF-3641E0854074";
width = 627;
}
);
leftKerningGroup = A;
rightKerningGroup = A;
unicode = 1EA4;
},
{
color = 10;
glyphname = Acircumflexdotbelow;
layers = (
{
background = {
paths = (
{
closed = 1;
nodes = (
"197 721 LINE",
"236 741 OFFCURVE",
"276 761 OFFCURVE",
"315 781 CURVE",
"354 761 OFFCURVE",
"394 741 OFFCURVE",
"433 721 CURVE",
"451 721 LINE",
"485 797 LINE",
"428 836 OFFCURVE",
"377 875 OFFCURVE",
"332 916 CURVE",
"298 916 LINE",
"253 875 OFFCURVE",
"202 836 OFFCURVE",
"145 797 CURVE",
"179 721 LINE"
);
},
{
closed = 1;
nodes = (
"249 -32 OFFCURVE",
"210 -72 OFFCURVE",
"210 -136 CURVE SMOOTH",
"210 -197 OFFCURVE",
"243 -231 OFFCURVE",
"304 -231 CURVE SMOOTH",
"366 -231 OFFCURVE",
"405 -191 OFFCURVE",
"405 -127 CURVE SMOOTH",
"405 -67 OFFCURVE",
"371 -32 OFFCURVE",
"312 -32 CURVE SMOOTH"
);
},
{
closed = 1;
nodes = (
"198 647 LINE",
"2 0 LINE",
"198 0 LINE",
"217 119 LINE",
"309 468 LINE",
"321 468 LINE",
"396 107 LINE",
"414 0 LINE",
"617 0 LINE",
"440 647 LINE"
);
},
{
closed = 1;
nodes = (
"309 255 LINE",
"187 258 LINE",
"187 107 LINE",
"297 112 LINE",
"412 110 LINE",
"412 257 LINE"
);
}
);
};
components = (
{
name = A;
},
{
name = dotbelowcomb;
transform = "{1, 0, 0, 1, 201, 0}";
},
{
name = circumflexcomb.case;
transform = "{1, 0, 0, 1, 143, 175}";
}
);
layerId = "6DC2006A-28B6-4A13-A5DF-3641E0854074";
width = 627;
}
);
leftKerningGroup = A;
rightKerningGroup = A;
unicode = 1EAC;
},
{
color = 10;
glyphname = Acircumflexgrave;
layers = (
{
background = {
paths = (
{
closed = 1;
nodes = (
"198 647 LINE",
"2 0 LINE",
"198 0 LINE",
"217 119 LINE",
"309 468 LINE",
"321 468 LINE",
"396 107 LINE",
"414 0 LINE",
"617 0 LINE",
"440 647 LINE"
);
},
{
closed = 1;
nodes = (
"309 255 LINE",
"187 258 LINE",
"187 107 LINE",
"297 112 LINE",
"412 110 LINE",
"412 257 LINE"
);
},
{
closed = 1;
nodes = (
"325 1011 LINE",
"320 998 LINE",
"430 849 LINE",
"441 849 LINE",
"505 896 LINE",
"435 1045 LINE",
"423 1052 LINE"
);
},
{
closed = 1;
nodes = (
"196 701 LINE",
"235 721 OFFCURVE",
"275 741 OFFCURVE",
"314 761 CURVE",
"353 741 OFFCURVE",
"393 721 OFFCURVE",
"432 701 CURVE",
"450 701 LINE",
"484 777 LINE",
"427 816 OFFCURVE",
"376 855 OFFCURVE",
"331 896 CURVE",
"297 896 LINE",
"252 855 OFFCURVE",
"201 816 OFFCURVE",
"144 777 CURVE",
"178 701 LINE"
);
}
);
};
components = (
{
name = A;
},
{
name = circumflexcomb_gravecomb;
transform = "{1, 0, 0, 1, 140, 175}";
}
);
layerId = "6DC2006A-28B6-4A13-A5DF-3641E0854074";
width = 627;
}
);
leftKerningGroup = A;
rightKerningGroup = A;
unicode = 1EA6;
},
{
color = 10;
glyphname = Acircumflexhookabove;
layers = (
{
background = {
paths = (
{
closed = 1;
nodes = (
"198 647 LINE",
"2 0 LINE",
"198 0 LINE",
"217 119 LINE",
"309 468 LINE",
"321 468 LINE",
"396 107 LINE",
"414 0 LINE",
"617 0 LINE",
"440 647 LINE"
);
},
{
closed = 1;
nodes = (
"309 255 LINE",
"187 258 LINE",
"187 107 LINE",
"297 112 LINE",
"412 110 LINE",
"412 257 LINE"
);
},
{
closed = 1;
nodes = (
"383 1101 OFFCURVE",
"338 1078 OFFCURVE",
"305 1043 CURVE",
"333 998 LINE",
"353 1013 OFFCURVE",
"380 1023 OFFCURVE",
"400 1023 CURVE SMOOTH",
"416 1023 OFFCURVE",
"428 1016 OFFCURVE",
"428 1000 CURVE SMOOTH",
"428 980 OFFCURVE",
"409 950 OFFCURVE",
"377 928 CURVE",
"428 851 LINE",
"489 889 LINE",
"463 930 LINE",
"508 970 OFFCURVE",
"522 990 OFFCURVE",
"522 1017 CURVE SMOOTH",
"522 1068 OFFCURVE",
"480 1101 OFFCURVE",
"426 1101 CURVE SMOOTH"
);
},
{
closed = 1;
nodes = (
"196 701 LINE",
"235 721 OFFCURVE",
"275 741 OFFCURVE",
"314 761 CURVE",
"353 741 OFFCURVE",
"393 721 OFFCURVE",
"432 701 CURVE",
"450 701 LINE",
"484 777 LINE",
"427 816 OFFCURVE",
"376 855 OFFCURVE",
"331 896 CURVE",
"297 896 LINE",
"252 855 OFFCURVE",
"201 816 OFFCURVE",
"144 777 CURVE",
"178 701 LINE"
);
}
);
};
components = (
{
name = A;
},
{
name = circumflexcomb_hookabovecomb;
transform = "{1, 0, 0, 1, 138, 175}";
}
);
layerId = "6DC2006A-28B6-4A13-A5DF-3641E0854074";
width = 627;
}
);
leftKerningGroup = A;
rightKerningGroup = A;
unicode = 1EA8;
},
{
color = 10;
glyphname = Acircumflextilde;
layers = (
{
background = {
paths = (
{
closed = 1;
nodes = (
"198 647 LINE",
"2 0 LINE",
"198 0 LINE",
"217 119 LINE",
"309 468 LINE",
"321 468 LINE",
"396 107 LINE",
"414 0 LINE",
"617 0 LINE",
"440 647 LINE"
);
},
{
closed = 1;
nodes = (
"309 255 LINE",
"187 258 LINE",
"187 107 LINE",
"297 112 LINE",
"412 110 LINE",
"412 257 LINE"
);
},
{
closed = 1;
nodes = (
"430 1084 LINE",
"409 1057 OFFCURVE",
"391 1031 OFFCURVE",
"368 1031 CURVE SMOOTH",
"344 1031 OFFCURVE",
"276 1055 OFFCURVE",
"228 1062 CURVE",
"214 1056 LINE",
"140 954 LINE",
"140 939 LINE",
"192 889 LINE",
"207 889 LINE",
"228 915 OFFCURVE",
"246 942 OFFCURVE",
"269 942 CURVE SMOOTH",
"293 942 OFFCURVE",
"361 917 OFFCURVE",
"408 911 CURVE",
"423 916 LINE",
"497 1019 LINE",
"497 1034 LINE",
"445 1084 LINE"
);
},
{
closed = 1;
nodes = (
"196 701 LINE",
"235 721 OFFCURVE",
"275 741 OFFCURVE",
"314 761 CURVE",
"353 741 OFFCURVE",
"393 721 OFFCURVE",
"432 701 CURVE",
"450 701 LINE",
"484 777 LINE",
"427 816 OFFCURVE",
"376 855 OFFCURVE",
"331 896 CURVE",
"297 896 LINE",
"252 855 OFFCURVE",
"201 816 OFFCURVE",
"144 777 CURVE",
"178 701 LINE"
);
}
);
};
components = (
{
name = A;
},
{
name = circumflexcomb_tildecomb;
transform = "{1, 0, 0, 1, 137, 175}";
}
);
layerId = "6DC2006A-28B6-4A13-A5DF-3641E0854074";
width = 627;
}
);
leftKerningGroup = A;
rightKerningGroup = A;
unicode = 1EAA;
},
{
color = 10;
glyphname = Adieresis;
layers = (
{
background = {
paths = (
{
closed = 1;
nodes = (
"198 647 LINE",
"2 0 LINE",
"198 0 LINE",
"217 119 LINE",
"309 468 LINE",
"321 468 LINE",
"396 107 LINE",
"414 0 LINE",
"617 0 LINE",
"440 647 LINE"
);
},
{
closed = 1;
nodes = (
"309 255 LINE",
"187 258 LINE",
"187 107 LINE",
"297 112 LINE",
"412 110 LINE",
"412 257 LINE"
);
},
{
closed = 1;
nodes = (
"361 892 OFFCURVE",
"327 858 OFFCURVE",
"327 802 CURVE SMOOTH",
"327 749 OFFCURVE",
"356 719 OFFCURVE",
"409 719 CURVE SMOOTH",
"463 719 OFFCURVE",
"497 754 OFFCURVE",
"497 810 CURVE SMOOTH",
"497 862 OFFCURVE",
"467 892 OFFCURVE",
"416 892 CURVE SMOOTH"
);
},
{
closed = 1;
nodes = (
"168 892 OFFCURVE",
"134 858 OFFCURVE",
"134 802 CURVE SMOOTH",
"134 749 OFFCURVE",
"163 719 OFFCURVE",
"216 719 CURVE SMOOTH",
"270 719 OFFCURVE",
"304 754 OFFCURVE",
"304 810 CURVE SMOOTH",
"304 862 OFFCURVE",
"274 892 OFFCURVE",
"223 892 CURVE SMOOTH"
);
}
);
};
components = (
{
name = A;
},
{
name = dieresiscomb;
transform = "{1, 0, 0, 1, 140, 175}";
}
);
layerId = "6DC2006A-28B6-4A13-A5DF-3641E0854074";
width = 627;
}
);
leftKerningGroup = A;
rightKerningGroup = A;
unicode = 00C4;
},
{
color = 10;
glyphname = Adotbelow;
layers = (
{
anchors = (
{
name = top;
position = "{365, 647}";
}
);
background = {
paths = (
{
closed = 1;
nodes = (
"198 647 LINE",
"2 0 LINE",
"198 0 LINE",
"217 119 LINE",
"309 468 LINE",
"321 468 LINE",
"396 107 LINE",
"414 0 LINE",
"617 0 LINE",
"440 647 LINE"
);
},
{
closed = 1;
nodes = (
"309 255 LINE",
"187 258 LINE",
"187 107 LINE",
"297 112 LINE",
"412 110 LINE",
"412 257 LINE"
);
},
{
closed = 1;
nodes = (
"249 -32 OFFCURVE",
"210 -72 OFFCURVE",
"210 -136 CURVE SMOOTH",
"210 -197 OFFCURVE",
"243 -231 OFFCURVE",
"304 -231 CURVE SMOOTH",
"366 -231 OFFCURVE",
"405 -191 OFFCURVE",
"405 -127 CURVE SMOOTH",
"405 -67 OFFCURVE",
"371 -32 OFFCURVE",
"312 -32 CURVE SMOOTH"
);
}
);
};
components = (
{
name = A;
},
{
name = dotbelowcomb;
transform = "{1, 0, 0, 1, 201, 0}";
}
);
layerId = "6DC2006A-28B6-4A13-A5DF-3641E0854074";
width = 627;
}
);
leftKerningGroup = A;
rightKerningGroup = A;
unicode = 1EA0;
},
{
color = 10;
glyphname = Agrave;
layers = (
{
background = {
paths = (
{
closed = 1;
nodes = (
"198 647 LINE",
"2 0 LINE",
"198 0 LINE",
"217 119 LINE",
"309 468 LINE",
"321 468 LINE",
"396 107 LINE",
"414 0 LINE",
"617 0 LINE",
"440 647 LINE"
);
},
{
closed = 1;
nodes = (
"309 255 LINE",
"187 258 LINE",
"187 107 LINE",
"297 112 LINE",
"412 110 LINE",
"412 257 LINE"
);
},
{
closed = 1;
nodes = (
"222 914 LINE",
"173 797 LINE",
"179 781 LINE",
"265 754 OFFCURVE",
"340 732 OFFCURVE",
"417 712 CURVE",
"434 716 LINE",
"464 795 LINE",
"381 837 OFFCURVE",
"310 876 OFFCURVE",
"239 918 CURVE"
);
}
);
};
components = (
{
name = A;
},
{
name = gravecomb.case;
transform = "{1, 0, 0, 1, 112, 175}";
}
);
layerId = "6DC2006A-28B6-4A13-A5DF-3641E0854074";
width = 627;
}
);
leftKerningGroup = A;
rightKerningGroup = A;
unicode = 00C0;
},
{
color = 10;
glyphname = Ahookabove;
layers = (
{
background = {
paths = (
{
closed = 1;
nodes = (
"198 647 LINE",
"2 0 LINE",
"198 0 LINE",
"217 119 LINE",
"309 468 LINE",
"321 468 LINE",
"396 107 LINE",
"414 0 LINE",
"617 0 LINE",
"440 647 LINE"
);
},
{
closed = 1;
nodes = (
"309 255 LINE",
"187 258 LINE",
"187 107 LINE",
"297 112 LINE",
"412 110 LINE",
"412 257 LINE"
);
},
{
closed = 1;
nodes = (
"255 948 OFFCURVE",
"208 924 OFFCURVE",
"174 887 CURVE",
"203 840 LINE",
"224 856 OFFCURVE",
"252 866 OFFCURVE",
"273 866 CURVE SMOOTH",
"290 866 OFFCURVE",
"303 859 OFFCURVE",
"303 842 CURVE SMOOTH",
"303 821 OFFCURVE",
"283 790 OFFCURVE",
"249 766 CURVE",
"303 686 LINE",
"367 725 LINE",
"340 768 LINE",
"387 810 OFFCURVE",
"401 831 OFFCURVE",
"401 860 CURVE SMOOTH",
"401 913 OFFCURVE",
"357 948 OFFCURVE",
"301 948 CURVE SMOOTH"
);
}
);
};
components = (
{
name = A;
},
{
name = hookabovecomb;
transform = "{1, 0, 0, 1, 150, 175}";
}
);
layerId = "6DC2006A-28B6-4A13-A5DF-3641E0854074";
width = 627;
}
);
leftKerningGroup = A;
rightKerningGroup = A;
unicode = 1EA2;
},
{
color = 10;
glyphname = Amacron;
layers = (
{
background = {
paths = (
{
closed = 1;
nodes = (
"198 647 LINE",
"2 0 LINE",
"198 0 LINE",
"217 119 LINE",
"309 468 LINE",
"321 468 LINE",
"396 107 LINE",
"414 0 LINE",
"617 0 LINE",
"440 647 LINE"
);
},
{
closed = 1;
nodes = (
"309 255 LINE",
"187 258 LINE",
"187 107 LINE",
"297 112 LINE",
"412 110 LINE",
"412 257 LINE"
);
},
{
closed = 1;
nodes = (
"176 866 LINE",
"167 759 LINE",
"179 746 LINE",
"455 746 LINE",
"464 853 LINE",
"452 866 LINE"
);
}
);
};
components = (
{
name = A;
},
{
name = macroncomb.case;
transform = "{1, 0, 0, 1, 141, 175}";
}
);
layerId = "6DC2006A-28B6-4A13-A5DF-3641E0854074";
width = 627;
}
);
leftKerningGroup = A;
rightKerningGroup = A;
unicode = 0100;
},
{
color = 0;
glyphname = Aogonek;
layers = (
{
background = {
paths = (
{
closed = 1;
nodes = (
"414 1 LINE",
"381 -36 OFFCURVE",
"369 -65 OFFCURVE",
"369 -97 CURVE SMOOTH",
"369 -155 OFFCURVE",
"408 -197 OFFCURVE",
"473 -197 CURVE SMOOTH",
"510 -197 OFFCURVE",
"542 -183 OFFCURVE",
"584 -151 CURVE",
"572 -79 LINE",
"562 -79 LINE",
"541 -92 OFFCURVE",
"519 -99 OFFCURVE",
"501 -99 CURVE SMOOTH",
"476 -99 OFFCURVE",
"465 -85 OFFCURVE",
"465 -67 CURVE SMOOTH",
"465 -52 OFFCURVE",
"473 -31 OFFCURVE",
"499 1 CURVE"
);
}
);
};
components = (
{
name = A;
},
{
name = ogonekcomb.i;
transform = "{1, 0, 0, 1, 338, 0}";
}
);
layerId = "6DC2006A-28B6-4A13-A5DF-3641E0854074";
width = 627;
}
);
leftKerningGroup = A;
rightKerningGroup = A;
unicode = 0104;
},
{
color = 10;
glyphname = Aring;
layers = (
{
background = {
paths = (
{
closed = 1;
nodes = (
"198 647 LINE",
"2 0 LINE",
"198 0 LINE",
"217 119 LINE",
"309 468 LINE",
"321 468 LINE",
"396 107 LINE",
"414 0 LINE",
"617 0 LINE",
"440 647 LINE"
);
},
{
closed = 1;
nodes = (
"309 255 LINE",
"187 258 LINE",
"187 107 LINE",
"297 112 LINE",
"412 110 LINE",
"412 257 LINE"
);
},
{
closed = 1;
nodes = (
"244 931 OFFCURVE",
"205 893 OFFCURVE",
"205 820 CURVE SMOOTH",
"205 749 OFFCURVE",
"241 713 OFFCURVE",
"311 713 CURVE SMOOTH",
"386 713 OFFCURVE",
"425 754 OFFCURVE",
"425 827 CURVE SMOOTH",
"425 896 OFFCURVE",
"390 931 OFFCURVE",
"319 931 CURVE SMOOTH"
);
},
{
closed = 1;
nodes = (
"340 853 OFFCURVE",
"350 844 OFFCURVE",
"350 820 CURVE SMOOTH",
"350 797 OFFCURVE",
"341 789 OFFCURVE",
"316 789 CURVE SMOOTH",
"290 789 OFFCURVE",
"280 798 OFFCURVE",
"280 823 CURVE SMOOTH",
"280 845 OFFCURVE",
"289 853 OFFCURVE",
"314 853 CURVE SMOOTH"
);
}
);
};
components = (
{
name = A;
},
{
name = ringcomb;
transform = "{1, 0, 0, 1, 140, 175}";
}
);
layerId = "6DC2006A-28B6-4A13-A5DF-3641E0854074";
width = 627;
}
);
leftKerningGroup = A;
rightKerningGroup = A;
unicode = 00C5;
},
{
color = 0;
glyphname = Aringacute;
layers = (
{
anchors = (
{
name = _top;
position = "{376, 526}";
},
{
name = top;
position = "{411, 810}";
}
);
background = {
paths = (
{
closed = 1;
nodes = (
"300 647 LINE",
"4 0 LINE",
"200 0 LINE",
"233 115 LINE",
"366 450 LINE",
"378 450 LINE",
"411 103 LINE",
"416 0 LINE",
"619 0 LINE",
"501 647 LINE"
);
},
{
closed = 1;
nodes = (
"341 246 LINE",
"219 248 LINE",
"202 103 LINE",
"312 108 LINE",
"427 106 LINE",
"444 248 LINE"
);
},
{
closed = 0;
nodes = (
"311 288 LINE"
);
}
);
};
layerId = "6DC2006A-28B6-4A13-A5DF-3641E0854074";
paths = (
{
closed = 1;
nodes = (
"300 647 LINE",
"4 0 LINE",
"200 0 LINE",
"233 115 LINE",
"366 450 LINE",
"378 450 LINE",
"411 103 LINE",
"416 0 LINE",
"619 0 LINE",
"501 647 LINE"
);
},
{
closed = 1;
nodes = (
"341 246 LINE",
"219 248 LINE",
"202 103 LINE",
"312 108 LINE",
"427 106 LINE",
"444 248 LINE"
);
},
{
closed = 0;
nodes = (
"311 288 LINE"
);
},
{
closed = 1;
nodes = (
"331 810 OFFCURVE",
"292 772 OFFCURVE",
"292 699 CURVE SMOOTH",
"292 628 OFFCURVE",
"328 592 OFFCURVE",
"398 592 CURVE SMOOTH",
"473 592 OFFCURVE",
"512 633 OFFCURVE",
"512 706 CURVE SMOOTH",
"512 775 OFFCURVE",
"477 810 OFFCURVE",
"406 810 CURVE SMOOTH"
);
},
{
closed = 1;
nodes = (
"427 732 OFFCURVE",
"437 723 OFFCURVE",
"437 699 CURVE SMOOTH",
"437 676 OFFCURVE",
"428 668 OFFCURVE",
"403 668 CURVE SMOOTH",
"377 668 OFFCURVE",
"367 677 OFFCURVE",
"367 702 CURVE SMOOTH",
"367 724 OFFCURVE",
"376 732 OFFCURVE",
"401 732 CURVE SMOOTH"
);
},
{
closed = 1;
nodes = (
"451.599 974.633 OFFCURVE",
"376.378 944.581 OFFCURVE",
"288.881 913.013 CURVE",
"309.025 830.949 LINE",
"325.41 824.907 LINE",
"404.271 835.37 OFFCURVE",
"481.39 848.063 OFFCURVE",
"570.036 864.377 CURVE",
"577.942 879.525 LINE",
"543.572 1001.621 LINE",
"527.187 1007.663 LINE"
);
}
);
width = 658;
}
);
leftKerningGroup = A;
rightKerningGroup = A;
unicode = 01FA;
},
{
color = 10;
glyphname = Atilde;
layers = (
{
background = {
paths = (
{
closed = 1;
nodes = (
"198 647 LINE",
"2 0 LINE",
"198 0 LINE",
"217 119 LINE",
"309 468 LINE",
"321 468 LINE",
"396 107 LINE",
"414 0 LINE",
"617 0 LINE",
"440 647 LINE"
);
},
{
closed = 1;
nodes = (
"309 255 LINE",
"187 258 LINE",
"187 107 LINE",
"297 112 LINE",
"412 110 LINE",
"412 257 LINE"
);
},
{
closed = 1;
nodes = (
"437 916 LINE",
"414 887 OFFCURVE",
"394 858 OFFCURVE",
"368 858 CURVE SMOOTH",
"342 858 OFFCURVE",
"267 885 OFFCURVE",
"215 892 CURVE",
"199 886 LINE",
"118 773 LINE",
"118 757 LINE",
"175 702 LINE",
"191 702 LINE",
"214 731 OFFCURVE",
"234 760 OFFCURVE",
"260 760 CURVE SMOOTH",
"286 760 OFFCURVE",
"361 733 OFFCURVE",
"413 726 CURVE",
"429 732 LINE",
"510 845 LINE",
"510 861 LINE",
"453 916 LINE"
);
}
);
};
components = (
{
name = A;
},
{
name = tilde;
transform = "{1, 0, 0, 1, 148, 175}";
}
);
layerId = "6DC2006A-28B6-4A13-A5DF-3641E0854074";
width = 627;
}
);
leftKerningGroup = A;
rightKerningGroup = A;
unicode = 00C3;
},
{
color = 1;
glyphname = AE;
layers = (
{
anchors = (
{
name = top;
position = "{502, 637}";
}
);
associatedMasterId = UUID0;
background = {
paths = (
{
closed = 1;
nodes = (
"281.333 -6 LINE",
"280.735 -12 LINE",
"280.735 -12 OFFCURVE",
"343.941 0.52 OFFCURVE",
"416.784 0 CURVE SMOOTH",
"446.627 0 LINE SMOOTH",
"519.569 0 OFFCURVE",
"688.608 -9 OFFCURVE",
"688.608 -7 CURVE",
"688.412 -6 LINE",
"696.892 66.333 OFFCURVE",
"714.892 142.059 OFFCURVE",
"714.892 142.059 CURVE",
"716.569 141.863 LINE",
"716.216 138.941 LINE",
"699.657 18.549 OFFCURVE",
"680.618 9.147 OFFCURVE",
"500.284 9.147 CURVE SMOOTH",
"433.814 9.147 OFFCURVE",
"409.735 23.549 OFFCURVE",
"401.216 77.667 CURVE SMOOTH",
"364.382 296.549 LINE",
"496.245 303.99 LINE",
"577.049 302.314 LINE",
"590.569 322.578 LINE",
"593.324 321.343 LINE",
"506 315.098 LINE",
"364.618 305.137 LINE",
"327.382 583.539 LINE",
"328.902 616.216 OFFCURVE",
"335.902 618.176 OFFCURVE",
"416.088 618.176 CURVE SMOOTH",
"591.304 618.176 OFFCURVE",
"603.745 614.255 OFFCURVE",
"603.745 538.863 CURVE SMOOTH",
"603.745 524.343 OFFCURVE",
"601.745 492.745 OFFCURVE",
"601.745 492.745 CURVE",
"602.98 494.147 LINE",
"609.5 585.108 OFFCURVE",
"625.98 643 OFFCURVE",
"625.98 643 CURVE",
"628.176 643.804 LINE",
"556.745 632.725 OFFCURVE",
"518.314 631.284 OFFCURVE",
"354.598 631.804 CURVE SMOOTH",
"298.049 631.804 OFFCURVE",
"285.49 636.324 OFFCURVE",
"285.49 634.804 CURVE",
"279.529 608.99 LINE",
"276.333 610.186 LINE",
"276.333 610.186 OFFCURVE",
"301.971 612.186 OFFCURVE",
"314.49 612.186 CURVE SMOOTH",
"327.451 612.186 OFFCURVE",
"335.971 609.745 OFFCURVE",
"338.971 602.422 CURVE",
"49.882 111.127 LINE SMOOTH",
"11.569 43.657 OFFCURVE",
"-29 0 OFFCURVE",
"-16 2.941 CURVE",
"-7 -5 LINE",
"-7 -5 OFFCURVE",
"43.52 0.52 OFFCURVE",
"54.608 0.52 CURVE SMOOTH",
"126.922 0.52 OFFCURVE",
"162.99 -9 OFFCURVE",
"161.951 -9 CURVE",
"165.912 19.735 LINE",
"82.931 14.539 LINE SMOOTH",
"49.088 14.539 OFFCURVE",
"27.931 31.774 OFFCURVE",
"27.931 58.412 CURVE SMOOTH",
"27.931 73.049 OFFCURVE",
"32.971 86.608 OFFCURVE",
"49.127 114.804 CURVE SMOOTH",
"148.706 296.971 LINE",
"246.98 300.216 LINE",
"358.451 305.618 LINE",
"383.206 148.324 LINE SMOOTH",
"387.245 122.686 OFFCURVE",
"393.324 92.892 OFFCURVE",
"393.324 64.657 CURVE SMOOTH",
"393.324 25.02 OFFCURVE",
"372.206 15.5 OFFCURVE",
"281.255 9.5 CURVE"
);
},
{
closed = 1;
nodes = (
"164.275 302.725 LINE",
"313.971 570.696 LINE",
"316.216 570.696 LINE",
"354.529 312.686 LINE",
"269.578 308.245 LINE"
);
}
);
};
layerId = "7D27C855-1358-4A13-9966-543CB0C3D72E";
name = "Light Jul 25 13, 11:39";
paths = (
{
closed = 1;
nodes = (
"338 637 LINE",
"-40 0 LINE SMOOTH",
"-14 0 LINE",
"8 43 LINE",
"340 603 LINE",
"344 603 LINE",
"441 43 LINE",
"446 0 LINE",
"467 0 LINE",
"358 637 LINE"
);
},
{
closed = 1;
nodes = (
"260 233 LINE",
"107 233 LINE",
"97 213 LINE",
"251 213 LINE",
"420 213 LINE",
"419 233 LINE"
);
},
{
closed = 1;
nodes = (
"599 20 LINE",
"459 20 LINE",
"457 4 LINE",
"462 0 LINE",
"757 0 LINE",
"761 16 LINE",
"759 20 LINE"
);
},
{
closed = 1;
nodes = (
"541 340 LINE",
"402 340 LINE",
"401 324 LINE",
"406 320 LINE",
"537 320 LINE",
"647 320 LINE",
"651 336 LINE",
"648 340 LINE"
);
},
{
closed = 1;
nodes = (
"350 637 LINE",
"349 621 LINE",
"353 617 LINE",
"497 617 LINE",
"644 617 LINE",
"649 633 LINE",
"646 637 LINE"
);
},
{
closed = 1;
nodes = (
"281.333 -6 LINE",
"280.735 -12 LINE",
"280.735 -12 OFFCURVE",
"343.941 0.52 OFFCURVE",
"416.784 0 CURVE SMOOTH",
"446.627 0 LINE SMOOTH",
"519.569 0 OFFCURVE",
"688.608 -9 OFFCURVE",
"688.608 -7 CURVE",
"688.412 -6 LINE",
"696.892 66.333 OFFCURVE",
"714.892 142.059 OFFCURVE",
"714.892 142.059 CURVE",
"716.569 141.863 LINE",
"716.216 138.941 LINE",
"699.657 18.549 OFFCURVE",
"680.618 9.147 OFFCURVE",
"500.284 9.147 CURVE SMOOTH",
"433.814 9.147 OFFCURVE",
"409.735 23.549 OFFCURVE",
"401.216 77.667 CURVE SMOOTH",
"364.382 296.549 LINE",
"496.245 303.99 LINE",
"577.049 302.314 LINE",
"590.569 322.578 LINE",
"593.324 321.343 LINE",
"506 315.098 LINE",
"364.618 305.137 LINE",
"327.382 583.539 LINE",
"328.902 616.216 OFFCURVE",
"335.902 618.176 OFFCURVE",
"416.088 618.176 CURVE SMOOTH",
"591.304 618.176 OFFCURVE",
"603.745 614.255 OFFCURVE",
"603.745 538.863 CURVE SMOOTH",
"603.745 524.343 OFFCURVE",
"601.745 492.745 OFFCURVE",
"601.745 492.745 CURVE",
"602.98 494.147 LINE",
"609.5 585.108 OFFCURVE",
"625.98 643 OFFCURVE",
"625.98 643 CURVE",
"628.176 643.804 LINE",
"556.745 632.725 OFFCURVE",
"518.314 631.284 OFFCURVE",
"354.598 631.804 CURVE SMOOTH",
"298.049 631.804 OFFCURVE",
"285.49 636.324 OFFCURVE",
"285.49 634.804 CURVE",
"279.529 608.99 LINE",
"276.333 610.186 LINE",
"276.333 610.186 OFFCURVE",
"301.971 612.186 OFFCURVE",
"314.49 612.186 CURVE SMOOTH",
"327.451 612.186 OFFCURVE",
"335.971 609.745 OFFCURVE",
"338.971 602.422 CURVE",
"49.882 111.127 LINE SMOOTH",
"11.569 43.657 OFFCURVE",
"-29 0 OFFCURVE",
"-16 2.941 CURVE",
"-7 -5 LINE",
"-7 -5 OFFCURVE",
"43.52 0.52 OFFCURVE",
"54.608 0.52 CURVE SMOOTH",
"126.922 0.52 OFFCURVE",
"162.99 -9 OFFCURVE",
"161.951 -9 CURVE",
"165.912 19.735 LINE",
"82.931 14.539 LINE SMOOTH",
"49.088 14.539 OFFCURVE",
"27.931 31.775 OFFCURVE",
"27.931 58.412 CURVE SMOOTH",
"27.931 73.049 OFFCURVE",
"32.971 86.608 OFFCURVE",
"49.128 114.804 CURVE SMOOTH",
"148.706 296.971 LINE",
"246.98 300.216 LINE",
"358.451 305.618 LINE",
"383.206 148.324 LINE SMOOTH",
"387.245 122.686 OFFCURVE",
"393.324 92.892 OFFCURVE",
"393.324 64.657 CURVE SMOOTH",
"393.324 25.02 OFFCURVE",
"372.206 15.5 OFFCURVE",
"281.255 9.5 CURVE"
);
},
{
closed = 1;
nodes = (
"164.275 302.725 LINE",
"313.971 570.696 LINE",
"316.216 570.696 LINE",
"354.529 312.686 LINE",
"269.578 308.245 LINE"
);
}
);
width = 1008;
},
{
anchors = (
{
name = top;
position = "{589, 647}";
}
);
associatedMasterId = UUID0;
background = {
paths = (
{
closed = 1;
nodes = (
"333 3 LINE",
"340 -6 LINE",
"340 -6 OFFCURVE",
"426 -1 OFFCURVE",
"511 0 CURVE SMOOTH",
"553 0 LINE SMOOTH",
"708 0 OFFCURVE",
"874 -7 OFFCURVE",
"874 -7 CURVE",
"889 9 LINE",
"899 118 OFFCURVE",
"917 215 OFFCURVE",
"917 215 CURVE",
"905 230 LINE",
"777 221 LINE",
"765 131 OFFCURVE",
"749 114 OFFCURVE",
"672 114 CURVE SMOOTH",
"642 114 OFFCURVE",
"624 136 OFFCURVE",
"617 181 CURVE SMOOTH",
"606 254 LINE",
"671 266 LINE",
"767 278 LINE",
"779 394 LINE",
"762 411 LINE",
"661 385 LINE",
"588 372 LINE",
"569 503 LINE",
"569 522 OFFCURVE",
"576 527 OFFCURVE",
"603 527 CURVE SMOOTH",
"684 527 OFFCURVE",
"701 517 OFFCURVE",
"701 472 CURVE SMOOTH",
"701 459 OFFCURVE",
"699 435 OFFCURVE",
"699 435 CURVE",
"837 444 LINE",
"842 538 OFFCURVE",
"860 643 OFFCURVE",
"860 643 CURVE",
"847 659 LINE",
"809 654 OFFCURVE",
"649 648 OFFCURVE",
"502 647 CURVE SMOOTH",
"333 647 OFFCURVE",
"170 650 OFFCURVE",
"170 650 CURVE",
"161 571 LINE",
"173 557 LINE",
"173 557 OFFCURVE",
"188 559 OFFCURVE",
"199 559 CURVE SMOOTH",
"215 559 OFFCURVE",
"222 552 OFFCURVE",
"225 531 CURVE",
"59 140 LINE SMOOTH",
"45 109 OFFCURVE",
"27 91 OFFCURVE",
"2 85 CURVE",
"5 -2 LINE",
"5 -2 OFFCURVE",
"42 -1 OFFCURVE",
"85 -1 CURVE SMOOTH",
"133 -1 OFFCURVE",
"280 -3 OFFCURVE",
"282 -4 CURVE",
"289 79 LINE",
"282 89 LINE SMOOTH",
"236 89 OFFCURVE",
"227 88 OFFCURVE",
"227 104 CURVE SMOOTH",
"227 108 OFFCURVE",
"229 117 OFFCURVE",
"233 130 CURVE SMOOTH",
"249 183 LINE",
"326 206 LINE",
"401 219 LINE",
"406 162 LINE SMOOTH",
"407 147 OFFCURVE",
"407 140 OFFCURVE",
"407 130 CURVE SMOOTH",
"407 101 OFFCURVE",
"395 93 OFFCURVE",
"339 87 CURVE"
);
},
{
closed = 1;
nodes = (
"298 324 LINE",
"355 478 LINE",
"377 478 LINE",
"391 337 LINE",
"341 328 LINE"
);
}
);
};
layerId = "C7171574-D09C-414C-A3B1-F1F1E48F787D";
name = "Bold Jul 25 13, 11:42";
paths = (
{
closed = 1;
nodes = (
"308 647 LINE",
"32 0 LINE",
"228 0 LINE",
"262 119 LINE",
"397 468 LINE",
"409 468 LINE",
"439 107 LINE",
"444 0 LINE",
"636 0 LINE",
"590 647 LINE"
);
},
{
closed = 1;
nodes = (
"371 255 LINE",
"249 258 LINE",
"230 107 LINE",
"341 112 LINE",
"456 110 LINE",
"474 257 LINE"
);
},
{
closed = 1;
nodes = (
"716 154 LINE",
"559 154 LINE",
"576 11 LINE",
"578 0 LINE",
"890 0 LINE",
"902 146 LINE",
"891 160 LINE"
);
},
{
closed = 1;
nodes = (
"700 402 LINE",
"538 402 LINE",
"556 259 LINE",
"557 248 LINE",
"688 248 LINE",
"804 245 LINE",
"816 391 LINE",
"805 405 LINE"
);
},
{
closed = 1;
nodes = (
"498 647 LINE",
"516 504 LINE",
"517 493 LINE",
"677 493 LINE",
"836 487 LINE",
"849 633 LINE",
"838 647 LINE"
);
}
);
width = 1165;
},
{
anchors = (
{
name = top;
position = "{555, 647}";
}
);
background = {
paths = (
{
closed = 1;
nodes = (
"256 647 LINE",
"-20 0 LINE",
"176 0 LINE",
"210 119 LINE",
"345 468 LINE",
"357 468 LINE",
"387 107 LINE",
"392 0 LINE",
"828 0 LINE",
"840 146 LINE",
"829 160 LINE",
"664 154 LINE",
"573.051 154 LINE",
"548.949 493 LINE",
"625 493 LINE",
"774 487 LINE",
"787 633 LINE",
"776 647 LINE"
);
},
{
closed = 1;
nodes = (
"521 368 LINE",
"161 258 LINE",
"115 92 LINE",
"542 222 LINE",
"758 284 LINE",
"740 422 LINE",
"726 433 LINE"
);
}
);
};
layerId = "6DC2006A-28B6-4A13-A5DF-3641E0854074";
paths = (
{
closed = 1;
nodes = (
"306 647 LINE",
"-49 0 LINE",
"147 0 LINE",
"195 119 LINE",
"373 468 LINE",
"385 468 LINE",
"370 107 LINE",
"362 0 LINE",
"798 0 LINE",
"828 146 LINE",
"818 160 LINE",
"653 154 LINE",
"562 154 LINE",
"580 493 LINE",
"655 493 LINE",
"804 487 LINE",
"834 633 LINE",
"825 647 LINE"
);
},
{
closed = 1;
nodes = (
"536 368 LINE",
"163 258 LINE",
"97 92 LINE",
"539 222 LINE",
"763 284 LINE",
"762 422 LINE",
"749 433 LINE"
);
}
);
width = 839;
}
);
leftKerningGroup = A;
rightKerningGroup = E;
unicode = 00C6;
},
{
color = 10;
glyphname = AEacute;
layers = (
{
background = {
paths = (
{
closed = 1;
nodes = (
"256 647 LINE",
"-20 0 LINE",
"176 0 LINE",
"210 119 LINE",
"345 468 LINE",
"357 468 LINE",
"387 107 LINE",
"392 0 LINE",
"828 0 LINE",
"840 146 LINE",
"829 160 LINE",
"664 154 LINE",
"573 154 LINE",
"549 493 LINE",
"625 493 LINE",
"774 487 LINE",
"787 633 LINE",
"776 647 LINE"
);
},
{
closed = 1;
nodes = (
"521 368 LINE",
"161 258 LINE",
"115 92 LINE",
"542 222 LINE",
"758 284 LINE",
"740 422 LINE",
"726 433 LINE"
);
},
{
closed = 1;
nodes = (
"532 876 OFFCURVE",
"461 837 OFFCURVE",
"378 795 CURVE",
"408 716 LINE",
"425 712 LINE",
"502 732 OFFCURVE",
"577 754 OFFCURVE",
"663 781 CURVE",
"669 797 LINE",
"620 914 LINE",
"603 918 LINE"
);
}
);
};
components = (
{
name = AE;
},
{
name = acutecomb.case;
transform = "{1, 0, 0, 1, 337, 175}";
}
);
layerId = "6DC2006A-28B6-4A13-A5DF-3641E0854074";
width = 839;
}
);
leftKerningGroup = A;
rightKerningGroup = E;
unicode = 01FC;
},
{
color = 1;
glyphname = B;
layers = (
{
background = {
paths = (
{
closed = 1;
nodes = (
"60 647 LINE",
"172 509 LINE",
"218 512 OFFCURVE",
"236 513 OFFCURVE",
"262 513 CURVE SMOOTH",
"351 513 OFFCURVE",
"376 499 OFFCURVE",
"376 452 CURVE SMOOTH",
"376 413 OFFCURVE",
"360 393 OFFCURVE",
"325 381 CURVE",
"130 390 LINE",
"130 251 LINE",
"344 255 LINE",
"381 242 OFFCURVE",
"397 225 OFFCURVE",
"397 195 CURVE SMOOTH",
"397 150 OFFCURVE",
"365 127 OFFCURVE",
"314 127 CURVE",
"286 127 OFFCURVE",
"221 133 OFFCURVE",
"182 141 CURVE",
"60 0 LINE",
"131 -4 OFFCURVE",
"226 -7 OFFCURVE",
"275 -7 CURVE SMOOTH",
"489 -7 OFFCURVE",
"603 50 OFFCURVE",
"603 187 CURVE SMOOTH",
"603 262 OFFCURVE",
"569 309 OFFCURVE",
"486 333 CURVE",
"549 363 OFFCURVE",
"583 416 OFFCURVE",
"583 482 CURVE SMOOTH",
"583 591 OFFCURVE",
"494 648 OFFCURVE",
"350 648 CURVE SMOOTH"
);
},
{
closed = 1;
nodes = (
"60 647 LINE",
"70 190 LINE",
"60 0 LINE",
"257 0 LINE",
"249 210 LINE",
"260 647 LINE"
);
}
);
};
layerId = "6DC2006A-28B6-4A13-A5DF-3641E0854074";
paths = (
{
closed = 1;
nodes = (
"112 647 LINE",
"205 511 LINE",
"258 514 OFFCURVE",
"280 515 OFFCURVE",
"305 515 CURVE SMOOTH",
"388 515 OFFCURVE",
"409 502 OFFCURVE",
"409 460 CURVE SMOOTH",
"409 419 OFFCURVE",
"388 393 OFFCURVE",
"344 380 CURVE",
"149 389 LINE",
"133 252 LINE",
"349 256 LINE",
"382 244 OFFCURVE",
"399 231 OFFCURVE",
"399 200 CURVE SMOOTH",
"399 153 OFFCURVE",
"361 125 OFFCURVE",
"300 125 CURVE",
"271 125 OFFCURVE",
"207 131 OFFCURVE",
"169 139 CURVE",
"33 0 LINE",
"102 -3 OFFCURVE",
"193 -7 OFFCURVE",
"252 -7 CURVE SMOOTH",
"500 -7 OFFCURVE",
"602 64 OFFCURVE",
"602 196 CURVE SMOOTH",
"602 265 OFFCURVE",
"574 302 OFFCURVE",
"498 333 CURVE",
"578 368 OFFCURVE",
"616 431 OFFCURVE",
"616 497 CURVE SMOOTH",
"616 599 OFFCURVE",
"525 648 OFFCURVE",
"391 648 CURVE SMOOTH"
);
},
{
closed = 1;
nodes = (
"112 647 LINE",
"66 190 LINE",
"33 0 LINE",
"226 0 LINE",
"244 210 LINE",
"308 647 LINE"
);
}
);
width = 631;
}
);
leftKerningGroup = H;
rightKerningGroup = B;
unicode = 0042;
},
{
color = 1;
glyphname = C;
layers = (
{
anchors = (
{
name = bottom;
position = "{327, 0}";
},
{
name = top;
position = "{344, 647}";
}
);
background = {
paths = (
{
closed = 1;
nodes = (
"138 658 OFFCURVE",
"17 533 OFFCURVE",
"17 318 CURVE SMOOTH",
"17 105 OFFCURVE",
"124 -11 OFFCURVE",
"341 -11 CURVE SMOOTH",
"385 -11 OFFCURVE",
"433 -7 OFFCURVE",
"480 8 CURVE",
"496 166 LINE",
"480 176 LINE",
"444 163 OFFCURVE",
"393 155 OFFCURVE",
"357 155 CURVE SMOOTH",
"269 155 OFFCURVE",
"229 212 OFFCURVE",
"229 341 CURVE SMOOTH",
"229 452 OFFCURVE",
"264 495 OFFCURVE",
"344 495 CURVE SMOOTH",
"382 495 OFFCURVE",
"432 483 OFFCURVE",
"467 464 CURVE",
"480 472 LINE",
"514 631 LINE",
"466 648 OFFCURVE",
"412 658 OFFCURVE",
"352 658 CURVE SMOOTH"
);
}
);
};
layerId = "6DC2006A-28B6-4A13-A5DF-3641E0854074";
paths = (
{
closed = 1;
nodes = (
"156 658 OFFCURVE",
"25 509 OFFCURVE",
"25 263 CURVE SMOOTH",
"25 87 OFFCURVE",
"129 -11 OFFCURVE",
"323 -11 CURVE SMOOTH",
"367 -11 OFFCURVE",
"405 -7 OFFCURVE",
"454 8 CURVE",
"489 166 LINE",
"475 176 LINE",
"437 163 OFFCURVE",
"385 155 OFFCURVE",
"349 155 CURVE SMOOTH",
"275 155 OFFCURVE",
"240 199 OFFCURVE",
"240 295 CURVE SMOOTH",
"240 432 OFFCURVE",
"276 495 OFFCURVE",
"378 495 CURVE SMOOTH",
"416 495 OFFCURVE",
"464 483 OFFCURVE",
"497 464 CURVE",
"511 472 LINE",
"564 631 LINE",
"518 648 OFFCURVE",
"456 658 OFFCURVE",
"396 658 CURVE SMOOTH"
);
}
);
width = 516;
}
);
leftKerningGroup = O;
rightKerningGroup = C;
unicode = 0043;
},
{
color = 10;
glyphname = Cacute;
layers = (
{
background = {
paths = (
{
closed = 1;
nodes = (
"138 658 OFFCURVE",
"17 533 OFFCURVE",
"17 318 CURVE SMOOTH",
"17 105 OFFCURVE",
"124 -11 OFFCURVE",
"341 -11 CURVE SMOOTH",
"385 -11 OFFCURVE",
"433 -7 OFFCURVE",
"480 8 CURVE",
"496 166 LINE",
"480 176 LINE",
"444 163 OFFCURVE",
"393 155 OFFCURVE",
"357 155 CURVE SMOOTH",
"269 155 OFFCURVE",
"229 212 OFFCURVE",
"229 341 CURVE SMOOTH",
"229 452 OFFCURVE",
"264 495 OFFCURVE",
"344 495 CURVE SMOOTH",
"382 495 OFFCURVE",
"432 483 OFFCURVE",
"467 464 CURVE",
"480 472 LINE",
"514 631 LINE",
"466 648 OFFCURVE",
"412 658 OFFCURVE",
"352 658 CURVE SMOOTH"
);
},
{
closed = 1;
nodes = (
"342 876 OFFCURVE",
"271 837 OFFCURVE",
"188 795 CURVE",
"218 716 LINE",
"235 712 LINE",
"312 732 OFFCURVE",
"387 754 OFFCURVE",
"473 781 CURVE",
"479 797 LINE",
"430 914 LINE",
"413 918 LINE"
);
}
);
};
components = (
{
name = C;
},
{
name = acutecomb.case;
transform = "{1, 0, 0, 1, 126, 175}";
}
);
layerId = "6DC2006A-28B6-4A13-A5DF-3641E0854074";
width = 516;
}
);
leftKerningGroup = O;
rightKerningGroup = C;
unicode = 0106;
},
{
color = 10;
glyphname = Ccaron;
layers = (
{
background = {
paths = (
{
closed = 1;
nodes = (
"138 658 OFFCURVE",
"17 533 OFFCURVE",
"17 318 CURVE SMOOTH",
"17 105 OFFCURVE",
"124 -11 OFFCURVE",
"341 -11 CURVE SMOOTH",
"385 -11 OFFCURVE",
"433 -7 OFFCURVE",
"480 8 CURVE",
"496 166 LINE",
"480 176 LINE",
"444 163 OFFCURVE",
"393 155 OFFCURVE",
"357 155 CURVE SMOOTH",
"269 155 OFFCURVE",
"229 212 OFFCURVE",
"229 341 CURVE SMOOTH",
"229 452 OFFCURVE",
"264 495 OFFCURVE",
"344 495 CURVE SMOOTH",
"382 495 OFFCURVE",
"432 483 OFFCURVE",
"467 464 CURVE",
"480 472 LINE",
"514 631 LINE",
"466 648 OFFCURVE",
"412 658 OFFCURVE",
"352 658 CURVE SMOOTH"
);
},
{
closed = 1;
nodes = (
"435 907 LINE",
"396 887 OFFCURVE",
"356 867 OFFCURVE",
"317 847 CURVE",
"278 867 OFFCURVE",
"238 887 OFFCURVE",
"199 907 CURVE",
"181 907 LINE",
"147 831 LINE",
"204 792 OFFCURVE",
"255 753 OFFCURVE",
"300 712 CURVE",
"334 712 LINE",
"379 753 OFFCURVE",
"430 792 OFFCURVE",
"487 831 CURVE",
"453 907 LINE"
);
}
);
};
components = (
{
name = C;
},
{
name = caroncomb.case;
transform = "{1, 0, 0, 1, 116, 175}";
}
);
layerId = "6DC2006A-28B6-4A13-A5DF-3641E0854074";
width = 516;
}
);
leftKerningGroup = O;
rightKerningGroup = C;
unicode = 010C;
},
{
color = 10;
glyphname = Ccedilla;
layers = (
{
background = {
paths = (
{
closed = 1;
nodes = (
"138 658 OFFCURVE",
"17 533 OFFCURVE",
"17 318 CURVE SMOOTH",
"17 105 OFFCURVE",
"124 -11 OFFCURVE",
"341 -11 CURVE SMOOTH",
"385 -11 OFFCURVE",
"433 -7 OFFCURVE",
"480 8 CURVE",
"496 166 LINE",
"480 176 LINE",
"444 163 OFFCURVE",
"393 155 OFFCURVE",
"357 155 CURVE SMOOTH",
"269 155 OFFCURVE",
"229 212 OFFCURVE",
"229 341 CURVE SMOOTH",
"229 452 OFFCURVE",
"264 495 OFFCURVE",
"344 495 CURVE SMOOTH",
"382 495 OFFCURVE",
"432 483 OFFCURVE",
"467 464 CURVE",
"480 472 LINE",
"514 631 LINE",
"466 648 OFFCURVE",
"412 658 OFFCURVE",
"352 658 CURVE SMOOTH"
);
},
{
closed = 1;
nodes = (
"283 33 LINE",
"262 -76 LINE",
"311 -102 LINE SMOOTH",
"318 -106 OFFCURVE",
"322 -110 OFFCURVE",
"322 -117 CURVE SMOOTH",
"322 -125 OFFCURVE",
"317 -130 OFFCURVE",
"307 -130 CURVE SMOOTH",
"293 -130 OFFCURVE",
"269 -120 OFFCURVE",
"248 -103 CURVE",
"241 -106 LINE",
"230 -179 LINE",
"256 -193 OFFCURVE",
"285 -202 OFFCURVE",
"319 -202 CURVE SMOOTH",
"386 -202 OFFCURVE",
"426 -167 OFFCURVE",
"426 -120 CURVE SMOOTH",
"426 -97 OFFCURVE",
"416 -77 OFFCURVE",
"383 -59 CURVE SMOOTH",
"350 -41 LINE",
"364 33 LINE"
);
}
);
};
components = (
{
name = C;
},
{
name = cedillacomb;
transform = "{1, 0, 0, 1, 190, 1}";
}
);
layerId = "6DC2006A-28B6-4A13-A5DF-3641E0854074";
width = 516;
}
);
leftKerningGroup = O;
rightKerningGroup = C;
unicode = 00C7;
},
{
color = 10;
glyphname = Ccircumflex;
layers = (
{
background = {
paths = (
{
closed = 1;
nodes = (
"138 658 OFFCURVE",
"17 533 OFFCURVE",
"17 318 CURVE SMOOTH",
"17 105 OFFCURVE",
"124 -11 OFFCURVE",
"341 -11 CURVE SMOOTH",
"385 -11 OFFCURVE",
"433 -7 OFFCURVE",
"480 8 CURVE",
"496 166 LINE",
"480 176 LINE",
"444 163 OFFCURVE",
"393 155 OFFCURVE",
"357 155 CURVE SMOOTH",
"269 155 OFFCURVE",
"229 212 OFFCURVE",
"229 341 CURVE SMOOTH",
"229 452 OFFCURVE",
"264 495 OFFCURVE",
"344 495 CURVE SMOOTH",
"382 495 OFFCURVE",
"432 483 OFFCURVE",
"467 464 CURVE",
"480 472 LINE",
"514 631 LINE",
"466 648 OFFCURVE",
"412 658 OFFCURVE",
"352 658 CURVE SMOOTH"
);
},
{
closed = 1;
nodes = (
"199 721 LINE",
"238 741 OFFCURVE",
"278 761 OFFCURVE",
"317 781 CURVE",
"356 761 OFFCURVE",
"396 741 OFFCURVE",
"435 721 CURVE",
"453 721 LINE",
"487 797 LINE",
"430 836 OFFCURVE",
"379 875 OFFCURVE",
"334 916 CURVE",
"300 916 LINE",
"255 875 OFFCURVE",
"204 836 OFFCURVE",
"147 797 CURVE",
"181 721 LINE"
);
}
);
};
components = (
{
name = C;
},
{
name = circumflexcomb.case;
transform = "{1, 0, 0, 1, 122, 175}";
}
);
layerId = "6DC2006A-28B6-4A13-A5DF-3641E0854074";
width = 516;
}
);
leftKerningGroup = O;
rightKerningGroup = C;
unicode = 0108;
},
{
color = 10;
glyphname = Cdotaccent;
layers = (
{
background = {
paths = (
{
closed = 1;
nodes = (
"138 658 OFFCURVE",
"17 533 OFFCURVE",
"17 318 CURVE SMOOTH",
"17 105 OFFCURVE",
"124 -11 OFFCURVE",
"341 -11 CURVE SMOOTH",
"385 -11 OFFCURVE",
"433 -7 OFFCURVE",
"480 8 CURVE",
"496 166 LINE",
"480 176 LINE",
"444 163 OFFCURVE",
"393 155 OFFCURVE",
"357 155 CURVE SMOOTH",
"269 155 OFFCURVE",
"229 212 OFFCURVE",
"229 341 CURVE SMOOTH",
"229 452 OFFCURVE",
"264 495 OFFCURVE",
"344 495 CURVE SMOOTH",
"382 495 OFFCURVE",
"432 483 OFFCURVE",
"467 464 CURVE",
"480 472 LINE",
"514 631 LINE",
"466 648 OFFCURVE",
"412 658 OFFCURVE",
"352 658 CURVE SMOOTH"
);
},
{
closed = 1;
nodes = (
"258 903 OFFCURVE",
"219 863 OFFCURVE",
"219 799 CURVE SMOOTH",
"219 738 OFFCURVE",
"252 704 OFFCURVE",
"313 704 CURVE SMOOTH",
"375 704 OFFCURVE",
"414 744 OFFCURVE",
"414 808 CURVE SMOOTH",
"414 868 OFFCURVE",
"380 903 OFFCURVE",
"321 903 CURVE SMOOTH"
);
}
);
};
components = (
{
name = C;
},
{
name = dotaccentcomb;
transform = "{1, 0, 0, 1, 180, 175}";
}
);
layerId = "6DC2006A-28B6-4A13-A5DF-3641E0854074";
width = 516;
}
);
leftKerningGroup = O;
rightKerningGroup = C;
unicode = 010A;
},
{
color = 1;
glyphname = D;
layers = (
{
anchors = (
{
name = bottom;
position = "{305, 0}";
},
{
name = center;
position = "{327, 324}";
},
{
name = top;
position = "{352, 647}";
}
);
background = {
paths = (
{
closed = 1;
nodes = (
"60 647 LINE",
"240 489 LINE",
"275 493 OFFCURVE",
"311 495 OFFCURVE",
"335 495 CURVE SMOOTH",
"411 495 OFFCURVE",
"438 446 OFFCURVE",
"438 301 CURVE SMOOTH",
"438 181 OFFCURVE",
"401 140 OFFCURVE",
"342 140 CURVE SMOOTH",
"316 140 OFFCURVE",
"265 146 OFFCURVE",
"233 152 CURVE",
"60 0 LINE",
"138 -5 OFFCURVE",
"239 -9 OFFCURVE",
"304 -9 CURVE SMOOTH",
"525 -9 OFFCURVE",
"648 119 OFFCURVE",
"648 350 CURVE SMOOTH",
"648 544 OFFCURVE",
"543 651 OFFCURVE",
"352 651 CURVE"
);
},
{
closed = 1;
nodes = (
"60 647 LINE",
"70 190 LINE",
"60 0 LINE",
"261 0 LINE",
"253 210 LINE",
"264 647 LINE"
);
}
);
};
layerId = "6DC2006A-28B6-4A13-A5DF-3641E0854074";
paths = (
{
closed = 1;
nodes = (
"111 647 LINE",
"272 489 LINE",
"307 493 OFFCURVE",
"343 495 OFFCURVE",
"367 495 CURVE SMOOTH",
"427 495 OFFCURVE",
"453 461 OFFCURVE",
"453 368 CURVE SMOOTH",
"453 199 OFFCURVE",
"405 140 OFFCURVE",
"331 140 CURVE SMOOTH",
"305 140 OFFCURVE",
"255 146 OFFCURVE",
"223 152 CURVE",
"32 0 LINE",
"109 -5 OFFCURVE",
"220 -9 OFFCURVE",
"285 -9 CURVE SMOOTH",
"534 -9 OFFCURVE",
"666 145 OFFCURVE",
"666 397 CURVE SMOOTH",
"666 560 OFFCURVE",
"565 651 OFFCURVE",
"394 651 CURVE"
);
},
{
closed = 1;
nodes = (
"111 647 LINE",
"65 190 LINE",
"32 0 LINE",
"233 0 LINE",
"250 210 LINE",
"315 647 LINE"
);
}
);
width = 668;
}
);
leftKerningGroup = H;
rightKerningGroup = O;
unicode = 0044;
},
{
color = 10;
glyphname = Eth;
layers = (
{
background = {
paths = (
{
closed = 1;
nodes = (
"90 647 LINE",
"270 489 LINE",
"305 493 OFFCURVE",
"341 495 OFFCURVE",
"365 495 CURVE SMOOTH",
"441 495 OFFCURVE",
"468 446 OFFCURVE",
"468 301 CURVE SMOOTH",
"468 181 OFFCURVE",
"431 140 OFFCURVE",
"372 140 CURVE SMOOTH",
"346 140 OFFCURVE",
"295 146 OFFCURVE",
"263 152 CURVE",
"90 0 LINE",
"168 -5 OFFCURVE",
"269 -9 OFFCURVE",
"334 -9 CURVE SMOOTH",
"555 -9 OFFCURVE",
"678 119 OFFCURVE",
"678 350 CURVE SMOOTH",
"678 544 OFFCURVE",
"573 651 OFFCURVE",
"382 651 CURVE"
);
},
{
closed = 1;
nodes = (
"90 647 LINE",
"100 190 LINE",
"90 0 LINE",
"291 0 LINE",
"283 210 LINE",
"294 647 LINE"
);
},
{
closed = 1;
nodes = (
"26 380 LINE",
"19 263 LINE",
"28 250 LINE",
"373 250 LINE",
"380 367 LINE",
"371 380 LINE"
);
}
);
};
components = (
{
alignment = -1;
name = D;
transform = "{1, 0, 0, 1, 31, 0}";
},
{
alignment = -1;
name = endash;
transform = "{0.75, 0, 0, 1, 32, 54}";
}
);
layerId = "6DC2006A-28B6-4A13-A5DF-3641E0854074";
width = 699;
}
);
leftKerningGroup = H;
rightKerningGroup = O;
unicode = 00D0;
},
{
color = 10;
glyphname = Dcaron;
layers = (
{
background = {
paths = (
{
closed = 1;
nodes = (
"60 647 LINE",
"240 489 LINE",
"275 493 OFFCURVE",
"311 495 OFFCURVE",
"335 495 CURVE SMOOTH",
"411 495 OFFCURVE",
"438 446 OFFCURVE",
"438 301 CURVE SMOOTH",
"438 181 OFFCURVE",
"401 140 OFFCURVE",
"342 140 CURVE SMOOTH",
"316 140 OFFCURVE",
"265 146 OFFCURVE",
"233 152 CURVE",
"60 0 LINE",
"138 -5 OFFCURVE",
"239 -9 OFFCURVE",
"304 -9 CURVE SMOOTH",
"525 -9 OFFCURVE",
"648 119 OFFCURVE",
"648 350 CURVE SMOOTH",
"648 544 OFFCURVE",
"543 651 OFFCURVE",
"352 651 CURVE"
);
},
{
closed = 1;
nodes = (
"60 647 LINE",
"70 190 LINE",
"60 0 LINE",
"261 0 LINE",
"253 210 LINE",
"264 647 LINE"
);
},
{
closed = 1;
nodes = (
"446 907 LINE",
"407 887 OFFCURVE",
"367 867 OFFCURVE",
"328 847 CURVE",
"289 867 OFFCURVE",
"249 887 OFFCURVE",
"210 907 CURVE",
"192 907 LINE",
"158 831 LINE",
"215 792 OFFCURVE",
"266 753 OFFCURVE",
"311 712 CURVE",
"345 712 LINE",
"390 753 OFFCURVE",
"441 792 OFFCURVE",
"498 831 CURVE",
"464 907 LINE"
);
}
);
};
components = (
{
name = D;
},
{
name = caroncomb.case;
transform = "{1, 0, 0, 1, 124, 175}";
}
);
layerId = "6DC2006A-28B6-4A13-A5DF-3641E0854074";
width = 668;
}
);
leftKerningGroup = H;
rightKerningGroup = O;
unicode = 010E;
},
{
color = 10;
glyphname = Dcroat;
layers = (
{
background = {
paths = (
{
closed = 1;
nodes = (
"60 647 LINE",
"240 489 LINE",
"275 493 OFFCURVE",
"311 495 OFFCURVE",
"335 495 CURVE SMOOTH",
"411 495 OFFCURVE",
"438 446 OFFCURVE",
"438 301 CURVE SMOOTH",
"438 181 OFFCURVE",
"401 140 OFFCURVE",
"342 140 CURVE SMOOTH",
"316 140 OFFCURVE",
"265 146 OFFCURVE",
"233 152 CURVE",
"60 0 LINE",
"138 -5 OFFCURVE",
"239 -9 OFFCURVE",
"304 -9 CURVE SMOOTH",
"525 -9 OFFCURVE",
"648 119 OFFCURVE",
"648 350 CURVE SMOOTH",
"648 544 OFFCURVE",
"543 651 OFFCURVE",
"352 651 CURVE"
);
},
{
closed = 1;
nodes = (
"60 647 LINE",
"70 190 LINE",
"60 0 LINE",
"261 0 LINE",
"253 210 LINE",
"264 647 LINE"
);
},
{
closed = 1;
nodes = (
"189 866 LINE",
"180 759 LINE",
"192 746 LINE",
"468 746 LINE",
"477 853 LINE",
"465 866 LINE"
);
}
);
};
components = (
{
name = Eth;
}
);
layerId = "6DC2006A-28B6-4A13-A5DF-3641E0854074";
width = 699;
}
);
leftKerningGroup = H;
rightKerningGroup = O;
unicode = 0110;
},
{
color = 1;
glyphname = E;
layers = (
{
anchors = (
{
name = bottom;
position = "{318, 0}";
},
{
name = ogonek;
position = "{524, 40}";
},
{
name = top;
position = "{326, 647}";
}
);
associatedMasterId = UUID0;
layerId = "03234D1B-C0A2-493E-85E3-C39D6AD359DA";
name = "Light Sep 25 12, 09:52";
paths = (
{
closed = 1;
nodes = (
"177 108 OFFCURVE",
"179 169 OFFCURVE",
"183 314 CURVE",
"199 317 OFFCURVE",
"230 321 OFFCURVE",
"261 321 CURVE SMOOTH",
"319 321 OFFCURVE",
"411 318 OFFCURVE",
"411 318 CURVE",
"425 349 LINE",
"425 349 OFFCURVE",
"425 350 OFFCURVE",
"425 350 CURVE",
"425 350 OFFCURVE",
"336 336 OFFCURVE",
"297 336 CURVE SMOOTH",
"266 336 OFFCURVE",
"207 337 OFFCURVE",
"183 337 CURVE",
"191 539 LINE",
"191 615 OFFCURVE",
"184 617 OFFCURVE",
"280 617 CURVE SMOOTH",
"451 617 OFFCURVE",
"461 613 OFFCURVE",
"461 538 CURVE SMOOTH",
"461 523 OFFCURVE",
"459 492 OFFCURVE",
"459 492 CURVE",
"460 492 OFFCURVE",
"461 493 OFFCURVE",
"462 493 CURVE",
"468 584 OFFCURVE",
"485 643 OFFCURVE",
"485 643 CURVE",
"486 643 OFFCURVE",
"486 644 OFFCURVE",
"487 644 CURVE SMOOTH",
"416 634 OFFCURVE",
"367 632 OFFCURVE",
"191 632 CURVE SMOOTH",
"147 632 OFFCURVE",
"99 635 OFFCURVE",
"99 635 CURVE",
"93 608 LINE",
"92 608 OFFCURVE",
"91 609 OFFCURVE",
"90 609 CURVE SMOOTH",
"90 609 OFFCURVE",
"116 611 OFFCURVE",
"128 611 CURVE SMOOTH",
"162 611 OFFCURVE",
"170 600 OFFCURVE",
"170 557 CURVE SMOOTH",
"170 403 OFFCURVE",
"169 249 OFFCURVE",
"169 95 CURVE SMOOTH",
"169 39 OFFCURVE",
"150 21 OFFCURVE",
"85 13 CURVE",
"80 -10 LINE SMOOTH",
"80 -8 OFFCURVE",
"135 0 OFFCURVE",
"214 0 CURVE SMOOTH",
"301 0 OFFCURVE",
"477 -8 OFFCURVE",
"477 -7 CURVE SMOOTH",
"477 -7 OFFCURVE",
"477 -6 OFFCURVE",
"477 -6 CURVE",
"486 67 OFFCURVE",
"504 143 OFFCURVE",
"504 143 CURVE",
"504 143 OFFCURVE",
"505 143 OFFCURVE",
"505 143 CURVE",
"503 140 LINE",
"485 20 OFFCURVE",
"466 10 OFFCURVE",
"272 10 CURVE SMOOTH",
"185 10 OFFCURVE",
"177 15 OFFCURVE",
"177 70 CURVE SMOOTH"
);
}
);
width = 585;
},
{
anchors = (
{
name = bottom;
position = "{298, 0}";
},
{
name = ogonek;
position = "{458, 10}";
},
{
name = top;
position = "{337, 647}";
},
{
name = topleft;
position = "{70, 647}";
}
);
background = {
paths = (
{
closed = 1;
nodes = (
"60 647 LINE",
"70 190 LINE",
"60 0 LINE",
"261 0 LINE",
"253 210 LINE",
"264 647 LINE"
);
},
{
closed = 1;
nodes = (
"351 154 LINE",
"194 154 LINE",
"194 11 LINE",
"194 0 LINE",
"516 0 LINE",
"528 146 LINE",
"517 160 LINE"
);
},
{
closed = 1;
nodes = (
"357 402 LINE",
"204 402 LINE",
"204 259 LINE",
"204 248 LINE",
"344 248 LINE",
"460 245 LINE",
"472 391 LINE",
"461 405 LINE"
);
},
{
closed = 1;
nodes = (
"194 647 LINE",
"194 504 LINE",
"194 493 LINE",
"363 493 LINE",
"522 487 LINE",
"535 633 LINE",
"524 647 LINE"
);
}
);
};
layerId = "6DC2006A-28B6-4A13-A5DF-3641E0854074";
paths = (
{
closed = 1;
nodes = (
"111 647 LINE",
"64 190 LINE",
"31 0 LINE",
"232 0 LINE",
"250 210 LINE",
"315 647 LINE"
);
},
{
closed = 1;
nodes = (
"341 154 LINE",
"184 154 LINE",
"166 11 LINE",
"165 0 LINE",
"487 0 LINE",
"517 146 LINE",
"508 160 LINE"
);
},
{
closed = 1;
nodes = (
"377 402 LINE",
"224 402 LINE",
"207 259 LINE",
"206 248 LINE",
"346 248 LINE",
"461 245 LINE",
"491 391 LINE",
"482 405 LINE"
);
},
{
closed = 1;
nodes = (
"245 647 LINE",
"227 504 LINE",
"226 493 LINE",
"395 493 LINE",
"553 487 LINE",
"584 633 LINE",
"575 647 LINE"
);
}
);
width = 541;
}
);
leftKerningGroup = H;
rightKerningGroup = E;
unicode = 0045;
},
{
color = 10;
glyphname = Eacute;
layers = (
{
background = {
paths = (
{
closed = 1;
nodes = (
"60 647 LINE",
"70 190 LINE",
"60 0 LINE",
"261 0 LINE",
"253 210 LINE",
"264 647 LINE"
);
},
{
closed = 1;
nodes = (
"351 154 LINE",
"194 154 LINE",
"194 11 LINE",
"194 0 LINE",
"516 0 LINE",
"528 146 LINE",
"517 160 LINE"
);
},
{
closed = 1;
nodes = (
"357 402 LINE",
"204 402 LINE",
"204 259 LINE",
"204 248 LINE",
"344 248 LINE",
"460 245 LINE",
"472 391 LINE",
"461 405 LINE"
);
},
{
closed = 1;
nodes = (
"194 647 LINE",
"194 504 LINE",
"194 493 LINE",
"363 493 LINE",
"522 487 LINE",
"535 633 LINE",
"524 647 LINE"
);
},
{
closed = 1;
nodes = (
"317 876 OFFCURVE",
"246 837 OFFCURVE",
"163 795 CURVE",
"193 716 LINE",
"210 712 LINE",
"287 732 OFFCURVE",
"362 754 OFFCURVE",
"448 781 CURVE",
"454 797 LINE",
"405 914 LINE",
"388 918 LINE"
);
}
);
};
components = (
{
name = E;
},
{
name = acutecomb.case;
transform = "{1, 0, 0, 1, 119, 175}";
}
);
layerId = "6DC2006A-28B6-4A13-A5DF-3641E0854074";
width = 541;
}
);
leftKerningGroup = H;
rightKerningGroup = E;
unicode = 00C9;
},
{
color = 10;
glyphname = Ebreve;
layers = (
{
background = {
paths = (
{
closed = 1;
nodes = (
"60 647 LINE",
"70 190 LINE",
"60 0 LINE",
"261 0 LINE",
"253 210 LINE",
"264 647 LINE"
);
},
{
closed = 1;
nodes = (
"351 154 LINE",
"194 154 LINE",
"194 11 LINE",
"194 0 LINE",
"516 0 LINE",
"528 146 LINE",
"517 160 LINE"
);
},
{
closed = 1;
nodes = (
"357 402 LINE",
"204 402 LINE",
"204 259 LINE",
"204 248 LINE",
"344 248 LINE",
"460 245 LINE",
"472 391 LINE",
"461 405 LINE"
);
},
{
closed = 1;
nodes = (
"194 647 LINE",
"194 504 LINE",
"194 493 LINE",
"363 493 LINE",
"522 487 LINE",
"535 633 LINE",
"524 647 LINE"
);
},
{
closed = 1;
nodes = (
"403 900 LINE",
"382 868 OFFCURVE",
"343 850 OFFCURVE",
"296 850 CURVE SMOOTH",
"244 850 OFFCURVE",
"203 868 OFFCURVE",
"181 900 CURVE",
"154 900 LINE",
"114 840 LINE",
"142 760 OFFCURVE",
"204 716 OFFCURVE",
"289 716 CURVE SMOOTH",
"376 716 OFFCURVE",
"440 760 OFFCURVE",
"470 840 CURVE SMOOTH",
"430 900 LINE"
);
}
);
};
components = (
{
name = E;
},
{
name = brevecomb.case;
transform = "{1, 0, 0, 1, 109, 175}";
}
);
layerId = "6DC2006A-28B6-4A13-A5DF-3641E0854074";
width = 541;
}
);
leftKerningGroup = H;
rightKerningGroup = E;
unicode = 0114;
},
{
color = 10;
glyphname = Ecaron;
layers = (
{
background = {
paths = (
{
closed = 1;
nodes = (
"60 647 LINE",
"70 190 LINE",
"60 0 LINE",
"261 0 LINE",
"253 210 LINE",
"264 647 LINE"
);
},
{
closed = 1;
nodes = (
"351 154 LINE",
"194 154 LINE",
"194 11 LINE",
"194 0 LINE",
"516 0 LINE",
"528 146 LINE",
"517 160 LINE"
);
},
{
closed = 1;
nodes = (
"357 402 LINE",
"204 402 LINE",
"204 259 LINE",
"204 248 LINE",
"344 248 LINE",
"460 245 LINE",
"472 391 LINE",
"461 405 LINE"
);
},
{
closed = 1;
nodes = (
"194 647 LINE",
"194 504 LINE",
"194 493 LINE",
"363 493 LINE",
"522 487 LINE",
"535 633 LINE",
"524 647 LINE"
);
},
{
closed = 1;
nodes = (
"410 907 LINE",
"371 887 OFFCURVE",
"331 867 OFFCURVE",
"292 847 CURVE",
"253 867 OFFCURVE",
"213 887 OFFCURVE",
"174 907 CURVE",
"156 907 LINE",
"122 831 LINE",
"179 792 OFFCURVE",
"230 753 OFFCURVE",
"275 712 CURVE",
"309 712 LINE",
"354 753 OFFCURVE",
"405 792 OFFCURVE",
"462 831 CURVE",
"428 907 LINE"
);
}
);
};
components = (
{
name = E;
},
{
name = caroncomb.case;
transform = "{1, 0, 0, 1, 109, 175}";
}
);
layerId = "6DC2006A-28B6-4A13-A5DF-3641E0854074";
width = 541;
}
);
leftKerningGroup = H;
rightKerningGroup = E;
unicode = 011A;
},
{
color = 10;
glyphname = Ecircumflex;
layers = (
{
background = {
paths = (
{
closed = 1;
nodes = (
"60 647 LINE",
"70 190 LINE",
"60 0 LINE",
"261 0 LINE",
"253 210 LINE",
"264 647 LINE"
);
},
{
closed = 1;
nodes = (
"351 154 LINE",
"194 154 LINE",
"194 11 LINE",
"194 0 LINE",
"516 0 LINE",
"528 146 LINE",
"517 160 LINE"
);
},
{
closed = 1;
nodes = (
"357 402 LINE",
"204 402 LINE",
"204 259 LINE",
"204 248 LINE",
"344 248 LINE",
"460 245 LINE",
"472 391 LINE",
"461 405 LINE"
);
},
{
closed = 1;
nodes = (
"194 647 LINE",
"194 504 LINE",
"194 493 LINE",
"363 493 LINE",
"522 487 LINE",
"535 633 LINE",
"524 647 LINE"
);
},
{
closed = 1;
nodes = (
"174 721 LINE",
"213 741 OFFCURVE",
"253 761 OFFCURVE",
"292 781 CURVE",
"331 761 OFFCURVE",
"371 741 OFFCURVE",
"410 721 CURVE",
"428 721 LINE",
"462 797 LINE",
"405 836 OFFCURVE",
"354 875 OFFCURVE",
"309 916 CURVE",
"275 916 LINE",
"230 875 OFFCURVE",
"179 836 OFFCURVE",
"122 797 CURVE",
"156 721 LINE"
);
}
);
};
components = (
{
name = E;
},
{
name = circumflexcomb.case;
transform = "{1, 0, 0, 1, 115, 175}";
}
);
layerId = "6DC2006A-28B6-4A13-A5DF-3641E0854074";
width = 541;
}
);
leftKerningGroup = H;
rightKerningGroup = E;
unicode = 00CA;
},
{
color = 10;
glyphname = Ecircumflexacute;
layers = (
{
background = {
paths = (
{
closed = 1;
nodes = (
"60 647 LINE",
"70 190 LINE",
"60 0 LINE",
"261 0 LINE",
"253 210 LINE",
"264 647 LINE"
);
},
{
closed = 1;
nodes = (
"351 154 LINE",
"194 154 LINE",
"194 11 LINE",
"194 0 LINE",
"516 0 LINE",
"528 146 LINE",
"517 160 LINE"
);
},
{
closed = 1;
nodes = (
"357 402 LINE",
"204 402 LINE",
"204 259 LINE",
"204 248 LINE",
"344 248 LINE",
"460 245 LINE",
"472 391 LINE",
"461 405 LINE"
);
},
{
closed = 1;
nodes = (
"194 647 LINE",
"194 504 LINE",
"194 493 LINE",
"363 493 LINE",
"522 487 LINE",
"535 633 LINE",
"524 647 LINE"
);
},
{
closed = 1;
nodes = (
"420 1045 LINE",
"350 896 LINE",
"414 849 LINE",
"425 849 LINE",
"535 998 LINE",
"530 1011 LINE",
"432 1052 LINE"
);
},
{
closed = 1;
nodes = (
"173 701 LINE",
"212 721 OFFCURVE",
"252 741 OFFCURVE",
"291 761 CURVE",
"330 741 OFFCURVE",
"370 721 OFFCURVE",
"409 701 CURVE",
"427 701 LINE",
"461 777 LINE",
"404 816 OFFCURVE",
"353 855 OFFCURVE",
"308 896 CURVE",
"274 896 LINE",
"229 855 OFFCURVE",
"178 816 OFFCURVE",
"121 777 CURVE",
"155 701 LINE"
);
}
);
};
components = (
{
name = E;
},
{
name = circumflexcomb_acutecomb;
transform = "{1, 0, 0, 1, 119, 175}";
}
);
layerId = "6DC2006A-28B6-4A13-A5DF-3641E0854074";
width = 541;
}
);
leftKerningGroup = H;
rightKerningGroup = E;
unicode = 1EBE;
},
{
color = 10;
glyphname = Ecircumflexdotbelow;
layers = (
{
background = {
paths = (
{
closed = 1;
nodes = (
"60 647 LINE",
"70 190 LINE",
"60 0 LINE",
"261 0 LINE",
"253 210 LINE",
"264 647 LINE"
);
},
{
closed = 1;
nodes = (
"351 154 LINE",
"194 154 LINE",
"194 11 LINE",
"194 0 LINE",
"516 0 LINE",
"528 146 LINE",
"517 160 LINE"
);
},
{
closed = 1;
nodes = (
"357 402 LINE",
"204 402 LINE",
"204 259 LINE",
"204 248 LINE",
"344 248 LINE",
"460 245 LINE",
"472 391 LINE",
"461 405 LINE"
);
},
{
closed = 1;
nodes = (
"194 647 LINE",
"194 504 LINE",
"194 493 LINE",
"363 493 LINE",
"522 487 LINE",
"535 633 LINE",
"524 647 LINE"
);
},
{
closed = 1;
nodes = (
"251 -32 OFFCURVE",
"212 -72 OFFCURVE",
"212 -136 CURVE SMOOTH",
"212 -197 OFFCURVE",
"245 -231 OFFCURVE",
"306 -231 CURVE SMOOTH",
"368 -231 OFFCURVE",
"407 -191 OFFCURVE",
"407 -127 CURVE SMOOTH",
"407 -67 OFFCURVE",
"373 -32 OFFCURVE",
"314 -32 CURVE SMOOTH"
);
},
{
closed = 1;
nodes = (
"174 721 LINE",
"213 741 OFFCURVE",
"253 761 OFFCURVE",
"292 781 CURVE",
"331 761 OFFCURVE",
"371 741 OFFCURVE",
"410 721 CURVE",
"428 721 LINE",
"462 797 LINE",
"405 836 OFFCURVE",
"354 875 OFFCURVE",
"309 916 CURVE",
"275 916 LINE",
"230 875 OFFCURVE",
"179 836 OFFCURVE",
"122 797 CURVE",
"156 721 LINE"
);
}
);
};
components = (
{
name = E;
},
{
name = dotbelowcomb;
transform = "{1, 0, 0, 1, 214, 0}";
},
{
name = circumflexcomb.case;
transform = "{1, 0, 0, 1, 115, 175}";
}
);
layerId = "6DC2006A-28B6-4A13-A5DF-3641E0854074";
width = 541;
}
);
leftKerningGroup = H;
rightKerningGroup = E;
unicode = 1EC6;
},
{
color = 10;
glyphname = Ecircumflexgrave;
layers = (
{
background = {
paths = (
{
closed = 1;
nodes = (
"60 647 LINE",
"70 190 LINE",
"60 0 LINE",
"261 0 LINE",
"253 210 LINE",
"264 647 LINE"
);
},
{
closed = 1;
nodes = (
"351 154 LINE",
"194 154 LINE",
"194 11 LINE",
"194 0 LINE",
"516 0 LINE",
"528 146 LINE",
"517 160 LINE"
);
},
{
closed = 1;
nodes = (
"357 402 LINE",
"204 402 LINE",
"204 259 LINE",
"204 248 LINE",
"344 248 LINE",
"460 245 LINE",
"472 391 LINE",
"461 405 LINE"
);
},
{
closed = 1;
nodes = (
"194 647 LINE",
"194 504 LINE",
"194 493 LINE",
"363 493 LINE",
"522 487 LINE",
"535 633 LINE",
"524 647 LINE"
);
},
{
closed = 1;
nodes = (
"302 1011 LINE",
"297 998 LINE",
"407 849 LINE",
"418 849 LINE",
"482 896 LINE",
"412 1045 LINE",
"400 1052 LINE"
);
},
{
closed = 1;
nodes = (
"173 701 LINE",
"212 721 OFFCURVE",
"252 741 OFFCURVE",
"291 761 CURVE",
"330 741 OFFCURVE",
"370 721 OFFCURVE",
"409 701 CURVE",
"427 701 LINE",
"461 777 LINE",
"404 816 OFFCURVE",
"353 855 OFFCURVE",
"308 896 CURVE",
"274 896 LINE",
"229 855 OFFCURVE",
"178 816 OFFCURVE",
"121 777 CURVE",
"155 701 LINE"
);
}
);
};
components = (
{
name = E;
},
{
name = circumflexcomb_gravecomb;
transform = "{1, 0, 0, 1, 112, 175}";
}
);
layerId = "6DC2006A-28B6-4A13-A5DF-3641E0854074";
width = 541;
}
);
leftKerningGroup = H;
rightKerningGroup = E;
unicode = 1EC0;
},
{
color = 10;
glyphname = Ecircumflexhookabove;
layers = (
{
background = {
paths = (
{
closed = 1;
nodes = (
"60 647 LINE",
"70 190 LINE",
"60 0 LINE",
"261 0 LINE",
"253 210 LINE",
"264 647 LINE"
);
},
{
closed = 1;
nodes = (
"351 154 LINE",
"194 154 LINE",
"194 11 LINE",
"194 0 LINE",
"516 0 LINE",
"528 146 LINE",
"517 160 LINE"
);
},
{
closed = 1;
nodes = (
"357 402 LINE",
"204 402 LINE",
"204 259 LINE",
"204 248 LINE",
"344 248 LINE",
"460 245 LINE",
"472 391 LINE",
"461 405 LINE"
);
},
{
closed = 1;
nodes = (
"194 647 LINE",
"194 504 LINE",
"194 493 LINE",
"363 493 LINE",
"522 487 LINE",
"535 633 LINE",
"524 647 LINE"
);
},
{
closed = 1;
nodes = (
"360 1101 OFFCURVE",
"315 1078 OFFCURVE",
"282 1043 CURVE",
"310 998 LINE",
"330 1013 OFFCURVE",
"357 1023 OFFCURVE",
"377 1023 CURVE SMOOTH",
"393 1023 OFFCURVE",
"405 1016 OFFCURVE",
"405 1000 CURVE SMOOTH",
"405 980 OFFCURVE",
"386 950 OFFCURVE",
"354 928 CURVE",
"405 851 LINE",
"466 889 LINE",
"440 930 LINE",
"485 970 OFFCURVE",
"499 990 OFFCURVE",
"499 1017 CURVE SMOOTH",
"499 1068 OFFCURVE",
"457 1101 OFFCURVE",
"403 1101 CURVE SMOOTH"
);
},
{
closed = 1;
nodes = (
"173 701 LINE",
"212 721 OFFCURVE",
"252 741 OFFCURVE",
"291 761 CURVE",
"330 741 OFFCURVE",
"370 721 OFFCURVE",
"409 701 CURVE",
"427 701 LINE",
"461 777 LINE",
"404 816 OFFCURVE",
"353 855 OFFCURVE",
"308 896 CURVE",
"274 896 LINE",
"229 855 OFFCURVE",
"178 816 OFFCURVE",
"121 777 CURVE",
"155 701 LINE"
);
}
);
};
components = (
{
name = E;
},
{
name = circumflexcomb_hookabovecomb;
transform = "{1, 0, 0, 1, 110, 175}";
}
);
layerId = "6DC2006A-28B6-4A13-A5DF-3641E0854074";
width = 541;
}
);
leftKerningGroup = H;
rightKerningGroup = E;
unicode = 1EC2;
},
{
color = 10;
glyphname = Ecircumflextilde;
layers = (
{
background = {
paths = (
{
closed = 1;
nodes = (
"60 647 LINE",
"70 190 LINE",
"60 0 LINE",
"261 0 LINE",
"253 210 LINE",
"264 647 LINE"
);
},
{
closed = 1;
nodes = (
"351 154 LINE",
"194 154 LINE",
"194 11 LINE",
"194 0 LINE",
"516 0 LINE",
"528 146 LINE",
"517 160 LINE"
);
},
{
closed = 1;
nodes = (
"357 402 LINE",
"204 402 LINE",
"204 259 LINE",
"204 248 LINE",
"344 248 LINE",
"460 245 LINE",
"472 391 LINE",
"461 405 LINE"
);
},
{
closed = 1;
nodes = (
"194 647 LINE",
"194 504 LINE",
"194 493 LINE",
"363 493 LINE",
"522 487 LINE",
"535 633 LINE",
"524 647 LINE"
);
},
{
closed = 1;
nodes = (
"302 1011 LINE",
"297 998 LINE",
"407 849 LINE",
"418 849 LINE",
"482 896 LINE",
"412 1045 LINE",
"400 1052 LINE"
);
},
{
closed = 1;
nodes = (
"173 701 LINE",
"212 721 OFFCURVE",
"252 741 OFFCURVE",
"291 761 CURVE",
"330 741 OFFCURVE",
"370 721 OFFCURVE",
"409 701 CURVE",
"427 701 LINE",
"461 777 LINE",
"404 816 OFFCURVE",
"353 855 OFFCURVE",
"308 896 CURVE",
"274 896 LINE",
"229 855 OFFCURVE",
"178 816 OFFCURVE",
"121 777 CURVE",
"155 701 LINE"
);
}
);
};
components = (
{
name = E;
},
{
name = circumflexcomb_gravecomb;
transform = "{1, 0, 0, 1, 112, 175}";
}
);
layerId = "6DC2006A-28B6-4A13-A5DF-3641E0854074";
width = 541;
}
);
leftKerningGroup = H;
rightKerningGroup = E;
unicode = 1EC4;
},
{
color = 10;
glyphname = Edieresis;
layers = (
{
background = {
paths = (
{
closed = 1;
nodes = (
"60 647 LINE",
"70 190 LINE",
"60 0 LINE",
"261 0 LINE",
"253 210 LINE",
"264 647 LINE"
);
},
{
closed = 1;
nodes = (
"351 154 LINE",
"194 154 LINE",
"194 11 LINE",
"194 0 LINE",
"516 0 LINE",
"528 146 LINE",
"517 160 LINE"
);
},
{
closed = 1;
nodes = (
"357 402 LINE",
"204 402 LINE",
"204 259 LINE",
"204 248 LINE",
"344 248 LINE",
"460 245 LINE",
"472 391 LINE",
"461 405 LINE"
);
},
{
closed = 1;
nodes = (
"194 647 LINE",
"194 504 LINE",
"194 493 LINE",
"363 493 LINE",
"522 487 LINE",
"535 633 LINE",
"524 647 LINE"
);
},
{
closed = 1;
nodes = (
"338 892 OFFCURVE",
"304 858 OFFCURVE",
"304 802 CURVE SMOOTH",
"304 749 OFFCURVE",
"333 719 OFFCURVE",
"386 719 CURVE SMOOTH",
"440 719 OFFCURVE",
"474 754 OFFCURVE",
"474 810 CURVE SMOOTH",
"474 862 OFFCURVE",
"444 892 OFFCURVE",
"393 892 CURVE SMOOTH"
);
},
{
closed = 1;
nodes = (
"145 892 OFFCURVE",
"111 858 OFFCURVE",
"111 802 CURVE SMOOTH",
"111 749 OFFCURVE",
"140 719 OFFCURVE",
"193 719 CURVE SMOOTH",
"247 719 OFFCURVE",
"281 754 OFFCURVE",
"281 810 CURVE SMOOTH",
"281 862 OFFCURVE",
"251 892 OFFCURVE",
"200 892 CURVE SMOOTH"
);
}
);
};
components = (
{
name = E;
},
{
name = dieresiscomb;
transform = "{1, 0, 0, 1, 112, 175}";
}
);
layerId = "6DC2006A-28B6-4A13-A5DF-3641E0854074";
width = 541;
}
);
leftKerningGroup = H;
rightKerningGroup = E;
unicode = 00CB;
},
{
color = 10;
glyphname = Edotaccent;
layers = (
{
background = {
paths = (
{
closed = 1;
nodes = (
"60 647 LINE",
"70 190 LINE",
"60 0 LINE",
"261 0 LINE",
"253 210 LINE",
"264 647 LINE"
);
},
{
closed = 1;
nodes = (
"351 154 LINE",
"194 154 LINE",
"194 11 LINE",
"194 0 LINE",
"516 0 LINE",
"528 146 LINE",
"517 160 LINE"
);
},
{
closed = 1;
nodes = (
"357 402 LINE",
"204 402 LINE",
"204 259 LINE",
"204 248 LINE",
"344 248 LINE",
"460 245 LINE",
"472 391 LINE",
"461 405 LINE"
);
},
{
closed = 1;
nodes = (
"194 647 LINE",
"194 504 LINE",
"194 493 LINE",
"363 493 LINE",
"522 487 LINE",
"535 633 LINE",
"524 647 LINE"
);
},
{
closed = 1;
nodes = (
"233 903 OFFCURVE",
"194 863 OFFCURVE",
"194 799 CURVE SMOOTH",
"194 738 OFFCURVE",
"227 704 OFFCURVE",
"288 704 CURVE SMOOTH",
"350 704 OFFCURVE",
"389 744 OFFCURVE",
"389 808 CURVE SMOOTH",
"389 868 OFFCURVE",
"355 903 OFFCURVE",
"296 903 CURVE SMOOTH"
);
}
);
};
components = (
{
name = E;
},
{
name = dotaccentcomb;
transform = "{1, 0, 0, 1, 173, 175}";
}
);
layerId = "6DC2006A-28B6-4A13-A5DF-3641E0854074";
width = 541;
}
);
leftKerningGroup = H;
rightKerningGroup = E;
unicode = 0116;
},
{
color = 10;
glyphname = Edotbelow;
layers = (
{
background = {
paths = (
{
closed = 1;
nodes = (
"60 647 LINE",
"70 190 LINE",
"60 0 LINE",
"261 0 LINE",
"253 210 LINE",
"264 647 LINE"
);
},
{
closed = 1;
nodes = (
"351 154 LINE",
"194 154 LINE",
"194 11 LINE",
"194 0 LINE",
"516 0 LINE",
"528 146 LINE",
"517 160 LINE"
);
},
{
closed = 1;
nodes = (
"357 402 LINE",
"204 402 LINE",
"204 259 LINE",
"204 248 LINE",
"344 248 LINE",
"460 245 LINE",
"472 391 LINE",
"461 405 LINE"
);
},
{
closed = 1;
nodes = (
"194 647 LINE",
"194 504 LINE",
"194 493 LINE",
"363 493 LINE",
"522 487 LINE",
"535 633 LINE",
"524 647 LINE"
);
},
{
closed = 1;
nodes = (
"251 -32 OFFCURVE",
"212 -72 OFFCURVE",
"212 -136 CURVE SMOOTH",
"212 -197 OFFCURVE",
"245 -231 OFFCURVE",
"306 -231 CURVE SMOOTH",
"368 -231 OFFCURVE",
"407 -191 OFFCURVE",
"407 -127 CURVE SMOOTH",
"407 -67 OFFCURVE",
"373 -32 OFFCURVE",
"314 -32 CURVE SMOOTH"
);
}
);
};
components = (
{
name = E;
},
{
name = dotbelowcomb;
transform = "{1, 0, 0, 1, 214, 0}";
}
);
layerId = "6DC2006A-28B6-4A13-A5DF-3641E0854074";
width = 541;
}
);
leftKerningGroup = H;
rightKerningGroup = E;
unicode = 1EB8;
},
{
color = 10;
glyphname = Egrave;
layers = (
{
background = {
paths = (
{
closed = 1;
nodes = (
"60 647 LINE",
"70 190 LINE",
"60 0 LINE",
"261 0 LINE",
"253 210 LINE",
"264 647 LINE"
);
},
{
closed = 1;
nodes = (
"351 154 LINE",
"194 154 LINE",
"194 11 LINE",
"194 0 LINE",
"516 0 LINE",
"528 146 LINE",
"517 160 LINE"
);
},
{
closed = 1;
nodes = (
"357 402 LINE",
"204 402 LINE",
"204 259 LINE",
"204 248 LINE",
"344 248 LINE",
"460 245 LINE",
"472 391 LINE",
"461 405 LINE"
);
},
{
closed = 1;
nodes = (
"194 647 LINE",
"194 504 LINE",
"194 493 LINE",
"363 493 LINE",
"522 487 LINE",
"535 633 LINE",
"524 647 LINE"
);
},
{
closed = 1;
nodes = (
"199 914 LINE",
"150 797 LINE",
"156 781 LINE",
"242 754 OFFCURVE",
"317 732 OFFCURVE",
"394 712 CURVE",
"411 716 LINE",
"441 795 LINE",
"358 837 OFFCURVE",
"287 876 OFFCURVE",
"216 918 CURVE"
);
}
);
};
components = (
{
name = E;
},
{
name = gravecomb.case;
transform = "{1, 0, 0, 1, 84, 175}";
}
);
layerId = "6DC2006A-28B6-4A13-A5DF-3641E0854074";
width = 541;
}
);
leftKerningGroup = H;
rightKerningGroup = E;
unicode = 00C8;
},
{
color = 10;
glyphname = Ehookabove;
layers = (
{
background = {
paths = (
{
closed = 1;
nodes = (
"60 647 LINE",
"70 190 LINE",
"60 0 LINE",
"261 0 LINE",
"253 210 LINE",
"264 647 LINE"
);
},
{
closed = 1;
nodes = (
"351 154 LINE",
"194 154 LINE",
"194 11 LINE",
"194 0 LINE",
"516 0 LINE",
"528 146 LINE",
"517 160 LINE"
);
},
{
closed = 1;
nodes = (
"357 402 LINE",
"204 402 LINE",
"204 259 LINE",
"204 248 LINE",
"344 248 LINE",
"460 245 LINE",
"472 391 LINE",
"461 405 LINE"
);
},
{
closed = 1;
nodes = (
"194 647 LINE",
"194 504 LINE",
"194 493 LINE",
"363 493 LINE",
"522 487 LINE",
"535 633 LINE",
"524 647 LINE"
);
},
{
closed = 1;
nodes = (
"232 948 OFFCURVE",
"185 924 OFFCURVE",
"151 887 CURVE",
"180 840 LINE",
"201 856 OFFCURVE",
"229 866 OFFCURVE",
"250 866 CURVE SMOOTH",
"267 866 OFFCURVE",
"280 859 OFFCURVE",
"280 842 CURVE SMOOTH",
"280 821 OFFCURVE",
"260 790 OFFCURVE",
"226 766 CURVE",
"280 686 LINE",
"344 725 LINE",
"317 768 LINE",
"364 810 OFFCURVE",
"378 831 OFFCURVE",
"378 860 CURVE SMOOTH",
"378 913 OFFCURVE",
"334 948 OFFCURVE",
"278 948 CURVE SMOOTH"
);
}
);
};
components = (
{
name = E;
},
{
name = hookabovecomb;
transform = "{1, 0, 0, 1, 122, 175}";
}
);
layerId = "6DC2006A-28B6-4A13-A5DF-3641E0854074";
width = 541;
}
);
leftKerningGroup = H;
rightKerningGroup = E;
unicode = 1EBA;
},
{
color = 10;
glyphname = Emacron;
layers = (
{
background = {
paths = (
{
closed = 1;
nodes = (
"60 647 LINE",
"70 190 LINE",
"60 0 LINE",
"261 0 LINE",
"253 210 LINE",
"264 647 LINE"
);
},
{
closed = 1;
nodes = (
"351 154 LINE",
"194 154 LINE",
"194 11 LINE",
"194 0 LINE",
"516 0 LINE",
"528 146 LINE",
"517 160 LINE"
);
},
{
closed = 1;
nodes = (
"357 402 LINE",
"204 402 LINE",
"204 259 LINE",
"204 248 LINE",
"344 248 LINE",
"460 245 LINE",
"472 391 LINE",
"461 405 LINE"
);
},
{
closed = 1;
nodes = (
"194 647 LINE",
"194 504 LINE",
"194 493 LINE",
"363 493 LINE",
"522 487 LINE",
"535 633 LINE",
"524 647 LINE"
);
},
{
closed = 1;
nodes = (
"153 866 LINE",
"144 759 LINE",
"156 746 LINE",
"432 746 LINE",
"441 853 LINE",
"429 866 LINE"
);
}
);
};
components = (
{
name = E;
},
{
name = macroncomb.case;
transform = "{1, 0, 0, 1, 113, 175}";
}
);
layerId = "6DC2006A-28B6-4A13-A5DF-3641E0854074";
width = 541;
}
);
leftKerningGroup = H;
rightKerningGroup = E;
unicode = 0112;
},
{
color = 10;
glyphname = Eogonek;
layers = (
{
background = {
paths = (
{
closed = 1;
nodes = (
"60 647 LINE",
"70 190 LINE",
"60 0 LINE",
"261 0 LINE",
"253 210 LINE",
"264 647 LINE"
);
},
{
closed = 1;
nodes = (
"351 154 LINE",
"194 154 LINE",
"194 11 LINE",
"194 0 LINE",
"516 0 LINE",
"528 146 LINE",
"517 160 LINE"
);
},
{
closed = 1;
nodes = (
"357 402 LINE",
"204 402 LINE",
"204 259 LINE",
"204 248 LINE",
"344 248 LINE",
"460 245 LINE",
"472 391 LINE",
"461 405 LINE"
);
},
{
closed = 1;
nodes = (
"194 647 LINE",
"194 504 LINE",
"194 493 LINE",
"363 493 LINE",
"522 487 LINE",
"535 633 LINE",
"524 647 LINE"
);
},
{
closed = 1;
nodes = (
"422 82 LINE",
"354 -9 LINE SMOOTH",
"331 -40 OFFCURVE",
"321 -71 OFFCURVE",
"321 -100 CURVE SMOOTH",
"321 -154 OFFCURVE",
"360 -197 OFFCURVE",
"425 -197 CURVE SMOOTH",
"462 -197 OFFCURVE",
"494 -183 OFFCURVE",
"536 -151 CURVE",
"524 -79 LINE",
"514 -79 LINE",
"493 -92 OFFCURVE",
"471 -99 OFFCURVE",
"453 -99 CURVE SMOOTH",
"428 -99 OFFCURVE",
"417 -85 OFFCURVE",
"417 -66 CURVE SMOOTH",
"417 -52 OFFCURVE",
"423 -37 OFFCURVE",
"433 -22 CURVE SMOOTH",
"502 82 LINE"
);
}
);
};
components = (
{
name = E;
},
{
name = ogonekcomb;
transform = "{1, 0, 0, 1, 213, -33}";
}
);
layerId = "6DC2006A-28B6-4A13-A5DF-3641E0854074";
width = 541;
}
);
leftKerningGroup = H;
rightKerningGroup = E;
unicode = 0118;
},
{
color = 10;
glyphname = Etilde;
layers = (
{
background = {
paths = (
{
closed = 1;
nodes = (
"60 647 LINE",
"70 190 LINE",
"60 0 LINE",
"261 0 LINE",
"253 210 LINE",
"264 647 LINE"
);
},
{
closed = 1;
nodes = (
"351 154 LINE",
"194 154 LINE",
"194 11 LINE",
"194 0 LINE",
"516 0 LINE",
"528 146 LINE",
"517 160 LINE"
);
},
{
closed = 1;
nodes = (
"357 402 LINE",
"204 402 LINE",
"204 259 LINE",
"204 248 LINE",
"344 248 LINE",
"460 245 LINE",
"472 391 LINE",
"461 405 LINE"
);
},
{
closed = 1;
nodes = (
"194 647 LINE",
"194 504 LINE",
"194 493 LINE",
"363 493 LINE",
"522 487 LINE",
"535 633 LINE",
"524 647 LINE"
);
},
{
closed = 1;
nodes = (
"414 916 LINE",
"391 887 OFFCURVE",
"371 858 OFFCURVE",
"345 858 CURVE SMOOTH",
"319 858 OFFCURVE",
"244 885 OFFCURVE",
"192 892 CURVE",
"176 886 LINE",
"95 773 LINE",
"95 757 LINE",
"152 702 LINE",
"168 702 LINE",
"191 731 OFFCURVE",
"211 760 OFFCURVE",
"237 760 CURVE SMOOTH",
"263 760 OFFCURVE",
"338 733 OFFCURVE",
"390 726 CURVE",
"406 732 LINE",
"487 845 LINE",
"487 861 LINE",
"430 916 LINE"
);
}
);
};
components = (
{
name = E;
},
{
name = tilde;
transform = "{1, 0, 0, 1, 120, 175}";
}
);
layerId = "6DC2006A-28B6-4A13-A5DF-3641E0854074";
width = 541;
}
);
leftKerningGroup = H;
rightKerningGroup = E;
unicode = 1EBC;
},
{
color = 1;
glyphname = F;
layers = (
{
background = {
paths = (
{
closed = 1;
nodes = (
"60 647 LINE",
"70 190 LINE",
"60 0 LINE",
"261 0 LINE",
"253 210 LINE",
"264 647 LINE"
);
},
{
closed = 1;
nodes = (
"325 377 LINE",
"204 377 LINE",
"204 223 LINE",
"311 223 LINE",
"440 220 LINE",
"452 366 LINE",
"441 380 LINE"
);
},
{
closed = 1;
nodes = (
"194 647 LINE",
"194 504 LINE",
"194 493 LINE",
"330 493 LINE",
"490 487 LINE",
"503 633 LINE",
"492 647 LINE"
);
}
);
};
layerId = "6DC2006A-28B6-4A13-A5DF-3641E0854074";
paths = (
{
closed = 1;
nodes = (
"111 647 LINE",
"64 190 LINE",
"31 0 LINE",
"232 0 LINE",
"250 210 LINE",
"315 647 LINE"
);
},
{
closed = 1;
nodes = (
"342 377 LINE",
"221 377 LINE",
"203 223 LINE",
"310 223 LINE",
"438 220 LINE",
"468 366 LINE",
"459 380 LINE"
);
},
{
closed = 1;
nodes = (
"245 647 LINE",
"227 504 LINE",
"226 493 LINE",
"362 493 LINE",
"521 487 LINE",
"552 633 LINE",
"543 647 LINE"
);
}
);
width = 481;
}
);
leftKerningGroup = H;
rightKerningGroup = F;
unicode = 0046;
},
{
color = 1;
glyphname = G;
layers = (
{
anchors = (
{
name = bottom;
position = "{310, 0}";
},
{
name = top;
position = "{310, 637}";
}
);
associatedMasterId = UUID0;
background = {
paths = (
{
closed = 1;
nodes = (
"149 641 OFFCURVE",
"50 524 OFFCURVE",
"50 313 CURVE SMOOTH",
"50 109 OFFCURVE",
"143 -5 OFFCURVE",
"311 -5 CURVE SMOOTH",
"380 -5 OFFCURVE",
"452 20 OFFCURVE",
"513 64 CURVE",
"513 80 LINE",
"506 82 LINE",
"449 39 OFFCURVE",
"379 15 OFFCURVE",
"310 15 CURVE SMOOTH",
"156 15 OFFCURVE",
"70 121 OFFCURVE",
"70 312 CURVE SMOOTH",
"70 511 OFFCURVE",
"161 621 OFFCURVE",
"326 621 CURVE SMOOTH",
"391 621 OFFCURVE",
"453 601 OFFCURVE",
"501 565 CURVE",
"508 565 LINE",
"514 584 LINE",
"463 621 OFFCURVE",
"395 641 OFFCURVE",
"326 641 CURVE SMOOTH"
);
}
);
};
layerId = "45EAA10C-30D8-4104-9073-C964113289F8";
name = "Light Jan 23 13, 11:05";
paths = (
{
closed = 1;
nodes = (
"152 641 OFFCURVE",
"46 524 OFFCURVE",
"46 313 CURVE SMOOTH",
"46 109 OFFCURVE",
"139 -5 OFFCURVE",
"307 -5 CURVE",
"375 -1 OFFCURVE",
"441 27 OFFCURVE",
"493 74 CURVE",
"502 74 LINE",
"502 105 LINE",
"440 47 OFFCURVE",
"370 15 OFFCURVE",
"306 15 CURVE SMOOTH",
"152 15 OFFCURVE",
"66 121 OFFCURVE",
"66 312 CURVE SMOOTH",
"66 511 OFFCURVE",
"165 621 OFFCURVE",
"342 621 CURVE SMOOTH",
"396 621 OFFCURVE",
"458 601 OFFCURVE",
"517 566 CURVE",
"524 566 LINE",
"530 584 LINE",
"467 621 OFFCURVE",
"400 641 OFFCURVE",
"342 641 CURVE SMOOTH"
);
},
{
closed = 1;
nodes = (
"497 299 LINE",
"497 196 LINE",
"497 14 LINE",
"502 8 OFFCURVE",
"507 4 OFFCURVE",
"513 0 CURVE",
"517 3 LINE",
"517 196 LINE",
"517 303 LINE"
);
}
);
width = 620;
},
{
anchors = (
{
name = bottom;
position = "{303, 0}";
},
{
name = top;
position = "{303, 647}";
}
);
associatedMasterId = UUID0;
background = {
paths = (
{
closed = 1;
nodes = (
"149 658 OFFCURVE",
"25 535 OFFCURVE",
"25 311 CURVE SMOOTH",
"25 105 OFFCURVE",
"130 -12 OFFCURVE",
"319 -12 CURVE",
"357 -3 OFFCURVE",
"396 13 OFFCURVE",
"427 34 CURVE",
"452 34 LINE",
"452 178 LINE",
"423 167 OFFCURVE",
"398 162 OFFCURVE",
"369 162 CURVE SMOOTH",
"278 162 OFFCURVE",
"238 211 OFFCURVE",
"238 326 CURVE SMOOTH",
"238 439 OFFCURVE",
"277 484 OFFCURVE",
"375 484 CURVE SMOOTH",
"424 484 OFFCURVE",
"465 473 OFFCURVE",
"518 448 CURVE",
"541 448 LINE",
"584 628 LINE",
"533 647 OFFCURVE",
"459 658 OFFCURVE",
"388 658 CURVE SMOOTH"
);
},
{
closed = 1;
nodes = (
"388 325 LINE",
"392 190 LINE",
"392 79 LINE",
"433 35 OFFCURVE",
"489 2 OFFCURVE",
"547 -12 CURVE",
"571 2 LINE",
"570 210 LINE",
"575 335 LINE"
);
}
);
};
layerId = "D1C88D63-D878-4F1B-B033-23BB77E91A4C";
name = "Bold Jan 23 13, 11:08";
paths = (
{
closed = 1;
nodes = (
"150 658 OFFCURVE",
"20 531 OFFCURVE",
"20 301 CURVE SMOOTH",
"20 100 OFFCURVE",
"130 -12 OFFCURVE",
"328 -12 CURVE",
"363 -3 OFFCURVE",
"396 14 OFFCURVE",
"422 34 CURVE",
"447 34 LINE",
"447 178 LINE",
"416 167 OFFCURVE",
"392 162 OFFCURVE",
"364 162 CURVE SMOOTH",
"271 162 OFFCURVE",
"233 207 OFFCURVE",
"233 316 CURVE SMOOTH",
"233 435 OFFCURVE",
"273 484 OFFCURVE",
"370 484 CURVE SMOOTH",
"417 484 OFFCURVE",
"459 473 OFFCURVE",
"513 448 CURVE",
"536 448 LINE",
"579 628 LINE",
"527 647 OFFCURVE",
"457 658 OFFCURVE",
"383 658 CURVE SMOOTH"
);
},
{
closed = 1;
nodes = (
"383 325 LINE",
"387 190 LINE",
"387 79 LINE",
"428 35 OFFCURVE",
"484 2 OFFCURVE",
"542 -12 CURVE",
"566 2 LINE",
"565 210 LINE",
"570 335 LINE"
);
}
);
width = 605;
},
{
anchors = (
{
name = bottom;
position = "{326, 0}";
},
{
name = top;
position = "{376, 647}";
}
);
background = {
paths = (
{
closed = 1;
nodes = (
"148 658 OFFCURVE",
"17 537 OFFCURVE",
"17 310 CURVE SMOOTH",
"17 106 OFFCURVE",
"122 -12 OFFCURVE",
"334 -12 CURVE SMOOTH",
"407 -12 OFFCURVE",
"486 2 OFFCURVE",
"565 32 CURVE",
"565 209 LINE",
"568 297 LINE",
"385 284 LINE",
"388 175 LINE",
"388 143 LINE",
"377 141 OFFCURVE",
"368 139 OFFCURVE",
"352 139 CURVE SMOOTH",
"255 139 OFFCURVE",
"227 177 OFFCURVE",
"227 320 CURVE SMOOTH",
"227 463 OFFCURVE",
"256 498 OFFCURVE",
"344 498 CURVE SMOOTH",
"404 498 OFFCURVE",
"448 482 OFFCURVE",
"510 451 CURVE",
"526 451 LINE",
"569 628 LINE",
"519 647 OFFCURVE",
"452 658 OFFCURVE",
"382 658 CURVE SMOOTH"
);
}
);
};
layerId = "6DC2006A-28B6-4A13-A5DF-3641E0854074";
paths = (
{
closed = 1;
nodes = (
"165 658 OFFCURVE",
"24 514 OFFCURVE",
"24 258 CURVE SMOOTH",
"24 88 OFFCURVE",
"127 -12 OFFCURVE",
"316 -12 CURVE SMOOTH",
"389 -12 OFFCURVE",
"460 2 OFFCURVE",
"542 32 CURVE",
"564 209 LINE",
"578 297 LINE",
"393 284 LINE",
"383 175 LINE",
"379 143 LINE",
"368 141 OFFCURVE",
"359 139 OFFCURVE",
"343 139 CURVE SMOOTH",
"265 139 OFFCURVE",
"234 167 OFFCURVE",
"234 260 CURVE SMOOTH",
"234 463 OFFCURVE",
"291 498 OFFCURVE",
"379 498 CURVE SMOOTH",
"439 498 OFFCURVE",
"481 482 OFFCURVE",
"539 451 CURVE",
"555 451 LINE",
"620 628 LINE",
"572 647 OFFCURVE",
"496 658 OFFCURVE",
"426 658 CURVE SMOOTH"
);
}
);
width = 599;
}
);
leftKerningGroup = O;
rightKerningGroup = G;
unicode = 0047;
},
{
color = 10;
glyphname = Gbreve;
layers = (
{
background = {
paths = (
{
closed = 1;
nodes = (
"148 658 OFFCURVE",
"17 537 OFFCURVE",
"17 310 CURVE SMOOTH",
"17 106 OFFCURVE",
"122 -12 OFFCURVE",
"334 -12 CURVE SMOOTH",
"407 -12 OFFCURVE",
"486 2 OFFCURVE",
"565 32 CURVE",
"565 209 LINE",
"568 297 LINE",
"385 284 LINE",
"388 175 LINE",
"388 143 LINE",
"377 141 OFFCURVE",
"368 139 OFFCURVE",
"352 139 CURVE SMOOTH",
"255 139 OFFCURVE",
"227 177 OFFCURVE",
"227 320 CURVE SMOOTH",
"227 463 OFFCURVE",
"256 498 OFFCURVE",
"344 498 CURVE SMOOTH",
"404 498 OFFCURVE",
"448 482 OFFCURVE",
"510 451 CURVE",
"526 451 LINE",
"569 628 LINE",
"519 647 OFFCURVE",
"452 658 OFFCURVE",
"382 658 CURVE SMOOTH"
);
},
{
closed = 1;
nodes = (
"439 900 LINE",
"418 868 OFFCURVE",
"379 850 OFFCURVE",
"332 850 CURVE SMOOTH",
"280 850 OFFCURVE",
"239 868 OFFCURVE",
"217 900 CURVE",
"190 900 LINE",
"150 840 LINE",
"178 760 OFFCURVE",
"240 716 OFFCURVE",
"325 716 CURVE SMOOTH",
"412 716 OFFCURVE",
"476 760 OFFCURVE",
"506 840 CURVE SMOOTH",
"466 900 LINE"
);
}
);
};
components = (
{
name = G;
},
{
name = brevecomb.case;
transform = "{1, 0, 0, 1, 148, 175}";
}
);
layerId = "6DC2006A-28B6-4A13-A5DF-3641E0854074";
width = 599;
}
);
leftKerningGroup = O;
rightKerningGroup = G;
unicode = 011E;
},
{
color = 10;
glyphname = Gcircumflex;
layers = (
{
background = {
paths = (
{
closed = 1;
nodes = (
"148 658 OFFCURVE",
"17 537 OFFCURVE",
"17 310 CURVE SMOOTH",
"17 106 OFFCURVE",
"122 -12 OFFCURVE",
"334 -12 CURVE SMOOTH",
"407 -12 OFFCURVE",
"486 2 OFFCURVE",
"565 32 CURVE",
"565 209 LINE",
"568 297 LINE",
"385 284 LINE",
"388 175 LINE",
"388 143 LINE",
"377 141 OFFCURVE",
"368 139 OFFCURVE",
"352 139 CURVE SMOOTH",
"255 139 OFFCURVE",
"227 177 OFFCURVE",
"227 320 CURVE SMOOTH",
"227 463 OFFCURVE",
"256 498 OFFCURVE",
"344 498 CURVE SMOOTH",
"404 498 OFFCURVE",
"448 482 OFFCURVE",
"510 451 CURVE",
"526 451 LINE",
"569 628 LINE",
"519 647 OFFCURVE",
"452 658 OFFCURVE",
"382 658 CURVE SMOOTH"
);
},
{
closed = 1;
nodes = (
"210 721 LINE",
"249 741 OFFCURVE",
"289 761 OFFCURVE",
"328 781 CURVE",
"367 761 OFFCURVE",
"407 741 OFFCURVE",
"446 721 CURVE",
"464 721 LINE",
"498 797 LINE",
"441 836 OFFCURVE",
"390 875 OFFCURVE",
"345 916 CURVE",
"311 916 LINE",
"266 875 OFFCURVE",
"215 836 OFFCURVE",
"158 797 CURVE",
"192 721 LINE"
);
}
);
};
components = (
{
name = G;
},
{
name = circumflexcomb.case;
transform = "{1, 0, 0, 1, 154, 175}";
}
);
layerId = "6DC2006A-28B6-4A13-A5DF-3641E0854074";
width = 599;
}
);
leftKerningGroup = O;
rightKerningGroup = G;
unicode = 011C;
},
{
color = 10;
glyphname = Gcommaaccent;
layers = (
{
background = {
paths = (
{
closed = 1;
nodes = (
"148 658 OFFCURVE",
"17 537 OFFCURVE",
"17 310 CURVE SMOOTH",
"17 106 OFFCURVE",
"122 -12 OFFCURVE",
"334 -12 CURVE SMOOTH",
"407 -12 OFFCURVE",
"486 2 OFFCURVE",
"565 32 CURVE",
"565 209 LINE",
"568 297 LINE",
"385 284 LINE",
"388 175 LINE",
"388 143 LINE",
"377 141 OFFCURVE",
"368 139 OFFCURVE",
"352 139 CURVE SMOOTH",
"255 139 OFFCURVE",
"227 177 OFFCURVE",
"227 320 CURVE SMOOTH",
"227 463 OFFCURVE",
"256 498 OFFCURVE",
"344 498 CURVE SMOOTH",
"404 498 OFFCURVE",
"448 482 OFFCURVE",
"510 451 CURVE",
"526 451 LINE",
"569 628 LINE",
"519 647 OFFCURVE",
"452 658 OFFCURVE",
"382 658 CURVE SMOOTH"
);
},
{
closed = 1;
nodes = (
"307 -39 OFFCURVE",
"260 -59 OFFCURVE",
"215 -84 CURVE",
"214 -100 LINE",
"237 -123 OFFCURVE",
"247 -146 OFFCURVE",
"247 -175 CURVE SMOOTH",
"247 -217 OFFCURVE",
"229 -251 OFFCURVE",
"191 -284 CURVE",
"193 -298 LINE",
"254 -351 LINE",
"358 -279 OFFCURVE",
"406 -210 OFFCURVE",
"406 -132 CURVE SMOOTH",
"406 -90 OFFCURVE",
"391 -57 OFFCURVE",
"358 -26 CURVE"
);
}
);
};
components = (
{
name = G;
},
{
name = commaaccentcomb;
transform = "{1, 0, 0, 1, 296, 0}";
}
);
layerId = "6DC2006A-28B6-4A13-A5DF-3641E0854074";
width = 599;
}
);
leftKerningGroup = O;
rightKerningGroup = G;
unicode = 0122;
},
{
color = 10;
glyphname = Gdotaccent;
layers = (
{
background = {
paths = (
{
closed = 1;
nodes = (
"148 658 OFFCURVE",
"17 537 OFFCURVE",
"17 310 CURVE SMOOTH",
"17 106 OFFCURVE",
"122 -12 OFFCURVE",
"334 -12 CURVE SMOOTH",
"407 -12 OFFCURVE",
"486 2 OFFCURVE",
"565 32 CURVE",
"565 209 LINE",
"568 297 LINE",
"385 284 LINE",
"388 175 LINE",
"388 143 LINE",
"377 141 OFFCURVE",
"368 139 OFFCURVE",
"352 139 CURVE SMOOTH",
"255 139 OFFCURVE",
"227 177 OFFCURVE",
"227 320 CURVE SMOOTH",
"227 463 OFFCURVE",
"256 498 OFFCURVE",
"344 498 CURVE SMOOTH",
"404 498 OFFCURVE",
"448 482 OFFCURVE",
"510 451 CURVE",
"526 451 LINE",
"569 628 LINE",
"519 647 OFFCURVE",
"452 658 OFFCURVE",
"382 658 CURVE SMOOTH"
);
},
{
closed = 1;
nodes = (
"269 903 OFFCURVE",
"230 863 OFFCURVE",
"230 799 CURVE SMOOTH",
"230 738 OFFCURVE",
"263 704 OFFCURVE",
"324 704 CURVE SMOOTH",
"386 704 OFFCURVE",
"425 744 OFFCURVE",
"425 808 CURVE SMOOTH",
"425 868 OFFCURVE",
"391 903 OFFCURVE",
"332 903 CURVE SMOOTH"
);
}
);
};
components = (
{
name = G;
},
{
name = dotaccentcomb;
transform = "{1, 0, 0, 1, 212, 175}";
}
);
layerId = "6DC2006A-28B6-4A13-A5DF-3641E0854074";
width = 599;
}
);
leftKerningGroup = O;
rightKerningGroup = G;
unicode = 0120;
},
{
color = 1;
glyphname = H;
layers = (
{
anchors = (
{
name = bottom;
position = "{327, 0}";
},
{
name = center;
position = "{374, 324}";
},
{
name = top;
position = "{406, 647}";
},
{
name = topleft;
position = "{70, 647}";
}
);
background = {
paths = (
{
closed = 1;
nodes = (
"446 647 LINE",
"456 190 LINE",
"446 0 LINE",
"647 0 LINE",
"639 210 LINE",
"650 647 LINE"
);
},
{
closed = 1;
nodes = (
"60 647 LINE",
"70 190 LINE",
"60 0 LINE",
"261 0 LINE",
"253 210 LINE",
"264 647 LINE"
);
},
{
closed = 1;
nodes = (
"233 238 LINE",
"347 242 LINE",
"468 240 LINE",
"468 402 LINE",
"359 400 LINE",
"233 403 LINE"
);
}
);
};
layerId = "6DC2006A-28B6-4A13-A5DF-3641E0854074";
paths = (
{
closed = 1;
nodes = (
"497 647 LINE",
"451 190 LINE",
"417 0 LINE",
"618 0 LINE",
"636 210 LINE",
"701 647 LINE"
);
},
{
closed = 1;
nodes = (
"111 647 LINE",
"65 190 LINE",
"31 0 LINE",
"232 0 LINE",
"250 210 LINE",
"315 647 LINE"
);
},
{
closed = 1;
nodes = (
"379 400 LINE",
"254 403 LINE",
"234 238 LINE",
"348 242 LINE",
"469 240 LINE",
"489 402 LINE"
);
}
);
width = 712;
}
);
leftKerningGroup = H;
rightKerningGroup = H;
unicode = 0048;
},
{
color = 0;
glyphname = Hbar;
layers = (
{
anchors = (
{
name = bottom;
position = "{344, 0}";
},
{
name = center;
position = "{391, 324}";
},
{
name = top;
position = "{423, 647}";
},
{
name = topleft;
position = "{87, 647}";
}
);
background = {
paths = (
{
closed = 1;
nodes = (
"17 573 LINE",
"11 482 LINE",
"19 472 LINE",
"730 472 LINE",
"735 563 LINE",
"727 573 LINE"
);
},
{
closed = 1;
nodes = (
"460 647 LINE",
"470 190 LINE",
"460 0 LINE",
"661 0 LINE",
"653 210 LINE",
"664 647 LINE"
);
},
{
closed = 1;
nodes = (
"74 647 LINE",
"84 190 LINE",
"74 0 LINE",
"275 0 LINE",
"267 210 LINE",
"278 647 LINE"
);
},
{
closed = 1;
nodes = (
"247 238 LINE",
"361 242 LINE",
"482 240 LINE",
"482 402 LINE",
"373 400 LINE",
"247 403 LINE"
);
}
);
};
layerId = "6DC2006A-28B6-4A13-A5DF-3641E0854074";
paths = (
{
closed = 1;
nodes = (
"51 573 LINE",
"45 482 LINE",
"53 472 LINE",
"764 472 LINE",
"769 563 LINE",
"761 573 LINE"
);
},
{
closed = 1;
nodes = (
"514 647 LINE",
"468 190 LINE",
"434 0 LINE",
"635 0 LINE",
"653 210 LINE",
"718 647 LINE"
);
},
{
closed = 1;
nodes = (
"128 647 LINE",
"82 190 LINE",
"48 0 LINE",
"249 0 LINE",
"267 210 LINE",
"332 647 LINE"
);
},
{
closed = 1;
nodes = (
"396 400 LINE",
"271 403 LINE",
"251 238 LINE",
"365 242 LINE",
"486 240 LINE",
"506 402 LINE"
);
}
);
width = 746;
}
);
leftKerningGroup = H;
rightKerningGroup = H;
unicode = 0126;
},
{
color = 10;
glyphname = Hcircumflex;
layers = (
{
background = {
paths = (
{
closed = 1;
nodes = (
"446 647 LINE",
"456 190 LINE",
"446 0 LINE",
"647 0 LINE",
"639 210 LINE",
"650 647 LINE"
);
},
{
closed = 1;
nodes = (
"60 647 LINE",
"70 190 LINE",
"60 0 LINE",
"261 0 LINE",
"253 210 LINE",
"264 647 LINE"
);
},
{
closed = 1;
nodes = (
"233 238 LINE",
"347 242 LINE",
"468 240 LINE",
"468 402 LINE",
"359 400 LINE",
"233 403 LINE"
);
},
{
closed = 1;
nodes = (
"237 721 LINE",
"276 741 OFFCURVE",
"316 761 OFFCURVE",
"355 781 CURVE",
"394 761 OFFCURVE",
"434 741 OFFCURVE",
"473 721 CURVE",
"491 721 LINE",
"525 797 LINE",
"468 836 OFFCURVE",
"417 875 OFFCURVE",
"372 916 CURVE",
"338 916 LINE",
"293 875 OFFCURVE",
"242 836 OFFCURVE",
"185 797 CURVE",
"219 721 LINE"
);
}
);
};
components = (
{
name = H;
},
{
name = circumflexcomb.case;
transform = "{1, 0, 0, 1, 184, 175}";
}
);
layerId = "6DC2006A-28B6-4A13-A5DF-3641E0854074";
width = 712;
}
);
leftKerningGroup = H;
rightKerningGroup = H;
unicode = 0124;
},
{
color = 1;
glyphname = I;
layers = (
{
anchors = (
{
name = bottom;
position = "{135, 0}";
},
{
name = ogonek;
position = "{232, 0}";
},
{
name = top;
position = "{211, 647}";
},
{
name = topleft;
position = "{70, 647}";
}
);
background = {
paths = (
{
closed = 1;
nodes = (
"60 647 LINE",
"70 190 LINE",
"60 0 LINE",
"261 0 LINE",
"253 210 LINE",
"264 647 LINE"
);
}
);
};
layerId = "6DC2006A-28B6-4A13-A5DF-3641E0854074";
paths = (
{
closed = 1;
nodes = (
"111 647 LINE",
"65 190 LINE",
"31 0 LINE",
"232 0 LINE",
"250 210 LINE",
"315 647 LINE"
);
}
);
width = 328;
}
);
leftKerningGroup = H;
rightKerningGroup = H;
unicode = 0049;
},
{
color = 10;
glyphname = IJ;
layers = (
{
background = {
paths = (
{
closed = 1;
nodes = (
"60 647 LINE",
"70 190 LINE",
"60 0 LINE",
"261 0 LINE",
"253 210 LINE",
"264 647 LINE"
);
},
{
closed = 1;
nodes = (
"415 647 LINE",
"425 193 LINE",
"425 117 LINE",
"425 57 OFFCURVE",
"405 24 OFFCURVE",
"349 -10 CURVE",
"349 -26 LINE",
"413 -109 LINE",
"562 -52 OFFCURVE",
"610 9 OFFCURVE",
"610 124 CURVE",
"608 213 LINE",
"619 647 LINE"
);
},
{
closed = 1;
nodes = (
"344 647 LINE",
"336 516 LINE",
"347 503 LINE",
"437 507 LINE",
"436 647 LINE"
);
}
);
};
components = (
{
name = I;
},
{
name = J;
transform = "{1, 0, 0, 1, 328, 0}";
}
);
layerId = "6DC2006A-28B6-4A13-A5DF-3641E0854074";
width = 691;
}
);
leftKerningGroup = H;
rightKerningGroup = H;
unicode = 0132;
},
{
color = 10;
glyphname = Iacute;
layers = (
{
background = {
paths = (
{
closed = 1;
nodes = (
"60 647 LINE",
"70 190 LINE",
"60 0 LINE",
"261 0 LINE",
"253 210 LINE",
"264 647 LINE"
);
},
{
closed = 1;
nodes = (
"187 876 OFFCURVE",
"116 837 OFFCURVE",
"33 795 CURVE",
"63 716 LINE",
"80 712 LINE",
"157 732 OFFCURVE",
"232 754 OFFCURVE",
"318 781 CURVE",
"324 797 LINE",
"275 914 LINE",
"258 918 LINE"
);
}
);
};
components = (
{
name = I;
},
{
name = acutecomb.case;
transform = "{1, 0, 0, 1, -7, 175}";
}
);
layerId = "6DC2006A-28B6-4A13-A5DF-3641E0854074";
width = 328;
}
);
leftKerningGroup = H;
rightKerningGroup = H;
unicode = 00CD;
},
{
color = 10;
glyphname = Ibreve;
layers = (
{
background = {
paths = (
{
closed = 1;
nodes = (
"60 647 LINE",
"70 190 LINE",
"60 0 LINE",
"261 0 LINE",
"253 210 LINE",
"264 647 LINE"
);
},
{
closed = 1;
nodes = (
"273 900 LINE",
"252 868 OFFCURVE",
"213 850 OFFCURVE",
"166 850 CURVE SMOOTH",
"114 850 OFFCURVE",
"73 868 OFFCURVE",
"51 900 CURVE",
"24 900 LINE",
"-16 840 LINE",
"12 760 OFFCURVE",
"74 716 OFFCURVE",
"159 716 CURVE SMOOTH",
"246 716 OFFCURVE",
"310 760 OFFCURVE",
"340 840 CURVE SMOOTH",
"300 900 LINE"
);
}
);
};
components = (
{
name = I;
},
{
name = brevecomb.case;
transform = "{1, 0, 0, 1, -17, 175}";
}
);
layerId = "6DC2006A-28B6-4A13-A5DF-3641E0854074";
width = 328;
}
);
leftKerningGroup = H;
rightKerningGroup = H;
unicode = 012C;
},
{
color = 10;
glyphname = Icaron;
layers = (
{
background = {
paths = (
{
closed = 1;
nodes = (
"60 647 LINE",
"70 190 LINE",
"60 0 LINE",
"261 0 LINE",
"253 210 LINE",
"264 647 LINE"
);
},
{
closed = 1;
nodes = (
"280 907 LINE",
"241 887 OFFCURVE",
"201 867 OFFCURVE",
"162 847 CURVE",
"123 867 OFFCURVE",
"83 887 OFFCURVE",
"44 907 CURVE",
"26 907 LINE",
"-8 831 LINE",
"49 792 OFFCURVE",
"100 753 OFFCURVE",
"145 712 CURVE",
"179 712 LINE",
"224 753 OFFCURVE",
"275 792 OFFCURVE",
"332 831 CURVE",
"298 907 LINE"
);
}
);
};
components = (
{
name = I;
},
{
name = caroncomb.case;
transform = "{1, 0, 0, 1, -17, 175}";
}
);
layerId = "6DC2006A-28B6-4A13-A5DF-3641E0854074";
width = 328;
}
);
leftKerningGroup = H;
rightKerningGroup = H;
unicode = 01CF;
},
{
color = 10;
glyphname = Icircumflex;
layers = (
{
background = {
paths = (
{
closed = 1;
nodes = (
"60 647 LINE",
"70 190 LINE",
"60 0 LINE",
"261 0 LINE",
"253 210 LINE",
"264 647 LINE"
);
},
{
closed = 1;
nodes = (
"44 721 LINE",
"83 741 OFFCURVE",
"123 761 OFFCURVE",
"162 781 CURVE",
"201 761 OFFCURVE",
"241 741 OFFCURVE",
"280 721 CURVE",
"298 721 LINE",
"332 797 LINE",
"275 836 OFFCURVE",
"224 875 OFFCURVE",
"179 916 CURVE",
"145 916 LINE",
"100 875 OFFCURVE",
"49 836 OFFCURVE",
"-8 797 CURVE",
"26 721 LINE"
);
}
);
};
components = (
{
name = I;
},
{
name = circumflexcomb.case;
transform = "{1, 0, 0, 1, -11, 175}";
}
);
layerId = "6DC2006A-28B6-4A13-A5DF-3641E0854074";
width = 328;
}
);
leftKerningGroup = H;
rightKerningGroup = H;
unicode = 00CE;
},
{
color = 10;
glyphname = Idieresis;
layers = (
{
background = {
paths = (
{
closed = 1;
nodes = (
"60 647 LINE",
"70 190 LINE",
"60 0 LINE",
"261 0 LINE",
"253 210 LINE",
"264 647 LINE"
);
},
{
closed = 1;
nodes = (
"203 892 OFFCURVE",
"169 858 OFFCURVE",
"169 802 CURVE SMOOTH",
"169 749 OFFCURVE",
"198 719 OFFCURVE",
"251 719 CURVE SMOOTH",
"305 719 OFFCURVE",
"339 754 OFFCURVE",
"339 810 CURVE SMOOTH",
"339 862 OFFCURVE",
"309 892 OFFCURVE",
"258 892 CURVE SMOOTH"
);
},
{
closed = 1;
nodes = (
"20 892 OFFCURVE",
"-14 858 OFFCURVE",
"-14 802 CURVE SMOOTH",
"-14 749 OFFCURVE",
"15 719 OFFCURVE",
"68 719 CURVE SMOOTH",
"122 719 OFFCURVE",
"156 754 OFFCURVE",
"156 810 CURVE SMOOTH",
"156 862 OFFCURVE",
"126 892 OFFCURVE",
"75 892 CURVE SMOOTH"
);
}
);
};
components = (
{
name = I;
},
{
name = dieresiscomb.i;
transform = "{1, 0, 0, 1, -14, 175}";
}
);
layerId = "6DC2006A-28B6-4A13-A5DF-3641E0854074";
width = 328;
}
);
leftKerningGroup = H;
rightKerningGroup = H;
unicode = 00CF;
},
{
color = 10;
glyphname = Idotaccent;
layers = (
{
background = {
paths = (
{
closed = 1;
nodes = (
"60 647 LINE",
"70 190 LINE",
"60 0 LINE",
"261 0 LINE",
"253 210 LINE",
"264 647 LINE"
);
},
{
closed = 1;
nodes = (
"103 903 OFFCURVE",
"64 863 OFFCURVE",
"64 799 CURVE SMOOTH",
"64 738 OFFCURVE",
"97 704 OFFCURVE",
"158 704 CURVE SMOOTH",
"220 704 OFFCURVE",
"259 744 OFFCURVE",
"259 808 CURVE SMOOTH",
"259 868 OFFCURVE",
"225 903 OFFCURVE",
"166 903 CURVE SMOOTH"
);
}
);
};
components = (
{
name = I;
},
{
name = dotaccentcomb;
transform = "{1, 0, 0, 1, 47, 175}";
}
);
layerId = "6DC2006A-28B6-4A13-A5DF-3641E0854074";
width = 328;
}
);
leftKerningGroup = H;
rightKerningGroup = H;
unicode = 0130;
},
{
color = 10;
glyphname = Idotbelow;
layers = (
{
background = {
paths = (
{
closed = 1;
nodes = (
"60 647 LINE",
"70 190 LINE",
"60 0 LINE",
"261 0 LINE",
"253 210 LINE",
"264 647 LINE"
);
},
{
closed = 1;
nodes = (
"97 -32 OFFCURVE",
"58 -72 OFFCURVE",
"58 -136 CURVE SMOOTH",
"58 -197 OFFCURVE",
"91 -231 OFFCURVE",
"152 -231 CURVE SMOOTH",
"214 -231 OFFCURVE",
"253 -191 OFFCURVE",
"253 -127 CURVE SMOOTH",
"253 -67 OFFCURVE",
"219 -32 OFFCURVE",
"160 -32 CURVE SMOOTH"
);
}
);
};
components = (
{
name = I;
},
{
name = dotbelowcomb;
transform = "{1, 0, 0, 1, 51, 0}";
}
);
layerId = "6DC2006A-28B6-4A13-A5DF-3641E0854074";
width = 328;
}
);
leftKerningGroup = H;
rightKerningGroup = H;
unicode = 1ECA;
},
{
color = 10;
glyphname = Igrave;
layers = (
{
background = {
paths = (
{
closed = 1;
nodes = (
"60 647 LINE",
"70 190 LINE",
"60 0 LINE",
"261 0 LINE",
"253 210 LINE",
"264 647 LINE"
);
},
{
closed = 1;
nodes = (
"68 914 LINE",
"19 797 LINE",
"25 781 LINE",
"111 754 OFFCURVE",
"186 732 OFFCURVE",
"263 712 CURVE",
"280 716 LINE",
"310 795 LINE",
"227 837 OFFCURVE",
"156 876 OFFCURVE",
"85 918 CURVE"
);
}
);
};
components = (
{
name = I;
},
{
name = gravecomb.case;
transform = "{1, 0, 0, 1, -42, 175}";
}
);
layerId = "6DC2006A-28B6-4A13-A5DF-3641E0854074";
width = 328;
}
);
leftKerningGroup = H;
rightKerningGroup = H;
unicode = 00CC;
},
{
color = 10;
glyphname = Ihookabove;
layers = (
{
background = {
paths = (
{
closed = 1;
nodes = (
"60 647 LINE",
"70 190 LINE",
"60 0 LINE",
"261 0 LINE",
"253 210 LINE",
"264 647 LINE"
);
},
{
closed = 1;
nodes = (
"102 948 OFFCURVE",
"55 924 OFFCURVE",
"21 887 CURVE",
"50 840 LINE",
"71 856 OFFCURVE",
"99 866 OFFCURVE",
"120 866 CURVE SMOOTH",
"137 866 OFFCURVE",
"150 859 OFFCURVE",
"150 842 CURVE SMOOTH",
"150 821 OFFCURVE",
"130 790 OFFCURVE",
"96 766 CURVE",
"150 686 LINE",
"214 725 LINE",
"187 768 LINE",
"234 810 OFFCURVE",
"248 831 OFFCURVE",
"248 860 CURVE SMOOTH",
"248 913 OFFCURVE",
"204 948 OFFCURVE",
"148 948 CURVE SMOOTH"
);
}
);
};
components = (
{
name = I;
},
{
name = hookabovecomb;
transform = "{1, 0, 0, 1, -4, 175}";
}
);
layerId = "6DC2006A-28B6-4A13-A5DF-3641E0854074";
width = 328;
}
);
leftKerningGroup = H;
rightKerningGroup = H;
unicode = 1EC8;
},
{
color = 10;
glyphname = Imacron;
layers = (
{
background = {
paths = (
{
closed = 1;
nodes = (
"60 647 LINE",
"70 190 LINE",
"60 0 LINE",
"261 0 LINE",
"253 210 LINE",
"264 647 LINE"
);
},
{
closed = 1;
nodes = (
"42 866 LINE",
"33 759 LINE",
"45 746 LINE",
"281 746 LINE",
"290 853 LINE",
"278 866 LINE"
);
}
);
};
components = (
{
name = I;
},
{
name = macroncomb.i;
transform = "{1, 0, 0, 1, -11, 175}";
}
);
layerId = "6DC2006A-28B6-4A13-A5DF-3641E0854074";
width = 328;
}
);
leftKerningGroup = H;
rightKerningGroup = H;
unicode = 012A;
},
{
color = 0;
glyphname = Iogonek;
layers = (
{
background = {
components = (
{
name = I;
}
);
paths = (
{
closed = 1;
nodes = (
"114 0 LINE",
"55 -9 OFFCURVE",
"15 -51 OFFCURVE",
"15 -104 CURVE SMOOTH",
"15 -159 OFFCURVE",
"58 -197 OFFCURVE",
"119 -197 CURVE SMOOTH",
"157 -197 OFFCURVE",
"199 -182 OFFCURVE",
"234 -156 CURVE",
"221 -78 LINE",
"211 -78 LINE",
"188 -90 OFFCURVE",
"163 -98 OFFCURVE",
"145 -98 CURVE SMOOTH",
"126 -98 OFFCURVE",
"116 -90 OFFCURVE",
"116 -76 CURVE SMOOTH",
"116 -53 OFFCURVE",
"142 -36 OFFCURVE",
"232 0 CURVE"
);
}
);
};
components = (
{
name = I;
},
{
name = ogonekcomb.i;
transform = "{1, 0, 0, 1, -18, 0}";
}
);
layerId = "6DC2006A-28B6-4A13-A5DF-3641E0854074";
width = 328;
},
{
associatedMasterId = UUID0;
background = {
paths = (
{
closed = 1;
nodes = (
"80 0 LINE",
"-11 -113 OFFCURVE",
"-18 -125 OFFCURVE",
"-18 -152 CURVE SMOOTH",
"-18 -181 OFFCURVE",
"-3 -197 OFFCURVE",
"25 -197 CURVE SMOOTH",
"51 -197 OFFCURVE",
"73 -181 OFFCURVE",
"91 -149 CURVE",
"79 -134 LINE",
"77 -134 LINE",
"64 -161 OFFCURVE",
"46 -177 OFFCURVE",
"27 -177 CURVE SMOOTH",
"11 -177 OFFCURVE",
"2 -167 OFFCURVE",
"2 -151 CURVE SMOOTH",
"2 -127 OFFCURVE",
"26 -90 OFFCURVE",
"100 0 CURVE"
);
}
);
};
components = (
{
name = I;
}
);
layerId = "20FFACBC-AB83-46B0-8703-63691DB6A817";
name = "Light Italic Nov 9 16, 10:25";
paths = (
{
closed = 1;
nodes = (
"80 0 LINE",
"2 -94 OFFCURVE",
"-18 -126 OFFCURVE",
"-18 -155 CURVE SMOOTH",
"-18 -181 OFFCURVE",
"-2 -197 OFFCURVE",
"25 -197 CURVE SMOOTH",
"52 -197 OFFCURVE",
"73 -182 OFFCURVE",
"91 -149 CURVE",
"79 -134 LINE",
"77 -134 LINE",
"63 -163 OFFCURVE",
"46 -177 OFFCURVE",
"26 -177 CURVE SMOOTH",
"11 -177 OFFCURVE",
"2 -168 OFFCURVE",
"2 -153 CURVE SMOOTH",
"2 -128 OFFCURVE",
"29 -86 OFFCURVE",
"100 0 CURVE"
);
}
);
width = 235;
}
);
leftKerningGroup = H;
rightKerningGroup = H;
unicode = 012E;
},
{
color = 10;
glyphname = Itilde;
layers = (
{
background = {
paths = (
{
closed = 1;
nodes = (
"60 647 LINE",
"70 190 LINE",
"60 0 LINE",
"261 0 LINE",
"253 210 LINE",
"264 647 LINE"
);
},
{
closed = 1;
nodes = (
"261 913 LINE",
"243 885 OFFCURVE",
"226 857 OFFCURVE",
"201 857 CURVE SMOOTH",
"180 857 OFFCURVE",
"123 882 OFFCURVE",
"78 889 CURVE",
"63 883 LINE",
"-9 772 LINE",
"-9 756 LINE",
"47 701 LINE",
"63 701 LINE",
"81 729 OFFCURVE",
"98 757 OFFCURVE",
"123 757 CURVE SMOOTH",
"144 757 OFFCURVE",
"201 732 OFFCURVE",
"246 725 CURVE",
"261 731 LINE",
"333 842 LINE",
"333 858 LINE",
"277 913 LINE"
);
}
);
};
components = (
{
name = I;
},
{
name = tildecomb.i;
transform = "{1, 0, 0, 1, -6, 175}";
}
);
layerId = "6DC2006A-28B6-4A13-A5DF-3641E0854074";
width = 328;
}
);
leftKerningGroup = H;
rightKerningGroup = H;
unicode = 0128;
},
{
color = 1;
glyphname = J;
layers = (
{
anchors = (
{
name = top;
position = "{210, 647}";
}
);
background = {
paths = (
{
closed = 1;
nodes = (
"145 647 LINE",
"99 193 LINE",
"91 128 LINE",
"82 68 OFFCURVE",
"55 35 OFFCURVE",
"-13 1 CURVE",
"-15 -15 LINE",
"40 -109 LINE",
"203 -52 OFFCURVE",
"261 9 OFFCURVE",
"276 124 CURVE",
"285 213 LINE",
"349 647 LINE"
);
},
{
closed = 1;
nodes = (
"62 647 LINE",
"39 516 LINE",
"49 503 LINE",
"152 507 LINE",
"166 647 LINE"
);
}
);
};
layerId = "6DC2006A-28B6-4A13-A5DF-3641E0854074";
paths = (
{
closed = 1;
nodes = (
"145 647 LINE",
"98 193 LINE",
"90 130 LINE",
"83 72 OFFCURVE",
"56 40 OFFCURVE",
"-15 7 CURVE",
"-17 -9 LINE",
"23 -112 LINE",
"198 -62 OFFCURVE",
"258 1 OFFCURVE",
"275 124 CURVE",
"283 213 LINE",
"349 647 LINE"
);
},
{
closed = 1;
nodes = (
"63 647 LINE",
"39 516 LINE",
"48 503 LINE",
"151 507 LINE",
"167 647 LINE"
);
}
);
width = 363;
}
);
leftKerningGroup = J;
rightKerningGroup = H;
unicode = 004A;
},
{
color = 10;
glyphname = Jcircumflex;
layers = (
{
background = {
paths = (
{
closed = 1;
nodes = (
"88 647 LINE",
"98 193 LINE",
"98 117 LINE",
"98 57 OFFCURVE",
"78 24 OFFCURVE",
"22 -10 CURVE",
"22 -26 LINE",
"86 -109 LINE",
"235 -52 OFFCURVE",
"283 9 OFFCURVE",
"283 124 CURVE",
"281 213 LINE",
"292 647 LINE"
);
},
{
closed = 1;
nodes = (
"17 647 LINE",
"9 516 LINE",
"20 503 LINE",
"110 507 LINE",
"109 647 LINE"
);
},
{
closed = 1;
nodes = (
"38 721 LINE",
"77 741 OFFCURVE",
"117 761 OFFCURVE",
"156 781 CURVE",
"195 761 OFFCURVE",
"235 741 OFFCURVE",
"274 721 CURVE",
"292 721 LINE",
"326 797 LINE",
"269 836 OFFCURVE",
"218 875 OFFCURVE",
"173 916 CURVE",
"139 916 LINE",
"94 875 OFFCURVE",
"43 836 OFFCURVE",
"-14 797 CURVE",
"20 721 LINE"
);
}
);
};
components = (
{
name = J;
},
{
name = circumflexcomb.case;
transform = "{1, 0, 0, 1, -12, 175}";
}
);
layerId = "6DC2006A-28B6-4A13-A5DF-3641E0854074";
width = 363;
}
);
leftKerningGroup = J;
rightKerningGroup = H;
unicode = 0134;
},
{
color = 0;
glyphname = K;
layers = (
{
anchors = (
{
name = bottom;
position = "{273, 0}";
},
{
name = top;
position = "{273, 637}";
}
);
associatedMasterId = UUID0;
background = {
paths = (
{
closed = 1;
nodes = (
"451 637 LINE",
"408 590 LINE",
"157 339 LINE",
"157 336 LINE",
"418 57 LINE",
"473 -6 LINE",
"492 5 LINE",
"492 7 LINE",
"186 338 LINE",
"482 637 LINE"
);
},
{
closed = 1;
nodes = (
"107 637 LINE",
"107 195 LINE",
"107 0 LINE",
"127 0 LINE",
"127 195 LINE",
"127 637 LINE"
);
}
);
};
components = (
{
name = I;
}
);
layerId = "FDDE2054-0215-4073-B7F6-74E90EE2AB32";
name = "Light Jun 25 13, 08:40";
paths = (
{
closed = 1;
nodes = (
"451 637 LINE",
"408 590 LINE",
"157 339 LINE",
"157 336 LINE",
"418 57 LINE",
"473 -6 LINE",
"492 5 LINE",
"492 7 LINE",
"186 338 LINE",
"482 637 LINE"
);
}
);
width = 507;
},
{
anchors = (
{
name = bottom;
position = "{313, 0}";
},
{
name = top;
position = "{313, 647}";
}
);
associatedMasterId = UUID0;
background = {
paths = (
{
closed = 1;
nodes = (
"88 162 LINE SMOOTH",
"88 106 OFFCURVE",
"76 91 OFFCURVE",
"23 80 CURVE",
"15 -5 LINE",
"15 -5 OFFCURVE",
"118 0 OFFCURVE",
"181 0 CURVE SMOOTH",
"223 0 OFFCURVE",
"348 -4 OFFCURVE",
"348 -4 CURVE",
"357 80 LINE",
"349 90 LINE",
"349 90 OFFCURVE",
"338 87 OFFCURVE",
"317 87 CURVE SMOOTH",
"291 87 OFFCURVE",
"284 100 OFFCURVE",
"285 156 CURVE SMOOTH",
"292 506 LINE SMOOTH",
"293 541 OFFCURVE",
"303 550 OFFCURVE",
"352 562 CURVE",
"359 652 LINE",
"359 652 OFFCURVE",
"230 647 OFFCURVE",
"187 647 CURVE SMOOTH",
"169 647 OFFCURVE",
"27 648 OFFCURVE",
"27 648 CURVE",
"18 572 LINE",
"27 558 LINE",
"27 558 OFFCURVE",
"42 559 OFFCURVE",
"53 559 CURVE SMOOTH",
"81 559 OFFCURVE",
"88 549 OFFCURVE",
"88 508 CURVE SMOOTH"
);
},
{
closed = 1;
nodes = (
"294 317 LINE",
"420 65 LINE SMOOTH",
"451 4 OFFCURVE",
"478 -16 OFFCURVE",
"530 -16 CURVE SMOOTH",
"555 -16 OFFCURVE",
"683 -5 OFFCURVE",
"683 -5 CURVE",
"694 69 LINE",
"684 84 LINE",
"642 90 OFFCURVE",
"616 116 OFFCURVE",
"586 174 CURVE SMOOTH",
"492 356 LINE",
"534 415 LINE SMOOTH",
"587 489 OFFCURVE",
"632 534 OFFCURVE",
"681 562 CURVE",
"690 637 LINE",
"681 652 LINE",
"681 652 OFFCURVE",
"573 647 OFFCURVE",
"537 647 CURVE SMOOTH",
"491 647 OFFCURVE",
"394 650 OFFCURVE",
"394 650 CURVE",
"385 568 LINE",
"391 558 LINE",
"422 556 OFFCURVE",
"432 548 OFFCURVE",
"432 526 CURVE SMOOTH",
"432 511 OFFCURVE",
"424 493 OFFCURVE",
"411 480 CURVE",
"299 347 LINE"
);
}
);
};
components = (
{
name = I;
}
);
layerId = "D89E4278-936F-4E02-A7D7-23256A518BF0";
name = "Bold Jun 25 13, 08:40";
paths = (
{
closed = 1;
nodes = (
"417 647 LINE",
"383 577 LINE",
"237 344 LINE",
"237 332 LINE",
"375 82 LINE",
"414 -12 LINE",
"636 13 LINE",
"642 25 LINE",
"447 358 LINE",
"629 647 LINE"
);
}
);
width = 628;
},
{
anchors = (
{
name = bottom;
position = "{314, 0}";
},
{
name = top;
position = "{314, 647}";
}
);
background = {
paths = (
{
closed = 1;
nodes = (
"415 647 LINE",
"381 577 LINE",
"237 344 LINE",
"237 332 LINE",
"296 218 OFFCURVE",
"358 109 OFFCURVE",
"422 0 CURVE",
"444 -12 LINE",
"511 -6 OFFCURVE",
"577 5 OFFCURVE",
"644 20 CURVE",
"647 42 LINE",
"573 139 OFFCURVE",
"502 239 OFFCURVE",
"437 341 CURVE",
"627 647 LINE"
);
},
{
closed = 1;
nodes = (
"60 647 LINE",
"70 190 LINE",
"60 0 LINE",
"261 0 LINE",
"253 210 LINE",
"264 647 LINE"
);
}
);
};
layerId = "6DC2006A-28B6-4A13-A5DF-3641E0854074";
paths = (
{
closed = 1;
nodes = (
"466 647 LINE",
"423 577 LINE",
"251 344 LINE",
"249 332 LINE",
"294 218 OFFCURVE",
"343 109 OFFCURVE",
"393 0 CURVE",
"414 -12 LINE",
"482 -6 OFFCURVE",
"549 5 OFFCURVE",
"618 20 CURVE",
"623 42 LINE",
"561 136 OFFCURVE",
"503 231 OFFCURVE",
"450 330 CURVE",
"678 647 LINE"
);
},
{
closed = 1;
nodes = (
"111 647 LINE",
"65 190 LINE",
"31 0 LINE",
"232 0 LINE",
"250 210 LINE",
"315 647 LINE"
);
}
);
width = 631;
}
);
leftKerningGroup = H;
rightKerningGroup = X;
unicode = 004B;
},
{
color = 10;
glyphname = Kcommaaccent;
layers = (
{
background = {
paths = (
{
closed = 1;
nodes = (
"415 647 LINE",
"381 577 LINE",
"237 344 LINE",
"237 332 LINE",
"296 218 OFFCURVE",
"358 109 OFFCURVE",
"422 0 CURVE",
"444 -12 LINE",
"511 -6 OFFCURVE",
"577 5 OFFCURVE",
"644 20 CURVE",
"647 42 LINE",
"573 139 OFFCURVE",
"502 239 OFFCURVE",
"437 341 CURVE",
"627 647 LINE"
);
},
{
closed = 1;
nodes = (
"60 647 LINE",
"70 190 LINE",
"60 0 LINE",
"261 0 LINE",
"253 210 LINE",
"264 647 LINE"
);
},
{
closed = 1;
nodes = (
"323 -39 OFFCURVE",
"276 -59 OFFCURVE",
"231 -84 CURVE",
"230 -100 LINE",
"253 -123 OFFCURVE",
"263 -146 OFFCURVE",
"263 -175 CURVE SMOOTH",
"263 -217 OFFCURVE",
"245 -251 OFFCURVE",
"207 -284 CURVE",
"209 -298 LINE",
"270 -351 LINE",
"374 -279 OFFCURVE",
"422 -210 OFFCURVE",
"422 -132 CURVE SMOOTH",
"422 -90 OFFCURVE",
"407 -57 OFFCURVE",
"374 -26 CURVE"
);
}
);
};
components = (
{
name = K;
},
{
name = commaaccentcomb;
transform = "{1, 0, 0, 1, 284, 0}";
}
);
layerId = "6DC2006A-28B6-4A13-A5DF-3641E0854074";
width = 631;
}
);
leftKerningGroup = H;
rightKerningGroup = X;
unicode = 0136;
},
{
color = 1;
glyphname = L;
layers = (
{
anchors = (
{
name = bottom;
position = "{211, 0}";
},
{
name = center;
position = "{237, 324}";
},
{
name = top;
position = "{201, 647}";
},
{
name = topright;
position = "{445, 328}";
}
);
background = {
paths = (
{
closed = 1;
nodes = (
"54 647 LINE",
"64 190 LINE",
"54 0 LINE",
"255 0 LINE",
"247 210 LINE",
"258 647 LINE"
);
},
{
closed = 1;
nodes = (
"178 164 LINE",
"178 11 LINE",
"178 0 LINE",
"439 0 LINE",
"451 150 LINE",
"440 164 LINE"
);
}
);
};
layerId = "6DC2006A-28B6-4A13-A5DF-3641E0854074";
paths = (
{
closed = 1;
nodes = (
"105 647 LINE",
"59 190 LINE",
"26 0 LINE",
"227 0 LINE",
"245 210 LINE",
"309 647 LINE"
);
},
{
closed = 1;
nodes = (
"170 164 LINE",
"151 11 LINE",
"150 0 LINE",
"411 0 LINE",
"441 150 LINE",
"432 164 LINE"
);
}
);
width = 452;
}
);
leftKerningGroup = H;
rightKerningGroup = L;
unicode = 004C;
},
{
color = 10;
glyphname = Lacute;
layers = (
{
background = {
paths = (
{
closed = 1;
nodes = (
"55 647 LINE",
"65 190 LINE",
"55 0 LINE",
"256 0 LINE",
"248 210 LINE",
"259 647 LINE"
);
},
{
closed = 1;
nodes = (
"179 164 LINE",
"179 11 LINE",
"179 0 LINE",
"440 0 LINE",
"452 150 LINE",
"441 164 LINE"
);
},
{
closed = 1;
nodes = (
"247 876 OFFCURVE",
"176 837 OFFCURVE",
"93 795 CURVE",
"123 716 LINE",
"140 712 LINE",
"217 732 OFFCURVE",
"292 754 OFFCURVE",
"378 781 CURVE",
"384 797 LINE",
"335 914 LINE",
"318 918 LINE"
);
}
);
};
components = (
{
name = L;
},
{
name = acutecomb.case;
transform = "{1, 0, 0, 1, -17, 175}";
}
);
layerId = "6DC2006A-28B6-4A13-A5DF-3641E0854074";
width = 452;
}
);
leftKerningGroup = H;
rightKerningGroup = L;
unicode = 0139;
},
{
color = 0;
glyphname = Lcaron;
layers = (
{
background = {
paths = (
{
closed = 0;
nodes = (
"216 197 LINE"
);
},
{
closed = 1;
nodes = (
"55 647 LINE",
"65 190 LINE",
"55 0 LINE",
"256 0 LINE",
"248 210 LINE",
"259 647 LINE"
);
},
{
closed = 1;
nodes = (
"179 164 LINE",
"179 11 LINE",
"179 0 LINE",
"440 0 LINE",
"452 150 LINE",
"441 164 LINE"
);
},
{
closed = 1;
nodes = (
"350 593 LINE",
"360 355 LINE",
"373 345 LINE",
"455 358 LINE",
"499 590 LINE",
"489 601 LINE"
);
}
);
};
components = (
{
alignment = -1;
name = L;
},
{
name = caroncomb.alt;
transform = "{1, 0, 0, 1, 276, -144}";
}
);
layerId = "6DC2006A-28B6-4A13-A5DF-3641E0854074";
width = 453;
}
);
leftKerningGroup = H;
leftMetricsKey = "=L";
rightKerningGroup = L;
unicode = 013D;
},
{
color = 10;
glyphname = Lcommaaccent;
layers = (
{
background = {
paths = (
{
closed = 1;
nodes = (
"55 647 LINE",
"65 190 LINE",
"55 0 LINE",
"256 0 LINE",
"248 210 LINE",
"259 647 LINE"
);
},
{
closed = 1;
nodes = (
"179 164 LINE",
"179 11 LINE",
"179 0 LINE",
"440 0 LINE",
"452 150 LINE",
"441 164 LINE"
);
},
{
closed = 1;
nodes = (
"241 -39 OFFCURVE",
"194 -59 OFFCURVE",
"149 -84 CURVE",
"148 -100 LINE",
"171 -123 OFFCURVE",
"181 -146 OFFCURVE",
"181 -175 CURVE SMOOTH",
"181 -217 OFFCURVE",
"163 -251 OFFCURVE",
"125 -284 CURVE",
"127 -298 LINE",
"188 -351 LINE",
"292 -279 OFFCURVE",
"340 -210 OFFCURVE",
"340 -132 CURVE SMOOTH",
"340 -90 OFFCURVE",
"325 -57 OFFCURVE",
"292 -26 CURVE"
);
}
);
};
components = (
{
name = L;
},
{
name = commaaccentcomb;
transform = "{1, 0, 0, 1, 181, 0}";
}
);
layerId = "6DC2006A-28B6-4A13-A5DF-3641E0854074";
width = 452;
}
);
leftKerningGroup = H;
rightKerningGroup = L;
unicode = 013B;
},
{
color = 1;
glyphname = Ldot;
layers = (
{
background = {
paths = (
{
closed = 1;
nodes = (
"45 647 LINE",
"55 190 LINE",
"45 0 LINE",
"246 0 LINE",
"238 210 LINE",
"249 647 LINE"
);
},
{
closed = 1;
nodes = (
"169 164 LINE",
"169 11 LINE",
"169 0 LINE",
"430 0 LINE",
"442 150 LINE",
"431 164 LINE"
);
},
{
closed = 1;
nodes = (
"328 501 OFFCURVE",
"289 461 OFFCURVE",
"289 397 CURVE SMOOTH",
"289 336 OFFCURVE",
"322 302 OFFCURVE",
"383 302 CURVE SMOOTH",
"445 302 OFFCURVE",
"484 342 OFFCURVE",
"484 406 CURVE SMOOTH",
"484 466 OFFCURVE",
"450 501 OFFCURVE",
"391 501 CURVE SMOOTH"
);
}
);
};
components = (
{
alignment = -1;
name = L;
},
{
alignment = -1;
name = periodcentered;
transform = "{1, 0, 0, 1, 299, 141}";
}
);
layerId = "6DC2006A-28B6-4A13-A5DF-3641E0854074";
width = 503;
}
);
leftKerningGroup = H;
leftMetricsKey = "=L";
unicode = 013F;
},
{
color = 0;
glyphname = Lslash;
layers = (
{
anchors = (
{
name = bottom;
position = "{219, 0}";
},
{
name = center;
position = "{244.805, 324}";
},
{
name = top;
position = "{209, 647}";
},
{
name = topright;
position = "{453, 328}";
}
);
background = {
paths = (
{
closed = 1;
nodes = (
"-19 301 LINE",
"2 186 LINE",
"18 177 LINE",
"396 357 LINE",
"374 471 LINE",
"358 480 LINE"
);
},
{
closed = 1;
nodes = (
"113 647 LINE",
"67 190 LINE",
"33 0 LINE",
"234 0 LINE",
"252 210 LINE",
"317 647 LINE"
);
},
{
closed = 1;
nodes = (
"177 164 LINE",
"159 11 LINE",
"157 0 LINE",
"418 0 LINE",
"449 150 LINE",
"439 164 LINE"
);
}
);
};
layerId = "6DC2006A-28B6-4A13-A5DF-3641E0854074";
paths = (
{
closed = 1;
nodes = (
"-18 301 LINE",
"3 186 LINE",
"18 177 LINE",
"396 357 LINE",
"374 471 LINE",
"359 480 LINE"
);
},
{
closed = 1;
nodes = (
"113 647 LINE",
"67 190 LINE",
"34 0 LINE",
"235 0 LINE",
"253 210 LINE",
"317 647 LINE"
);
},
{
closed = 1;
nodes = (
"178 164 LINE",
"159 11 LINE",
"158 0 LINE",
"419 0 LINE",
"449 150 LINE",
"440 164 LINE"
);
}
);
width = 460;
}
);
leftKerningGroup = H;
rightKerningGroup = L;
unicode = 0141;
},
{
color = 1;
glyphname = M;
layers = (
{
associatedMasterId = UUID0;
background = {
paths = (
{
closed = 1;
nodes = (
"494 647 LINE",
"469 528 LINE",
"407 268 LINE",
"395 268 LINE",
"347 528 LINE",
"329 647 LINE",
"86 647 LINE",
"28 0 LINE",
"195 0 LINE",
"202 215 LINE",
"212 350 LINE",
"224 350 LINE",
"311 0 LINE",
"472 0 LINE",
"577 350 LINE",
"589 350 LINE",
"596 196 LINE",
"598 0 LINE",
"774 0 LINE",
"727 647 LINE"
);
}
);
};
layerId = "0B6E3A3E-1600-4239-9A6A-FC0024995097";
name = "Bold May 22 13, 19:14";
paths = (
{
closed = 1;
nodes = (
"490 647 LINE",
"466 534 LINE",
"407 268 LINE",
"395 268 LINE",
"350 534 LINE",
"333 647 LINE",
"86 647 LINE",
"28 0 LINE",
"195 0 LINE",
"202 215 LINE",
"212 350 LINE",
"224 350 LINE",
"307 0 LINE",
"476 0 LINE",
"577 350 LINE",
"589 350 LINE",
"596 196 LINE",
"598 0 LINE",
"774 0 LINE",
"727 647 LINE"
);
}
);
width = 808;
},
{
associatedMasterId = UUID0;
background = {
paths = (
{
closed = 1;
nodes = (
"605 637 LINE",
"590 594 LINE",
"383 30 LINE",
"379 30 LINE",
"176 594 LINE",
"163 637 LINE",
"138 637 LINE",
"78 0 LINE",
"99 0 LINE",
"116 195 LINE",
"153 589 LINE",
"157 589 LINE",
"368 0 LINE",
"394 0 LINE",
"609 589 LINE",
"613 589 LINE",
"651 195 LINE",
"667 0 LINE",
"688 0 LINE",
"630 637 LINE"
);
}
);
};
layerId = "6EA11FB7-F8C3-4409-AC9E-9EB339DD7A9F";
name = "Light May 22 13, 19:14";
paths = (
{
closed = 1;
nodes = (
"619 637 LINE",
"587 553 LINE",
"390 30 LINE",
"386 30 LINE",
"193 553 LINE",
"164 637 LINE",
"140 637 LINE",
"78 0 LINE",
"99 0 LINE",
"117 195 LINE",
"155 589 LINE",
"159 589 LINE",
"375 0 LINE",
"402 0 LINE",
"622 589 LINE",
"626 589 LINE",
"665 195 LINE",
"682 0 LINE",
"703 0 LINE",
"643 637 LINE"
);
}
);
width = 782;
},
{
anchors = (
{
name = bottom;
position = "{375, 0}";
},
{
name = top;
position = "{454, 647}";
}
);
background = {
paths = (
{
closed = 1;
nodes = (
"489 647 LINE",
"466 548 LINE",
"408 325 LINE",
"396 325 LINE",
"343 555 LINE",
"325 647 LINE",
"88 647 LINE",
"26 0 LINE",
"197 0 LINE",
"206 215 LINE",
"219 353 LINE",
"231 353 LINE",
"313 60 LINE",
"467 60 LINE",
"567 353 LINE",
"579 353 LINE",
"589 196 LINE",
"593 0 LINE",
"773 0 LINE",
"722 647 LINE"
);
}
);
};
layerId = "6DC2006A-28B6-4A13-A5DF-3641E0854074";
paths = (
{
closed = 1;
nodes = (
"546 647 LINE",
"510 548 LINE",
"419 320 LINE",
"407 320 LINE",
"379 555 LINE",
"371 647 LINE",
"139 647 LINE",
"-3 0 LINE",
"165 0 LINE",
"200 215 LINE",
"232 359 LINE",
"244 359 LINE",
"294 61 LINE",
"445 61 LINE",
"587 359 LINE",
"599 359 LINE",
"590 196 LINE",
"570 0 LINE",
"747 0 LINE",
"774 647 LINE"
);
}
);
width = 807;
}
);
leftKerningGroup = M;
rightKerningGroup = M;
unicode = 004D;
},
{
color = 1;
glyphname = N;
layers = (
{
anchors = (
{
name = bottom;
position = "{327, 0}";
},
{
name = top;
position = "{406, 647}";
}
);
background = {
paths = (
{
closed = 1;
nodes = (
"466 640 LINE",
"472 301 LINE",
"460 301 LINE",
"278 647 LINE",
"60 647 LINE",
"70 190 LINE",
"60 0 LINE",
"242 0 LINE",
"234 234 LINE",
"235 346 LINE",
"247 346 LINE",
"429 0 LINE",
"647 0 LINE",
"639 211 LINE",
"650 651 LINE"
);
}
);
};
layerId = "6DC2006A-28B6-4A13-A5DF-3641E0854074";
paths = (
{
closed = 1;
nodes = (
"517 640 LINE",
"481 301 LINE",
"469 301 LINE",
"329 647 LINE",
"111 647 LINE",
"65 190 LINE",
"32 0 LINE",
"214 0 LINE",
"235 234 LINE",
"250 346 LINE",
"262 346 LINE",
"401 0 LINE",
"619 0 LINE",
"637 211 LINE",
"702 651 LINE"
);
}
);
width = 711;
}
);
leftKerningGroup = H;
rightKerningGroup = H;
unicode = 004E;
},
{
color = 10;
glyphname = Nacute;
layers = (
{
background = {
paths = (
{
closed = 1;
nodes = (
"466 640 LINE",
"472 301 LINE",
"460 301 LINE",
"278 647 LINE",
"60 647 LINE",
"70 190 LINE",
"60 0 LINE",
"242 0 LINE",
"234 234 LINE",
"235 346 LINE",
"247 346 LINE",
"429 0 LINE",
"647 0 LINE",
"639 211 LINE",
"650 651 LINE"
);
},
{
closed = 1;
nodes = (
"380 876 OFFCURVE",
"309 837 OFFCURVE",
"226 795 CURVE",
"256 716 LINE",
"273 712 LINE",
"350 732 OFFCURVE",
"425 754 OFFCURVE",
"511 781 CURVE",
"517 797 LINE",
"468 914 LINE",
"451 918 LINE"
);
}
);
};
components = (
{
name = N;
},
{
name = acutecomb.case;
transform = "{1, 0, 0, 1, 188, 175}";
}
);
layerId = "6DC2006A-28B6-4A13-A5DF-3641E0854074";
width = 711;
}
);
leftKerningGroup = H;
rightKerningGroup = H;
unicode = 0143;
},
{
color = 10;
glyphname = Ncaron;
layers = (
{
background = {
paths = (
{
closed = 1;
nodes = (
"466 640 LINE",
"472 301 LINE",
"460 301 LINE",
"278 647 LINE",
"60 647 LINE",
"70 190 LINE",
"60 0 LINE",
"242 0 LINE",
"234 234 LINE",
"235 346 LINE",
"247 346 LINE",
"429 0 LINE",
"647 0 LINE",
"639 211 LINE",
"650 651 LINE"
);
},
{
closed = 1;
nodes = (
"473 907 LINE",
"434 887 OFFCURVE",
"394 867 OFFCURVE",
"355 847 CURVE",
"316 867 OFFCURVE",
"276 887 OFFCURVE",
"237 907 CURVE",
"219 907 LINE",
"185 831 LINE",
"242 792 OFFCURVE",
"293 753 OFFCURVE",
"338 712 CURVE",
"372 712 LINE",
"417 753 OFFCURVE",
"468 792 OFFCURVE",
"525 831 CURVE",
"491 907 LINE"
);
}
);
};
components = (
{
name = N;
},
{
name = caroncomb.case;
transform = "{1, 0, 0, 1, 178, 175}";
}
);
layerId = "6DC2006A-28B6-4A13-A5DF-3641E0854074";
width = 711;
}
);
leftKerningGroup = H;
rightKerningGroup = H;
unicode = 0147;
},
{
color = 10;
glyphname = Ncommaaccent;
layers = (
{
background = {
paths = (
{
closed = 1;
nodes = (
"466 640 LINE",
"472 301 LINE",
"460 301 LINE",
"278 647 LINE",
"60 647 LINE",
"70 190 LINE",
"60 0 LINE",
"242 0 LINE",
"234 234 LINE",
"235 346 LINE",
"247 346 LINE",
"429 0 LINE",
"647 0 LINE",
"639 211 LINE",
"650 651 LINE"
);
},
{
closed = 1;
nodes = (
"364 -39 OFFCURVE",
"317 -59 OFFCURVE",
"272 -84 CURVE",
"271 -100 LINE",
"294 -123 OFFCURVE",
"304 -146 OFFCURVE",
"304 -175 CURVE SMOOTH",
"304 -217 OFFCURVE",
"286 -251 OFFCURVE",
"248 -284 CURVE",
"250 -298 LINE",
"311 -351 LINE",
"415 -279 OFFCURVE",
"463 -210 OFFCURVE",
"463 -132 CURVE SMOOTH",
"463 -90 OFFCURVE",
"448 -57 OFFCURVE",
"415 -26 CURVE"
);
}
);
};
components = (
{
name = N;
},
{
name = commaaccentcomb;
transform = "{1, 0, 0, 1, 297, 0}";
}
);
layerId = "6DC2006A-28B6-4A13-A5DF-3641E0854074";
width = 711;
}
);
leftKerningGroup = H;
rightKerningGroup = H;
unicode = 0145;
},
{
color = 1;
glyphname = Eng;
layers = (
{
background = {
paths = (
{
closed = 1;
nodes = (
"517 640 LINE",
"483 326 LINE",
"471 326 LINE",
"329 647 LINE",
"111 647 LINE",
"65 190 LINE",
"32 0 LINE",
"214 0 LINE",
"235 234 LINE",
"249 346 LINE",
"262 346 LINE",
"422 -9 LINE",
"408 -37 OFFCURVE",
"385 -58 OFFCURVE",
"346 -80 CURVE",
"344 -96 LINE",
"398 -179 LINE",
"554 -122 OFFCURVE",
"610 -61 OFFCURVE",
"624 54 CURVE",
"637 211 LINE",
"702 651 LINE"
);
}
);
};
layerId = "6DC2006A-28B6-4A13-A5DF-3641E0854074";
paths = (
{
closed = 1;
nodes = (
"517 640 LINE",
"484 321 LINE",
"472 321 LINE",
"330 647 LINE",
"112 647 LINE",
"66 190 LINE",
"32 0 LINE",
"214 0 LINE",
"235 234 LINE",
"250 346 LINE",
"262 346 LINE",
"419 0 LINE",
"402 -25 OFFCURVE",
"375 -44 OFFCURVE",
"332 -63 CURVE",
"331 -79 LINE",
"370 -182 LINE",
"547 -132 OFFCURVE",
"609 -69 OFFCURVE",
"624 54 CURVE",
"637 211 LINE",
"702 651 LINE"
);
}
);
width = 715.509;
}
);
leftKerningGroup = H;
leftMetricsKey = N;
rightKerningGroup = H;
rightMetricsKey = J;
unicode = 014A;
},
{
color = 10;
glyphname = Ntilde;
layers = (
{
background = {
paths = (
{
closed = 1;
nodes = (
"466 640 LINE",
"472 301 LINE",
"460 301 LINE",
"278 647 LINE",
"60 647 LINE",
"70 190 LINE",
"60 0 LINE",
"242 0 LINE",
"234 234 LINE",
"235 346 LINE",
"247 346 LINE",
"429 0 LINE",
"647 0 LINE",
"639 211 LINE",
"650 651 LINE"
);
},
{
closed = 1;
nodes = (
"477 916 LINE",
"454 887 OFFCURVE",
"434 858 OFFCURVE",
"408 858 CURVE SMOOTH",
"382 858 OFFCURVE",
"307 885 OFFCURVE",
"255 892 CURVE",
"239 886 LINE",
"158 773 LINE",
"158 757 LINE",
"215 702 LINE",
"231 702 LINE",
"254 731 OFFCURVE",
"274 760 OFFCURVE",
"300 760 CURVE SMOOTH",
"326 760 OFFCURVE",
"401 733 OFFCURVE",
"453 726 CURVE",
"469 732 LINE",
"550 845 LINE",
"550 861 LINE",
"493 916 LINE"
);
}
);
};
components = (
{
name = N;
},
{
name = tilde;
transform = "{1, 0, 0, 1, 189, 175}";
}
);
layerId = "6DC2006A-28B6-4A13-A5DF-3641E0854074";
width = 711;
}
);
leftKerningGroup = H;
rightKerningGroup = H;
unicode = 00D1;
},
{
color = 1;
glyphname = O;
layers = (
{
anchors = (
{
name = bottom;
position = "{300, 0}";
},
{
name = center;
position = "{340, 324}";
},
{
name = ogonek;
position = "{428, 10}";
},
{
name = top;
position = "{379, 647}";
},
{
name = topleft;
position = "{70, 647}";
},
{
name = topright;
position = "{688, 647}";
}
);
background = {
paths = (
{
closed = 1;
nodes = (
"135 659 OFFCURVE",
"17 533 OFFCURVE",
"17 312 CURVE SMOOTH",
"17 106 OFFCURVE",
"124 -12 OFFCURVE",
"312 -12 CURVE SMOOTH",
"518 -12 OFFCURVE",
"636 116 OFFCURVE",
"636 340 CURVE SMOOTH",
"636 543 OFFCURVE",
"529 659 OFFCURVE",
"341 659 CURVE SMOOTH"
);
},
{
closed = 1;
nodes = (
"404 499 OFFCURVE",
"426 458 OFFCURVE",
"426 297 CURVE SMOOTH",
"426 169 OFFCURVE",
"405 136 OFFCURVE",
"330 136 CURVE SMOOTH",
"249 136 OFFCURVE",
"227 177 OFFCURVE",
"227 339 CURVE SMOOTH",
"227 466 OFFCURVE",
"248 499 OFFCURVE",
"323 499 CURVE SMOOTH"
);
}
);
};
layerId = "6DC2006A-28B6-4A13-A5DF-3641E0854074";
paths = (
{
closed = 1;
nodes = (
"150 659 OFFCURVE",
"24 498 OFFCURVE",
"24 276 CURVE SMOOTH",
"24 78 OFFCURVE",
"129 -12 OFFCURVE",
"299 -12 CURVE SMOOTH",
"529 -12 OFFCURVE",
"655 152 OFFCURVE",
"655 374 CURVE SMOOTH",
"655 571 OFFCURVE",
"550 659 OFFCURVE",
"380 659 CURVE SMOOTH"
);
},
{
closed = 1;
nodes = (
"428 499 OFFCURVE",
"443 464 OFFCURVE",
"443 362 CURVE SMOOTH",
"443 170 OFFCURVE",
"390 136 OFFCURVE",
"320 136 CURVE SMOOTH",
"249 136 OFFCURVE",
"234 171 OFFCURVE",
"234 273 CURVE SMOOTH",
"234 465 OFFCURVE",
"287 499 OFFCURVE",
"357 499 CURVE SMOOTH"
);
}
);
width = 658;
}
);
leftKerningGroup = O;
rightKerningGroup = O;
unicode = 004F;
},
{
color = 10;
glyphname = Oacute;
layers = (
{
background = {
paths = (
{
closed = 1;
nodes = (
"135 659 OFFCURVE",
"17 533 OFFCURVE",
"17 312 CURVE SMOOTH",
"17 106 OFFCURVE",
"124 -12 OFFCURVE",
"312 -12 CURVE SMOOTH",
"518 -12 OFFCURVE",
"636 116 OFFCURVE",
"636 340 CURVE SMOOTH",
"636 543 OFFCURVE",
"529 659 OFFCURVE",
"341 659 CURVE SMOOTH"
);
},
{
closed = 1;
nodes = (
"404 499 OFFCURVE",
"426 458 OFFCURVE",
"426 297 CURVE SMOOTH",
"426 169 OFFCURVE",
"405 136 OFFCURVE",
"330 136 CURVE SMOOTH",
"249 136 OFFCURVE",
"227 177 OFFCURVE",
"227 339 CURVE SMOOTH",
"227 466 OFFCURVE",
"248 499 OFFCURVE",
"323 499 CURVE SMOOTH"
);
},
{
closed = 1;
nodes = (
"352 876 OFFCURVE",
"281 837 OFFCURVE",
"198 795 CURVE",
"228 716 LINE",
"245 712 LINE",
"322 732 OFFCURVE",
"397 754 OFFCURVE",
"483 781 CURVE",
"489 797 LINE",
"440 914 LINE",
"423 918 LINE"
);
}
);
};
components = (
{
name = O;
},
{
name = acutecomb.case;
transform = "{1, 0, 0, 1, 161, 175}";
}
);
layerId = "6DC2006A-28B6-4A13-A5DF-3641E0854074";
width = 658;
}
);
leftKerningGroup = O;
rightKerningGroup = O;
unicode = 00D3;
},
{
color = 10;
glyphname = Obreve;
layers = (
{
background = {
paths = (
{
closed = 1;
nodes = (
"135 659 OFFCURVE",
"17 533 OFFCURVE",
"17 312 CURVE SMOOTH",
"17 106 OFFCURVE",
"124 -12 OFFCURVE",
"312 -12 CURVE SMOOTH",
"518 -12 OFFCURVE",
"636 116 OFFCURVE",
"636 340 CURVE SMOOTH",
"636 543 OFFCURVE",
"529 659 OFFCURVE",
"341 659 CURVE SMOOTH"
);
},
{
closed = 1;
nodes = (
"404 499 OFFCURVE",
"426 458 OFFCURVE",
"426 297 CURVE SMOOTH",
"426 169 OFFCURVE",
"405 136 OFFCURVE",
"330 136 CURVE SMOOTH",
"249 136 OFFCURVE",
"227 177 OFFCURVE",
"227 339 CURVE SMOOTH",
"227 466 OFFCURVE",
"248 499 OFFCURVE",
"323 499 CURVE SMOOTH"
);
},
{
closed = 1;
nodes = (
"438 900 LINE",
"417 868 OFFCURVE",
"378 850 OFFCURVE",
"331 850 CURVE SMOOTH",
"279 850 OFFCURVE",
"238 868 OFFCURVE",
"216 900 CURVE",
"189 900 LINE",
"149 840 LINE",
"177 760 OFFCURVE",
"239 716 OFFCURVE",
"324 716 CURVE SMOOTH",
"411 716 OFFCURVE",
"475 760 OFFCURVE",
"505 840 CURVE SMOOTH",
"465 900 LINE"
);
}
);
};
components = (
{
name = O;
},
{
name = brevecomb.case;
transform = "{1, 0, 0, 1, 151, 175}";
}
);
layerId = "6DC2006A-28B6-4A13-A5DF-3641E0854074";
width = 658;
}
);
leftKerningGroup = O;
rightKerningGroup = O;
unicode = 014E;
},
{
color = 10;
glyphname = Ocaron;
layers = (
{
background = {
paths = (
{
closed = 1;
nodes = (
"135 659 OFFCURVE",
"17 533 OFFCURVE",
"17 312 CURVE SMOOTH",
"17 106 OFFCURVE",
"124 -12 OFFCURVE",
"312 -12 CURVE SMOOTH",
"518 -12 OFFCURVE",
"636 116 OFFCURVE",
"636 340 CURVE SMOOTH",
"636 543 OFFCURVE",
"529 659 OFFCURVE",
"341 659 CURVE SMOOTH"
);
},
{
closed = 1;
nodes = (
"404 499 OFFCURVE",
"426 458 OFFCURVE",
"426 297 CURVE SMOOTH",
"426 169 OFFCURVE",
"405 136 OFFCURVE",
"330 136 CURVE SMOOTH",
"249 136 OFFCURVE",
"227 177 OFFCURVE",
"227 339 CURVE SMOOTH",
"227 466 OFFCURVE",
"248 499 OFFCURVE",
"323 499 CURVE SMOOTH"
);
},
{
closed = 1;
nodes = (
"445 907 LINE",
"406 887 OFFCURVE",
"366 867 OFFCURVE",
"327 847 CURVE",
"288 867 OFFCURVE",
"248 887 OFFCURVE",
"209 907 CURVE",
"191 907 LINE",
"157 831 LINE",
"214 792 OFFCURVE",
"265 753 OFFCURVE",
"310 712 CURVE",
"344 712 LINE",
"389 753 OFFCURVE",
"440 792 OFFCURVE",
"497 831 CURVE",
"463 907 LINE"
);
}
);
};
components = (
{
name = O;
},
{
name = caroncomb.case;
transform = "{1, 0, 0, 1, 151, 175}";
}
);
layerId = "6DC2006A-28B6-4A13-A5DF-3641E0854074";
width = 658;
}
);
leftKerningGroup = O;
rightKerningGroup = O;
unicode = 01D1;
},
{
color = 10;
glyphname = Ocircumflex;
layers = (
{
background = {
paths = (
{
closed = 1;
nodes = (
"135 659 OFFCURVE",
"17 533 OFFCURVE",
"17 312 CURVE SMOOTH",
"17 106 OFFCURVE",
"124 -12 OFFCURVE",
"312 -12 CURVE SMOOTH",
"518 -12 OFFCURVE",
"636 116 OFFCURVE",
"636 340 CURVE SMOOTH",
"636 543 OFFCURVE",
"529 659 OFFCURVE",
"341 659 CURVE SMOOTH"
);
},
{
closed = 1;
nodes = (
"404 499 OFFCURVE",
"426 458 OFFCURVE",
"426 297 CURVE SMOOTH",
"426 169 OFFCURVE",
"405 136 OFFCURVE",
"330 136 CURVE SMOOTH",
"249 136 OFFCURVE",
"227 177 OFFCURVE",
"227 339 CURVE SMOOTH",
"227 466 OFFCURVE",
"248 499 OFFCURVE",
"323 499 CURVE SMOOTH"
);
},
{
closed = 1;
nodes = (
"209 721 LINE",
"248 741 OFFCURVE",
"288 761 OFFCURVE",
"327 781 CURVE",
"366 761 OFFCURVE",
"406 741 OFFCURVE",
"445 721 CURVE",
"463 721 LINE",
"497 797 LINE",
"440 836 OFFCURVE",
"389 875 OFFCURVE",
"344 916 CURVE",
"310 916 LINE",
"265 875 OFFCURVE",
"214 836 OFFCURVE",
"157 797 CURVE",
"191 721 LINE"
);
}
);
};
components = (
{
name = O;
},
{
name = circumflexcomb.case;
transform = "{1, 0, 0, 1, 157, 175}";
}
);
layerId = "6DC2006A-28B6-4A13-A5DF-3641E0854074";
width = 658;
}
);
leftKerningGroup = O;
rightKerningGroup = O;
unicode = 00D4;
},
{
color = 10;
glyphname = Ocircumflexacute;
layers = (
{
background = {
paths = (
{
closed = 1;
nodes = (
"135 659 OFFCURVE",
"17 533 OFFCURVE",
"17 312 CURVE SMOOTH",
"17 106 OFFCURVE",
"124 -12 OFFCURVE",
"312 -12 CURVE SMOOTH",
"518 -12 OFFCURVE",
"636 116 OFFCURVE",
"636 340 CURVE SMOOTH",
"636 543 OFFCURVE",
"529 659 OFFCURVE",
"341 659 CURVE SMOOTH"
);
},
{
closed = 1;
nodes = (
"404 499 OFFCURVE",
"426 458 OFFCURVE",
"426 297 CURVE SMOOTH",
"426 169 OFFCURVE",
"405 136 OFFCURVE",
"330 136 CURVE SMOOTH",
"249 136 OFFCURVE",
"227 177 OFFCURVE",
"227 339 CURVE SMOOTH",
"227 466 OFFCURVE",
"248 499 OFFCURVE",
"323 499 CURVE SMOOTH"
);
},
{
closed = 1;
nodes = (
"455 1045 LINE",
"385 896 LINE",
"449 849 LINE",
"460 849 LINE",
"570 998 LINE",
"565 1011 LINE",
"467 1052 LINE"
);
},
{
closed = 1;
nodes = (
"208 701 LINE",
"247 721 OFFCURVE",
"287 741 OFFCURVE",
"326 761 CURVE",
"365 741 OFFCURVE",
"405 721 OFFCURVE",
"444 701 CURVE",
"462 701 LINE",
"496 777 LINE",
"439 816 OFFCURVE",
"388 855 OFFCURVE",
"343 896 CURVE",
"309 896 LINE",
"264 855 OFFCURVE",
"213 816 OFFCURVE",
"156 777 CURVE",
"190 701 LINE"
);
}
);
};
components = (
{
name = O;
},
{
name = circumflexcomb_acutecomb;
transform = "{1, 0, 0, 1, 161, 175}";
}
);
layerId = "6DC2006A-28B6-4A13-A5DF-3641E0854074";
width = 658;
}
);
leftKerningGroup = O;
rightKerningGroup = O;
unicode = 1ED0;
},
{
color = 10;
glyphname = Ocircumflexdotbelow;
layers = (
{
background = {
paths = (
{
closed = 1;
nodes = (
"209 721 LINE",
"248 741 OFFCURVE",
"288 761 OFFCURVE",
"327 781 CURVE",
"366 761 OFFCURVE",
"406 741 OFFCURVE",
"445 721 CURVE",
"463 721 LINE",
"497 797 LINE",
"440 836 OFFCURVE",
"389 875 OFFCURVE",
"344 916 CURVE",
"310 916 LINE",
"265 875 OFFCURVE",
"214 836 OFFCURVE",
"157 797 CURVE",
"191 721 LINE"
);
},
{
closed = 1;
nodes = (
"273 -32 OFFCURVE",
"234 -72 OFFCURVE",
"234 -136 CURVE SMOOTH",
"234 -197 OFFCURVE",
"267 -231 OFFCURVE",
"328 -231 CURVE SMOOTH",
"390 -231 OFFCURVE",
"429 -191 OFFCURVE",
"429 -127 CURVE SMOOTH",
"429 -67 OFFCURVE",
"395 -32 OFFCURVE",
"336 -32 CURVE SMOOTH"
);
},
{
closed = 1;
nodes = (
"135 659 OFFCURVE",
"17 533 OFFCURVE",
"17 312 CURVE SMOOTH",
"17 106 OFFCURVE",
"124 -12 OFFCURVE",
"312 -12 CURVE SMOOTH",
"518 -12 OFFCURVE",
"636 116 OFFCURVE",
"636 340 CURVE SMOOTH",
"636 543 OFFCURVE",
"529 659 OFFCURVE",
"341 659 CURVE SMOOTH"
);
},
{
closed = 1;
nodes = (
"404 499 OFFCURVE",
"426 458 OFFCURVE",
"426 297 CURVE SMOOTH",
"426 169 OFFCURVE",
"405 136 OFFCURVE",
"330 136 CURVE SMOOTH",
"249 136 OFFCURVE",
"227 177 OFFCURVE",
"227 339 CURVE SMOOTH",
"227 466 OFFCURVE",
"248 499 OFFCURVE",
"323 499 CURVE SMOOTH"
);
}
);
};
components = (
{
name = Odotbelow;
},
{
name = circumflexcomb.case;
transform = "{1, 0, 0, 1, 157, 175}";
}
);
layerId = "6DC2006A-28B6-4A13-A5DF-3641E0854074";
width = 658;
}
);
leftKerningGroup = O;
rightKerningGroup = O;
unicode = 1ED8;
},
{
color = 10;
glyphname = Ocircumflexgrave;
layers = (
{
background = {
paths = (
{
closed = 1;
nodes = (
"135 659 OFFCURVE",
"17 533 OFFCURVE",
"17 312 CURVE SMOOTH",
"17 106 OFFCURVE",
"124 -12 OFFCURVE",
"312 -12 CURVE SMOOTH",
"518 -12 OFFCURVE",
"636 116 OFFCURVE",
"636 340 CURVE SMOOTH",
"636 543 OFFCURVE",
"529 659 OFFCURVE",
"341 659 CURVE SMOOTH"
);
},
{
closed = 1;
nodes = (
"404 499 OFFCURVE",
"426 458 OFFCURVE",
"426 297 CURVE SMOOTH",
"426 169 OFFCURVE",
"405 136 OFFCURVE",
"330 136 CURVE SMOOTH",
"249 136 OFFCURVE",
"227 177 OFFCURVE",
"227 339 CURVE SMOOTH",
"227 466 OFFCURVE",
"248 499 OFFCURVE",
"323 499 CURVE SMOOTH"
);
},
{
closed = 1;
nodes = (
"337 1011 LINE",
"332 998 LINE",
"442 849 LINE",
"453 849 LINE",
"517 896 LINE",
"447 1045 LINE",
"435 1052 LINE"
);
},
{
closed = 1;
nodes = (
"208 701 LINE",
"247 721 OFFCURVE",
"287 741 OFFCURVE",
"326 761 CURVE",
"365 741 OFFCURVE",
"405 721 OFFCURVE",
"444 701 CURVE",
"462 701 LINE",
"496 777 LINE",
"439 816 OFFCURVE",
"388 855 OFFCURVE",
"343 896 CURVE",
"309 896 LINE",
"264 855 OFFCURVE",
"213 816 OFFCURVE",
"156 777 CURVE",
"190 701 LINE"
);
}
);
};
components = (
{
name = O;
},
{
name = circumflexcomb_gravecomb;
transform = "{1, 0, 0, 1, 154, 175}";
}
);
layerId = "6DC2006A-28B6-4A13-A5DF-3641E0854074";
width = 658;
}
);
leftKerningGroup = O;
rightKerningGroup = O;
unicode = 1ED2;
},
{
color = 10;
glyphname = Ocircumflexhookabove;
layers = (
{
background = {
paths = (
{
closed = 1;
nodes = (
"135 659 OFFCURVE",
"17 533 OFFCURVE",
"17 312 CURVE SMOOTH",
"17 106 OFFCURVE",
"124 -12 OFFCURVE",
"312 -12 CURVE SMOOTH",
"518 -12 OFFCURVE",
"636 116 OFFCURVE",
"636 340 CURVE SMOOTH",
"636 543 OFFCURVE",
"529 659 OFFCURVE",
"341 659 CURVE SMOOTH"
);
},
{
closed = 1;
nodes = (
"404 499 OFFCURVE",
"426 458 OFFCURVE",
"426 297 CURVE SMOOTH",
"426 169 OFFCURVE",
"405 136 OFFCURVE",
"330 136 CURVE SMOOTH",
"249 136 OFFCURVE",
"227 177 OFFCURVE",
"227 339 CURVE SMOOTH",
"227 466 OFFCURVE",
"248 499 OFFCURVE",
"323 499 CURVE SMOOTH"
);
},
{
closed = 1;
nodes = (
"395 1101 OFFCURVE",
"350 1078 OFFCURVE",
"317 1043 CURVE",
"345 998 LINE",
"365 1013 OFFCURVE",
"392 1023 OFFCURVE",
"412 1023 CURVE SMOOTH",
"428 1023 OFFCURVE",
"440 1016 OFFCURVE",
"440 1000 CURVE SMOOTH",
"440 980 OFFCURVE",
"421 950 OFFCURVE",
"389 928 CURVE",
"440 851 LINE",
"501 889 LINE",
"475 930 LINE",
"520 970 OFFCURVE",
"534 990 OFFCURVE",
"534 1017 CURVE SMOOTH",
"534 1068 OFFCURVE",
"492 1101 OFFCURVE",
"438 1101 CURVE SMOOTH"
);
},
{
closed = 1;
nodes = (
"208 701 LINE",
"247 721 OFFCURVE",
"287 741 OFFCURVE",
"326 761 CURVE",
"365 741 OFFCURVE",
"405 721 OFFCURVE",
"444 701 CURVE",
"462 701 LINE",
"496 777 LINE",
"439 816 OFFCURVE",
"388 855 OFFCURVE",
"343 896 CURVE",
"309 896 LINE",
"264 855 OFFCURVE",
"213 816 OFFCURVE",
"156 777 CURVE",
"190 701 LINE"
);
}
);
};
components = (
{
name = O;
},
{
name = circumflexcomb_hookabovecomb;
transform = "{1, 0, 0, 1, 152, 175}";
}
);
layerId = "6DC2006A-28B6-4A13-A5DF-3641E0854074";
width = 658;
}
);
leftKerningGroup = O;
rightKerningGroup = O;
unicode = 1ED4;
},
{
color = 10;
glyphname = Ocircumflextilde;
layers = (
{
background = {
paths = (
{
closed = 1;
nodes = (
"135 659 OFFCURVE",
"17 533 OFFCURVE",
"17 312 CURVE SMOOTH",
"17 106 OFFCURVE",
"124 -12 OFFCURVE",
"312 -12 CURVE SMOOTH",
"518 -12 OFFCURVE",
"636 116 OFFCURVE",
"636 340 CURVE SMOOTH",
"636 543 OFFCURVE",
"529 659 OFFCURVE",
"341 659 CURVE SMOOTH"
);
},
{
closed = 1;
nodes = (
"404 499 OFFCURVE",
"426 458 OFFCURVE",
"426 297 CURVE SMOOTH",
"426 169 OFFCURVE",
"405 136 OFFCURVE",
"330 136 CURVE SMOOTH",
"249 136 OFFCURVE",
"227 177 OFFCURVE",
"227 339 CURVE SMOOTH",
"227 466 OFFCURVE",
"248 499 OFFCURVE",
"323 499 CURVE SMOOTH"
);
},
{
closed = 1;
nodes = (
"442 1084 LINE",
"421 1057 OFFCURVE",
"403 1031 OFFCURVE",
"380 1031 CURVE SMOOTH",
"356 1031 OFFCURVE",
"288 1055 OFFCURVE",
"240 1062 CURVE",
"226 1056 LINE",
"152 954 LINE",
"152 939 LINE",
"204 889 LINE",
"219 889 LINE",
"240 915 OFFCURVE",
"258 942 OFFCURVE",
"281 942 CURVE SMOOTH",
"305 942 OFFCURVE",
"373 917 OFFCURVE",
"420 911 CURVE",
"435 916 LINE",
"509 1019 LINE",
"509 1034 LINE",
"457 1084 LINE"
);
},
{
closed = 1;
nodes = (
"208 701 LINE",
"247 721 OFFCURVE",
"287 741 OFFCURVE",
"326 761 CURVE",
"365 741 OFFCURVE",
"405 721 OFFCURVE",
"444 701 CURVE",
"462 701 LINE",
"496 777 LINE",
"439 816 OFFCURVE",
"388 855 OFFCURVE",
"343 896 CURVE",
"309 896 LINE",
"264 855 OFFCURVE",
"213 816 OFFCURVE",
"156 777 CURVE",
"190 701 LINE"
);
}
);
};
components = (
{
name = O;
},
{
name = circumflexcomb_tildecomb;
transform = "{1, 0, 0, 1, 151, 175}";
}
);
layerId = "6DC2006A-28B6-4A13-A5DF-3641E0854074";
width = 658;
}
);
leftKerningGroup = O;
rightKerningGroup = O;
unicode = 1ED6;
},
{
color = 10;
glyphname = Odieresis;
layers = (
{
background = {
paths = (
{
closed = 1;
nodes = (
"135 659 OFFCURVE",
"17 533 OFFCURVE",
"17 312 CURVE SMOOTH",
"17 106 OFFCURVE",
"124 -12 OFFCURVE",
"312 -12 CURVE SMOOTH",
"518 -12 OFFCURVE",
"636 116 OFFCURVE",
"636 340 CURVE SMOOTH",
"636 543 OFFCURVE",
"529 659 OFFCURVE",
"341 659 CURVE SMOOTH"
);
},
{
closed = 1;
nodes = (
"404 499 OFFCURVE",
"426 458 OFFCURVE",
"426 297 CURVE SMOOTH",
"426 169 OFFCURVE",
"405 136 OFFCURVE",
"330 136 CURVE SMOOTH",
"249 136 OFFCURVE",
"227 177 OFFCURVE",
"227 339 CURVE SMOOTH",
"227 466 OFFCURVE",
"248 499 OFFCURVE",
"323 499 CURVE SMOOTH"
);
},
{
closed = 1;
nodes = (
"373 892 OFFCURVE",
"339 858 OFFCURVE",
"339 802 CURVE SMOOTH",
"339 749 OFFCURVE",
"368 719 OFFCURVE",
"421 719 CURVE SMOOTH",
"475 719 OFFCURVE",
"509 754 OFFCURVE",
"509 810 CURVE SMOOTH",
"509 862 OFFCURVE",
"479 892 OFFCURVE",
"428 892 CURVE SMOOTH"
);
},
{
closed = 1;
nodes = (
"180 892 OFFCURVE",
"146 858 OFFCURVE",
"146 802 CURVE SMOOTH",
"146 749 OFFCURVE",
"175 719 OFFCURVE",
"228 719 CURVE SMOOTH",
"282 719 OFFCURVE",
"316 754 OFFCURVE",
"316 810 CURVE SMOOTH",
"316 862 OFFCURVE",
"286 892 OFFCURVE",
"235 892 CURVE SMOOTH"
);
}
);
};
components = (
{
name = O;
},
{
name = dieresiscomb;
transform = "{1, 0, 0, 1, 154, 175}";
}
);
layerId = "6DC2006A-28B6-4A13-A5DF-3641E0854074";
width = 658;
}
);
leftKerningGroup = O;
rightKerningGroup = O;
unicode = 00D6;
},
{
color = 10;
glyphname = Odotbelow;
layers = (
{
anchors = (
{
name = top;
position = "{379, 647}";
}
);
background = {
paths = (
{
closed = 1;
nodes = (
"135 659 OFFCURVE",
"17 533 OFFCURVE",
"17 312 CURVE SMOOTH",
"17 106 OFFCURVE",
"124 -12 OFFCURVE",
"312 -12 CURVE SMOOTH",
"518 -12 OFFCURVE",
"636 116 OFFCURVE",
"636 340 CURVE SMOOTH",
"636 543 OFFCURVE",
"529 659 OFFCURVE",
"341 659 CURVE SMOOTH"
);
},
{
closed = 1;
nodes = (
"404 499 OFFCURVE",
"426 458 OFFCURVE",
"426 297 CURVE SMOOTH",
"426 169 OFFCURVE",
"405 136 OFFCURVE",
"330 136 CURVE SMOOTH",
"249 136 OFFCURVE",
"227 177 OFFCURVE",
"227 339 CURVE SMOOTH",
"227 466 OFFCURVE",
"248 499 OFFCURVE",
"323 499 CURVE SMOOTH"
);
},
{
closed = 1;
nodes = (
"273 -32 OFFCURVE",
"234 -72 OFFCURVE",
"234 -136 CURVE SMOOTH",
"234 -197 OFFCURVE",
"267 -231 OFFCURVE",
"328 -231 CURVE SMOOTH",
"390 -231 OFFCURVE",
"429 -191 OFFCURVE",
"429 -127 CURVE SMOOTH",
"429 -67 OFFCURVE",
"395 -32 OFFCURVE",
"336 -32 CURVE SMOOTH"
);
}
);
};
components = (
{
name = O;
},
{
name = dotbelowcomb;
transform = "{1, 0, 0, 1, 216, 0}";
}
);
layerId = "6DC2006A-28B6-4A13-A5DF-3641E0854074";
width = 658;
}
);
leftKerningGroup = O;
rightKerningGroup = O;
unicode = 1ECC;
},
{
color = 10;
glyphname = Ograve;
layers = (
{
background = {
paths = (
{
closed = 1;
nodes = (
"135 659 OFFCURVE",
"17 533 OFFCURVE",
"17 312 CURVE SMOOTH",
"17 106 OFFCURVE",
"124 -12 OFFCURVE",
"312 -12 CURVE SMOOTH",
"518 -12 OFFCURVE",
"636 116 OFFCURVE",
"636 340 CURVE SMOOTH",
"636 543 OFFCURVE",
"529 659 OFFCURVE",
"341 659 CURVE SMOOTH"
);
},
{
closed = 1;
nodes = (
"404 499 OFFCURVE",
"426 458 OFFCURVE",
"426 297 CURVE SMOOTH",
"426 169 OFFCURVE",
"405 136 OFFCURVE",
"330 136 CURVE SMOOTH",
"249 136 OFFCURVE",
"227 177 OFFCURVE",
"227 339 CURVE SMOOTH",
"227 466 OFFCURVE",
"248 499 OFFCURVE",
"323 499 CURVE SMOOTH"
);
},
{
closed = 1;
nodes = (
"234 914 LINE",
"185 797 LINE",
"191 781 LINE",
"277 754 OFFCURVE",
"352 732 OFFCURVE",
"429 712 CURVE",
"446 716 LINE",
"476 795 LINE",
"393 837 OFFCURVE",
"322 876 OFFCURVE",
"251 918 CURVE"
);
}
);
};
components = (
{
name = O;
},
{
name = gravecomb.case;
transform = "{1, 0, 0, 1, 126, 175}";
}
);
layerId = "6DC2006A-28B6-4A13-A5DF-3641E0854074";
width = 658;
}
);
leftKerningGroup = O;
rightKerningGroup = O;
unicode = 00D2;
},
{
color = 10;
glyphname = Ohookabove;
layers = (
{
background = {
paths = (
{
closed = 1;
nodes = (
"135 659 OFFCURVE",
"17 533 OFFCURVE",
"17 312 CURVE SMOOTH",
"17 106 OFFCURVE",
"124 -12 OFFCURVE",
"312 -12 CURVE SMOOTH",
"518 -12 OFFCURVE",
"636 116 OFFCURVE",
"636 340 CURVE SMOOTH",
"636 543 OFFCURVE",
"529 659 OFFCURVE",
"341 659 CURVE SMOOTH"
);
},
{
closed = 1;
nodes = (
"404 499 OFFCURVE",
"426 458 OFFCURVE",
"426 297 CURVE SMOOTH",
"426 169 OFFCURVE",
"405 136 OFFCURVE",
"330 136 CURVE SMOOTH",
"249 136 OFFCURVE",
"227 177 OFFCURVE",
"227 339 CURVE SMOOTH",
"227 466 OFFCURVE",
"248 499 OFFCURVE",
"323 499 CURVE SMOOTH"
);
},
{
closed = 1;
nodes = (
"267 948 OFFCURVE",
"220 924 OFFCURVE",
"186 887 CURVE",
"215 840 LINE",
"236 856 OFFCURVE",
"264 866 OFFCURVE",
"285 866 CURVE SMOOTH",
"302 866 OFFCURVE",
"315 859 OFFCURVE",
"315 842 CURVE SMOOTH",
"315 821 OFFCURVE",
"295 790 OFFCURVE",
"261 766 CURVE",
"315 686 LINE",
"379 725 LINE",
"352 768 LINE",
"399 810 OFFCURVE",
"413 831 OFFCURVE",
"413 860 CURVE SMOOTH",
"413 913 OFFCURVE",
"369 948 OFFCURVE",
"313 948 CURVE SMOOTH"
);
}
);
};
components = (
{
name = O;
},
{
name = hookabovecomb;
transform = "{1, 0, 0, 1, 164, 175}";
}
);
layerId = "6DC2006A-28B6-4A13-A5DF-3641E0854074";
width = 658;
}
);
leftKerningGroup = O;
rightKerningGroup = O;
unicode = 1ECE;
},
{
color = 1;
glyphname = Ohorn;
layers = (
{
anchors = (
{
name = top;
position = "{379, 647}";
}
);
background = {
paths = (
{
closed = 1;
nodes = (
"150 659 OFFCURVE",
"24 498 OFFCURVE",
"24 276 CURVE SMOOTH",
"24 78 OFFCURVE",
"129 -12 OFFCURVE",
"299 -12 CURVE SMOOTH",
"529 -12 OFFCURVE",
"655 152 OFFCURVE",
"655 374 CURVE SMOOTH",
"655 571 OFFCURVE",
"550 659 OFFCURVE",
"380 659 CURVE SMOOTH"
);
},
{
closed = 1;
nodes = (
"428 499 OFFCURVE",
"443 464 OFFCURVE",
"443 362 CURVE SMOOTH",
"443 170 OFFCURVE",
"390 136 OFFCURVE",
"320 136 CURVE SMOOTH",
"249 136 OFFCURVE",
"234 171 OFFCURVE",
"234 273 CURVE SMOOTH",
"234 465 OFFCURVE",
"287 499 OFFCURVE",
"357 499 CURVE SMOOTH"
);
}
);
};
layerId = "6DC2006A-28B6-4A13-A5DF-3641E0854074";
paths = (
{
closed = 1;
nodes = (
"649 789 OFFCURVE",
"612 770 OFFCURVE",
"585 752 CURVE",
"580 738 LINE",
"594 724 OFFCURVE",
"602 703 OFFCURVE",
"602 682 CURVE SMOOTH",
"602 651 OFFCURVE",
"585 631 OFFCURVE",
"550 631 CURVE SMOOTH",
"509 631 OFFCURVE",
"460 659 OFFCURVE",
"373 659 CURVE SMOOTH",
"173 659 OFFCURVE",
"24 510 OFFCURVE",
"24 277 CURVE SMOOTH",
"24 87 OFFCURVE",
"124 -12 OFFCURVE",
"298 -12 CURVE SMOOTH",
"522 -12 OFFCURVE",
"654 151 OFFCURVE",
"654 381 CURVE SMOOTH",
"654 450 OFFCURVE",
"642 500 OFFCURVE",
"617 545 CURVE",
"696 563 OFFCURVE",
"755 625 OFFCURVE",
"755 700 CURVE SMOOTH",
"755 753 OFFCURVE",
"726 789 OFFCURVE",
"682 789 CURVE SMOOTH"
);
},
{
closed = 1;
nodes = (
"432 499 OFFCURVE",
"444 457 OFFCURVE",
"444 364 CURVE SMOOTH",
"444 169 OFFCURVE",
"391 136 OFFCURVE",
"323 136 CURVE SMOOTH",
"247 136 OFFCURVE",
"234 176 OFFCURVE",
"234 272 CURVE SMOOTH",
"234 464 OFFCURVE",
"286 499 OFFCURVE",
"356 499 CURVE SMOOTH"
);
}
);
width = 664;
}
);
leftKerningGroup = O;
rightKerningGroup = O;
unicode = 01A0;
},
{
color = 10;
glyphname = Ohornacute;
layers = (
{
background = {
paths = (
{
closed = 1;
nodes = (
"579 789 OFFCURVE",
"544 770 OFFCURVE",
"519 752 CURVE",
"516 738 LINE",
"534 722 OFFCURVE",
"545 699 OFFCURVE",
"545 676 CURVE SMOOTH",
"545 648 OFFCURVE",
"530 631 OFFCURVE",
"499 631 CURVE SMOOTH",
"459 631 OFFCURVE",
"407 659 OFFCURVE",
"322 659 CURVE SMOOTH",
"142 659 OFFCURVE",
"17 533 OFFCURVE",
"17 311 CURVE SMOOTH",
"17 107 OFFCURVE",
"123 -12 OFFCURVE",
"315 -12 CURVE SMOOTH",
"518 -12 OFFCURVE",
"636 120 OFFCURVE",
"636 336 CURVE SMOOTH",
"636 422 OFFCURVE",
"617 491 OFFCURVE",
"579 546 CURVE",
"645 562 OFFCURVE",
"696 614 OFFCURVE",
"696 686 CURVE SMOOTH",
"696 746 OFFCURVE",
"661 789 OFFCURVE",
"612 789 CURVE SMOOTH"
);
},
{
closed = 1;
nodes = (
"403 499 OFFCURVE",
"426 458 OFFCURVE",
"426 308 CURVE SMOOTH",
"426 168 OFFCURVE",
"406 136 OFFCURVE",
"333 136 CURVE SMOOTH",
"250 136 OFFCURVE",
"227 178 OFFCURVE",
"227 328 CURVE SMOOTH",
"227 465 OFFCURVE",
"246 499 OFFCURVE",
"321 499 CURVE SMOOTH"
);
},
{
closed = 1;
nodes = (
"352 876 OFFCURVE",
"281 837 OFFCURVE",
"198 795 CURVE",
"228 716 LINE",
"245 712 LINE",
"322 732 OFFCURVE",
"397 754 OFFCURVE",
"483 781 CURVE",
"489 797 LINE",
"440 914 LINE",
"423 918 LINE"
);
}
);
};
components = (
{
name = Ohorn;
},
{
name = acutecomb.case;
transform = "{1, 0, 0, 1, 161, 175}";
}
);
layerId = "6DC2006A-28B6-4A13-A5DF-3641E0854074";
width = 664;
}
);
leftKerningGroup = O;
rightKerningGroup = O;
unicode = 1EDA;
},
{
color = 10;
glyphname = Ohorndotbelow;
layers = (
{
background = {
paths = (
{
closed = 1;
nodes = (
"579 789 OFFCURVE",
"544 770 OFFCURVE",
"519 752 CURVE",
"516 738 LINE",
"534 722 OFFCURVE",
"545 699 OFFCURVE",
"545 676 CURVE SMOOTH",
"545 648 OFFCURVE",
"530 631 OFFCURVE",
"499 631 CURVE SMOOTH",
"459 631 OFFCURVE",
"407 659 OFFCURVE",
"322 659 CURVE SMOOTH",
"142 659 OFFCURVE",
"17 533 OFFCURVE",
"17 311 CURVE SMOOTH",
"17 107 OFFCURVE",
"123 -12 OFFCURVE",
"315 -12 CURVE SMOOTH",
"518 -12 OFFCURVE",
"636 120 OFFCURVE",
"636 336 CURVE SMOOTH",
"636 422 OFFCURVE",
"617 491 OFFCURVE",
"579 546 CURVE",
"645 562 OFFCURVE",
"696 614 OFFCURVE",
"696 686 CURVE SMOOTH",
"696 746 OFFCURVE",
"661 789 OFFCURVE",
"612 789 CURVE SMOOTH"
);
},
{
closed = 1;
nodes = (
"403 499 OFFCURVE",
"426 458 OFFCURVE",
"426 308 CURVE SMOOTH",
"426 168 OFFCURVE",
"406 136 OFFCURVE",
"333 136 CURVE SMOOTH",
"250 136 OFFCURVE",
"227 178 OFFCURVE",
"227 328 CURVE SMOOTH",
"227 465 OFFCURVE",
"246 499 OFFCURVE",
"321 499 CURVE SMOOTH"
);
},
{
closed = 1;
nodes = (
"273 -32 OFFCURVE",
"234 -72 OFFCURVE",
"234 -136 CURVE SMOOTH",
"234 -197 OFFCURVE",
"267 -231 OFFCURVE",
"328 -231 CURVE SMOOTH",
"390 -231 OFFCURVE",
"429 -191 OFFCURVE",
"429 -127 CURVE SMOOTH",
"429 -67 OFFCURVE",
"395 -32 OFFCURVE",
"336 -32 CURVE SMOOTH"
);
}
);
};
components = (
{
name = Ohorn;
},
{
name = dotbelowcomb;
transform = "{1, 0, 0, 1, 162, 0}";
}
);
layerId = "6DC2006A-28B6-4A13-A5DF-3641E0854074";
width = 664;
}
);
leftKerningGroup = O;
rightKerningGroup = O;
unicode = 1EE2;
},
{
color = 10;
glyphname = Ohorngrave;
layers = (
{
background = {
paths = (
{
closed = 1;
nodes = (
"579 789 OFFCURVE",
"544 770 OFFCURVE",
"519 752 CURVE",
"516 738 LINE",
"534 722 OFFCURVE",
"545 699 OFFCURVE",
"545 676 CURVE SMOOTH",
"545 648 OFFCURVE",
"530 631 OFFCURVE",
"499 631 CURVE SMOOTH",
"459 631 OFFCURVE",
"407 659 OFFCURVE",
"322 659 CURVE SMOOTH",
"142 659 OFFCURVE",
"17 533 OFFCURVE",
"17 311 CURVE SMOOTH",
"17 107 OFFCURVE",
"123 -12 OFFCURVE",
"315 -12 CURVE SMOOTH",
"518 -12 OFFCURVE",
"636 120 OFFCURVE",
"636 336 CURVE SMOOTH",
"636 422 OFFCURVE",
"617 491 OFFCURVE",
"579 546 CURVE",
"645 562 OFFCURVE",
"696 614 OFFCURVE",
"696 686 CURVE SMOOTH",
"696 746 OFFCURVE",
"661 789 OFFCURVE",
"612 789 CURVE SMOOTH"
);
},
{
closed = 1;
nodes = (
"403 499 OFFCURVE",
"426 458 OFFCURVE",
"426 308 CURVE SMOOTH",
"426 168 OFFCURVE",
"406 136 OFFCURVE",
"333 136 CURVE SMOOTH",
"250 136 OFFCURVE",
"227 178 OFFCURVE",
"227 328 CURVE SMOOTH",
"227 465 OFFCURVE",
"246 499 OFFCURVE",
"321 499 CURVE SMOOTH"
);
},
{
closed = 1;
nodes = (
"234 914 LINE",
"185 797 LINE",
"191 781 LINE",
"277 754 OFFCURVE",
"352 732 OFFCURVE",
"429 712 CURVE",
"446 716 LINE",
"476 795 LINE",
"393 837 OFFCURVE",
"322 876 OFFCURVE",
"251 918 CURVE"
);
}
);
};
components = (
{
name = Ohorn;
},
{
name = gravecomb.case;
transform = "{1, 0, 0, 1, 126, 175}";
}
);
layerId = "6DC2006A-28B6-4A13-A5DF-3641E0854074";
width = 664;
}
);
leftKerningGroup = O;
rightKerningGroup = O;
unicode = 1EDC;
},
{
color = 10;
glyphname = Ohornhookabove;
layers = (
{
background = {
paths = (
{
closed = 1;
nodes = (
"579 789 OFFCURVE",
"544 770 OFFCURVE",
"519 752 CURVE",
"516 738 LINE",
"534 722 OFFCURVE",
"545 699 OFFCURVE",
"545 676 CURVE SMOOTH",
"545 648 OFFCURVE",
"530 631 OFFCURVE",
"499 631 CURVE SMOOTH",
"459 631 OFFCURVE",
"407 659 OFFCURVE",
"322 659 CURVE SMOOTH",
"142 659 OFFCURVE",
"17 533 OFFCURVE",
"17 311 CURVE SMOOTH",
"17 107 OFFCURVE",
"123 -12 OFFCURVE",
"315 -12 CURVE SMOOTH",
"518 -12 OFFCURVE",
"636 120 OFFCURVE",
"636 336 CURVE SMOOTH",
"636 422 OFFCURVE",
"617 491 OFFCURVE",
"579 546 CURVE",
"645 562 OFFCURVE",
"696 614 OFFCURVE",
"696 686 CURVE SMOOTH",
"696 746 OFFCURVE",
"661 789 OFFCURVE",
"612 789 CURVE SMOOTH"
);
},
{
closed = 1;
nodes = (
"403 499 OFFCURVE",
"426 458 OFFCURVE",
"426 308 CURVE SMOOTH",
"426 168 OFFCURVE",
"406 136 OFFCURVE",
"333 136 CURVE SMOOTH",
"250 136 OFFCURVE",
"227 178 OFFCURVE",
"227 328 CURVE SMOOTH",
"227 465 OFFCURVE",
"246 499 OFFCURVE",
"321 499 CURVE SMOOTH"
);
},
{
closed = 1;
nodes = (
"267 948 OFFCURVE",
"220 924 OFFCURVE",
"186 887 CURVE",
"215 840 LINE",
"236 856 OFFCURVE",
"264 866 OFFCURVE",
"285 866 CURVE SMOOTH",
"302 866 OFFCURVE",
"315 859 OFFCURVE",
"315 842 CURVE SMOOTH",
"315 821 OFFCURVE",
"295 790 OFFCURVE",
"261 766 CURVE",
"315 686 LINE",
"379 725 LINE",
"352 768 LINE",
"399 810 OFFCURVE",
"413 831 OFFCURVE",
"413 860 CURVE SMOOTH",
"413 913 OFFCURVE",
"369 948 OFFCURVE",
"313 948 CURVE SMOOTH"
);
}
);
};
components = (
{
name = Ohorn;
},
{
name = hookabovecomb;
transform = "{1, 0, 0, 1, 164, 175}";
}
);
layerId = "6DC2006A-28B6-4A13-A5DF-3641E0854074";
width = 664;
}
);
leftKerningGroup = O;
rightKerningGroup = O;
unicode = 1EDE;
},
{
color = 10;
glyphname = Ohorntilde;
layers = (
{
background = {
paths = (
{
closed = 1;
nodes = (
"579 789 OFFCURVE",
"544 770 OFFCURVE",
"519 752 CURVE",
"516 738 LINE",
"534 722 OFFCURVE",
"545 699 OFFCURVE",
"545 676 CURVE SMOOTH",
"545 648 OFFCURVE",
"530 631 OFFCURVE",
"499 631 CURVE SMOOTH",
"459 631 OFFCURVE",
"407 659 OFFCURVE",
"322 659 CURVE SMOOTH",
"142 659 OFFCURVE",
"17 533 OFFCURVE",
"17 311 CURVE SMOOTH",
"17 107 OFFCURVE",
"123 -12 OFFCURVE",
"315 -12 CURVE SMOOTH",
"518 -12 OFFCURVE",
"636 120 OFFCURVE",
"636 336 CURVE SMOOTH",
"636 422 OFFCURVE",
"617 491 OFFCURVE",
"579 546 CURVE",
"645 562 OFFCURVE",
"696 614 OFFCURVE",
"696 686 CURVE SMOOTH",
"696 746 OFFCURVE",
"661 789 OFFCURVE",
"612 789 CURVE SMOOTH"
);
},
{
closed = 1;
nodes = (
"403 499 OFFCURVE",
"426 458 OFFCURVE",
"426 308 CURVE SMOOTH",
"426 168 OFFCURVE",
"406 136 OFFCURVE",
"333 136 CURVE SMOOTH",
"250 136 OFFCURVE",
"227 178 OFFCURVE",
"227 328 CURVE SMOOTH",
"227 465 OFFCURVE",
"246 499 OFFCURVE",
"321 499 CURVE SMOOTH"
);
},
{
closed = 1;
nodes = (
"449 916 LINE",
"426 887 OFFCURVE",
"406 858 OFFCURVE",
"380 858 CURVE SMOOTH",
"354 858 OFFCURVE",
"279 885 OFFCURVE",
"227 892 CURVE",
"211 886 LINE",
"130 773 LINE",
"130 757 LINE",
"187 702 LINE",
"203 702 LINE",
"226 731 OFFCURVE",
"246 760 OFFCURVE",
"272 760 CURVE SMOOTH",
"298 760 OFFCURVE",
"373 733 OFFCURVE",
"425 726 CURVE",
"441 732 LINE",
"522 845 LINE",
"522 861 LINE",
"465 916 LINE"
);
}
);
};
components = (
{
name = Ohorn;
},
{
name = tilde;
transform = "{1, 0, 0, 1, 162, 175}";
}
);
layerId = "6DC2006A-28B6-4A13-A5DF-3641E0854074";
width = 664;
}
);
leftKerningGroup = O;
rightKerningGroup = O;
unicode = 1EE0;
},
{
color = 10;
glyphname = Ohungarumlaut;
layers = (
{
background = {
paths = (
{
closed = 1;
nodes = (
"135 659 OFFCURVE",
"17 533 OFFCURVE",
"17 312 CURVE SMOOTH",
"17 106 OFFCURVE",
"124 -12 OFFCURVE",
"312 -12 CURVE SMOOTH",
"518 -12 OFFCURVE",
"636 116 OFFCURVE",
"636 340 CURVE SMOOTH",
"636 543 OFFCURVE",
"529 659 OFFCURVE",
"341 659 CURVE SMOOTH"
);
},
{
closed = 1;
nodes = (
"404 499 OFFCURVE",
"426 458 OFFCURVE",
"426 297 CURVE SMOOTH",
"426 169 OFFCURVE",
"405 136 OFFCURVE",
"330 136 CURVE SMOOTH",
"249 136 OFFCURVE",
"227 177 OFFCURVE",
"227 339 CURVE SMOOTH",
"227 466 OFFCURVE",
"248 499 OFFCURVE",
"323 499 CURVE SMOOTH"
);
},
{
closed = 1;
nodes = (
"389 711 LINE",
"404 716 LINE",
"449 755 OFFCURVE",
"493 796 OFFCURVE",
"536 838 CURVE",
"533 852 LINE",
"442 910 LINE",
"429 906 LINE",
"397 855 OFFCURVE",
"363 806 OFFCURVE",
"330 757 CURVE"
);
},
{
closed = 1;
nodes = (
"220 711 LINE",
"236 716 LINE",
"281 755 OFFCURVE",
"325 796 OFFCURVE",
"367 838 CURVE",
"364 852 LINE",
"274 910 LINE",
"260 906 LINE",
"229 855 OFFCURVE",
"195 806 OFFCURVE",
"161 757 CURVE"
);
}
);
};
components = (
{
name = O;
},
{
name = hungarumlautcomb.case;
transform = "{1, 0, 0, 1, 184, 175}";
}
);
layerId = "6DC2006A-28B6-4A13-A5DF-3641E0854074";
width = 658;
}
);
leftKerningGroup = O;
rightKerningGroup = O;
unicode = 0150;
},
{
color = 10;
glyphname = Omacron;
layers = (
{
background = {
paths = (
{
closed = 1;
nodes = (
"135 659 OFFCURVE",
"17 533 OFFCURVE",
"17 312 CURVE SMOOTH",
"17 106 OFFCURVE",
"124 -12 OFFCURVE",
"312 -12 CURVE SMOOTH",
"518 -12 OFFCURVE",
"636 116 OFFCURVE",
"636 340 CURVE SMOOTH",
"636 543 OFFCURVE",
"529 659 OFFCURVE",
"341 659 CURVE SMOOTH"
);
},
{
closed = 1;
nodes = (
"404 499 OFFCURVE",
"426 458 OFFCURVE",
"426 297 CURVE SMOOTH",
"426 169 OFFCURVE",
"405 136 OFFCURVE",
"330 136 CURVE SMOOTH",
"249 136 OFFCURVE",
"227 177 OFFCURVE",
"227 339 CURVE SMOOTH",
"227 466 OFFCURVE",
"248 499 OFFCURVE",
"323 499 CURVE SMOOTH"
);
},
{
closed = 1;
nodes = (
"188 866 LINE",
"179 759 LINE",
"191 746 LINE",
"467 746 LINE",
"476 853 LINE",
"464 866 LINE"
);
}
);
};
components = (
{
name = O;
},
{
name = macroncomb.case;
transform = "{1, 0, 0, 1, 155, 175}";
}
);
layerId = "6DC2006A-28B6-4A13-A5DF-3641E0854074";
width = 658;
}
);
leftKerningGroup = O;
rightKerningGroup = O;
unicode = 014C;
},
{
color = 10;
glyphname = Oogonek;
layers = (
{
background = {
paths = (
{
closed = 1;
nodes = (
"135 659 OFFCURVE",
"17 533 OFFCURVE",
"17 312 CURVE SMOOTH",
"17 106 OFFCURVE",
"124 -12 OFFCURVE",
"312 -12 CURVE SMOOTH",
"518 -12 OFFCURVE",
"636 116 OFFCURVE",
"636 340 CURVE SMOOTH",
"636 543 OFFCURVE",
"529 659 OFFCURVE",
"341 659 CURVE SMOOTH"
);
},
{
closed = 1;
nodes = (
"404 499 OFFCURVE",
"426 458 OFFCURVE",
"426 297 CURVE SMOOTH",
"426 169 OFFCURVE",
"405 136 OFFCURVE",
"330 136 CURVE SMOOTH",
"249 136 OFFCURVE",
"227 177 OFFCURVE",
"227 339 CURVE SMOOTH",
"227 466 OFFCURVE",
"248 499 OFFCURVE",
"323 499 CURVE SMOOTH"
);
},
{
closed = 1;
nodes = (
"362 82 LINE",
"294 -9 LINE SMOOTH",
"271 -40 OFFCURVE",
"261 -71 OFFCURVE",
"261 -100 CURVE SMOOTH",
"261 -154 OFFCURVE",
"300 -197 OFFCURVE",
"365 -197 CURVE SMOOTH",
"402 -197 OFFCURVE",
"434 -183 OFFCURVE",
"476 -151 CURVE",
"464 -79 LINE",
"454 -79 LINE",
"433 -92 OFFCURVE",
"411 -99 OFFCURVE",
"393 -99 CURVE SMOOTH",
"368 -99 OFFCURVE",
"357 -85 OFFCURVE",
"357 -66 CURVE SMOOTH",
"357 -52 OFFCURVE",
"363 -37 OFFCURVE",
"373 -22 CURVE SMOOTH",
"442 82 LINE"
);
}
);
};
components = (
{
name = O;
},
{
name = ogonekcomb;
transform = "{1, 0, 0, 1, 183, -33}";
}
);
layerId = "6DC2006A-28B6-4A13-A5DF-3641E0854074";
width = 658;
}
);
leftKerningGroup = O;
rightKerningGroup = O;
unicode = 01EA;
},
{
color = 0;
glyphname = Oslash;
layers = (
{
anchors = (
{
name = bottom;
position = "{300, 0}";
},
{
name = top;
position = "{349, 647}";
}
);
background = {
paths = (
{
closed = 1;
nodes = (
"466 752 LINE",
"71 -71 LINE",
"79 -88 LINE",
"183 -135 LINE",
"578 687 LINE",
"566 706 LINE"
);
},
{
closed = 1;
nodes = (
"135 659 OFFCURVE",
"17 533 OFFCURVE",
"17 312 CURVE SMOOTH",
"17 106 OFFCURVE",
"124 -12 OFFCURVE",
"312 -12 CURVE SMOOTH",
"518 -12 OFFCURVE",
"636 116 OFFCURVE",
"636 340 CURVE SMOOTH",
"636 543 OFFCURVE",
"529 659 OFFCURVE",
"341 659 CURVE SMOOTH"
);
},
{
closed = 1;
nodes = (
"404 499 OFFCURVE",
"426 458 OFFCURVE",
"426 297 CURVE SMOOTH",
"426 169 OFFCURVE",
"405 136 OFFCURVE",
"330 136 CURVE SMOOTH",
"249 136 OFFCURVE",
"227 177 OFFCURVE",
"227 339 CURVE SMOOTH",
"227 466 OFFCURVE",
"248 499 OFFCURVE",
"323 499 CURVE SMOOTH"
);
}
);
};
layerId = "6DC2006A-28B6-4A13-A5DF-3641E0854074";
paths = (
{
closed = 1;
nodes = (
"530 752 LINE",
"34 -71 LINE",
"40 -88 LINE",
"138 -135 LINE",
"634 687 LINE",
"625 706 LINE"
);
},
{
closed = 1;
nodes = (
"150 659 OFFCURVE",
"24 498 OFFCURVE",
"24 276 CURVE SMOOTH",
"24 78 OFFCURVE",
"129 -12 OFFCURVE",
"299 -12 CURVE SMOOTH",
"529 -12 OFFCURVE",
"655 152 OFFCURVE",
"655 374 CURVE SMOOTH",
"655 571 OFFCURVE",
"550 659 OFFCURVE",
"380 659 CURVE SMOOTH"
);
},
{
closed = 1;
nodes = (
"428 499 OFFCURVE",
"443 464 OFFCURVE",
"443 362 CURVE SMOOTH",
"443 170 OFFCURVE",
"390 136 OFFCURVE",
"320 136 CURVE SMOOTH",
"249 136 OFFCURVE",
"234 171 OFFCURVE",
"234 273 CURVE SMOOTH",
"234 465 OFFCURVE",
"287 499 OFFCURVE",
"357 499 CURVE SMOOTH"
);
}
);
width = 658;
},
{
anchors = (
{
name = top;
position = "{350, 637}";
}
);
associatedMasterId = UUID0;
background = {
paths = (
{
closed = 1;
nodes = (
"477 709 LINE",
"113 -80 LINE",
"115 -84 LINE",
"131 -87 LINE",
"495 701 LINE",
"493 706 LINE"
);
},
{
closed = 1;
nodes = (
"144 642 OFFCURVE",
"48 526 OFFCURVE",
"48 317 CURVE SMOOTH",
"48 110 OFFCURVE",
"141 -5 OFFCURVE",
"308 -5 CURVE SMOOTH",
"482 -5 OFFCURVE",
"579 114 OFFCURVE",
"579 329 CURVE SMOOTH",
"579 530 OFFCURVE",
"486 642 OFFCURVE",
"318 642 CURVE"
);
},
{
closed = 1;
nodes = (
"473 622 OFFCURVE",
"559 517 OFFCURVE",
"559 329 CURVE SMOOTH",
"559 127 OFFCURVE",
"469 15 OFFCURVE",
"308 15 CURVE SMOOTH",
"154 15 OFFCURVE",
"68 123 OFFCURVE",
"68 317 CURVE SMOOTH",
"68 513 OFFCURVE",
"157 622 OFFCURVE",
"318 622 CURVE SMOOTH"
);
}
);
};
layerId = "807BD614-112B-4553-BA90-B11DF487FE61";
name = "Light Italic [100]";
paths = (
{
closed = 1;
nodes = (
"155 39 LINE",
"87 -80 LINE",
"89 -84 LINE",
"104 -87 LINE",
"170 28 LINE"
);
},
{
closed = 1;
nodes = (
"491 591 LINE",
"554 701 LINE",
"553 706 LINE",
"537 709 LINE",
"476 602 LINE"
);
},
{
closed = 1;
nodes = (
"165 642 OFFCURVE",
"56 495 OFFCURVE",
"56 253 CURVE SMOOTH",
"56 89 OFFCURVE",
"130 -5 OFFCURVE",
"267 -5 CURVE SMOOTH",
"459 -5 OFFCURVE",
"568 147 OFFCURVE",
"568 391 CURVE SMOOTH",
"568 551 OFFCURVE",
"494 642 OFFCURVE",
"355 642 CURVE"
);
},
{
closed = 1;
nodes = (
"481 622 OFFCURVE",
"547 537 OFFCURVE",
"547 387 CURVE SMOOTH",
"547 159 OFFCURVE",
"445 15 OFFCURVE",
"268 15 CURVE SMOOTH",
"144 15 OFFCURVE",
"77 103 OFFCURVE",
"77 256 CURVE SMOOTH",
"77 483 OFFCURVE",
"179 622 OFFCURVE",
"354 622 CURVE SMOOTH"
);
}
);
width = 599;
},
{
anchors = (
{
name = top;
position = "{346, 642}";
}
);
associatedMasterId = "083C0576-DCB5-487A-B9F4-85809F200F55";
background = {
paths = (
{
closed = 1;
nodes = (
"470 725 LINE",
"95 -77 LINE",
"99 -85 LINE",
"151 -104 LINE",
"526 696 LINE",
"521 706 LINE"
);
},
{
closed = 1;
nodes = (
"141 648 OFFCURVE",
"37 529 OFFCURVE",
"37 315 CURVE SMOOTH",
"37 109 OFFCURVE",
"135 -8 OFFCURVE",
"310 -8 CURVE SMOOTH",
"495 -8 OFFCURVE",
"600 115 OFFCURVE",
"600 333 CURVE SMOOTH",
"600 535 OFFCURVE",
"502 648 OFFCURVE",
"327 648 CURVE"
);
},
{
closed = 1;
nodes = (
"448 577 OFFCURVE",
"511 495 OFFCURVE",
"511 318 CURVE SMOOTH",
"511 146 OFFCURVE",
"445 63 OFFCURVE",
"316 63 CURVE SMOOTH",
"188 63 OFFCURVE",
"125 147 OFFCURVE",
"125 326 CURVE SMOOTH",
"125 495 OFFCURVE",
"189 577 OFFCURVE",
"319 577 CURVE SMOOTH"
);
}
);
};
layerId = "367EEBDA-D744-4020-A187-28D1B4BB8ED8";
name = "Regular Italic [100]";
paths = (
{
closed = 1;
nodes = (
"146 75 LINE",
"58 -77 LINE",
"61 -85 LINE",
"110 -104 LINE",
"196 45 LINE"
);
},
{
closed = 1;
nodes = (
"498 565 LINE",
"574 696 LINE",
"571 706 LINE",
"522 725 LINE",
"446 594 LINE"
);
},
{
closed = 1;
nodes = (
"157 648 OFFCURVE",
"45 500 OFFCURVE",
"45 255 CURVE SMOOTH",
"45 89 OFFCURVE",
"132 -8 OFFCURVE",
"277 -8 CURVE SMOOTH",
"481 -8 OFFCURVE",
"594 145 OFFCURVE",
"594 391 CURVE SMOOTH",
"594 554 OFFCURVE",
"508 648 OFFCURVE",
"361 648 CURVE"
);
},
{
closed = 1;
nodes = (
"453 577 OFFCURVE",
"504 513 OFFCURVE",
"504 381 CURVE SMOOTH",
"504 175 OFFCURVE",
"433 63 OFFCURVE",
"285 63 CURVE SMOOTH",
"183 63 OFFCURVE",
"133 128 OFFCURVE",
"133 261 CURVE SMOOTH",
"133 465 OFFCURVE",
"201 577 OFFCURVE",
"351 577 CURVE SMOOTH"
);
}
);
width = 613;
},
{
anchors = (
{
name = top;
position = "{365, 650}";
}
);
associatedMasterId = "6DC2006A-28B6-4A13-A5DF-3641E0854074";
background = {
paths = (
{
closed = 1;
nodes = (
"466 752 LINE",
"71 -71 LINE",
"79 -88 LINE",
"183 -135 LINE",
"578 687 LINE",
"566 706 LINE"
);
},
{
closed = 1;
nodes = (
"135 659 OFFCURVE",
"17 533 OFFCURVE",
"17 312 CURVE SMOOTH",
"17 106 OFFCURVE",
"124 -12 OFFCURVE",
"312 -12 CURVE SMOOTH",
"518 -12 OFFCURVE",
"636 116 OFFCURVE",
"636 340 CURVE SMOOTH",
"636 543 OFFCURVE",
"529 659 OFFCURVE",
"341 659 CURVE SMOOTH"
);
},
{
closed = 1;
nodes = (
"404 499 OFFCURVE",
"426 458 OFFCURVE",
"426 297 CURVE SMOOTH",
"426 169 OFFCURVE",
"405 136 OFFCURVE",
"330 136 CURVE SMOOTH",
"249 136 OFFCURVE",
"227 177 OFFCURVE",
"227 339 CURVE SMOOTH",
"227 466 OFFCURVE",
"248 499 OFFCURVE",
"323 499 CURVE SMOOTH"
);
}
);
};
layerId = "BC590384-9D49-4E60-9A15-889442D00878";
name = "Bold Italic [100]";
paths = (
{
closed = 1;
nodes = (
"157 133 LINE",
"34 -71 LINE",
"40 -88 LINE",
"138 -135 LINE",
"259 65 LINE"
);
},
{
closed = 1;
nodes = (
"525 506 LINE",
"634 687 LINE",
"625 706 LINE",
"530 752 LINE",
"423 574 LINE"
);
},
{
closed = 1;
nodes = (
"150 659 OFFCURVE",
"24 498 OFFCURVE",
"24 276 CURVE SMOOTH",
"24 78 OFFCURVE",
"129 -12 OFFCURVE",
"299 -12 CURVE SMOOTH",
"529 -12 OFFCURVE",
"655 152 OFFCURVE",
"655 374 CURVE SMOOTH",
"655 571 OFFCURVE",
"550 659 OFFCURVE",
"380 659 CURVE SMOOTH"
);
},
{
closed = 1;
nodes = (
"428 499 OFFCURVE",
"443 464 OFFCURVE",
"443 362 CURVE SMOOTH",
"443 170 OFFCURVE",
"390 136 OFFCURVE",
"320 136 CURVE SMOOTH",
"249 136 OFFCURVE",
"234 171 OFFCURVE",
"234 273 CURVE SMOOTH",
"234 465 OFFCURVE",
"287 499 OFFCURVE",
"357 499 CURVE SMOOTH"
);
}
);
width = 658;
}
);
leftKerningGroup = O;
rightKerningGroup = O;
unicode = 00D8;
},
{
color = 10;
glyphname = Oslashacute;
layers = (
{
background = {
paths = (
{
closed = 1;
nodes = (
"466 752 LINE",
"71 -71 LINE",
"79 -88 LINE",
"183 -135 LINE",
"578 687 LINE",
"566 706 LINE"
);
},
{
closed = 1;
nodes = (
"135 659 OFFCURVE",
"17 533 OFFCURVE",
"17 312 CURVE SMOOTH",
"17 106 OFFCURVE",
"124 -12 OFFCURVE",
"312 -12 CURVE SMOOTH",
"518 -12 OFFCURVE",
"636 116 OFFCURVE",
"636 340 CURVE SMOOTH",
"636 543 OFFCURVE",
"529 659 OFFCURVE",
"341 659 CURVE SMOOTH"
);
},
{
closed = 1;
nodes = (
"404 499 OFFCURVE",
"426 458 OFFCURVE",
"426 297 CURVE SMOOTH",
"426 169 OFFCURVE",
"405 136 OFFCURVE",
"330 136 CURVE SMOOTH",
"249 136 OFFCURVE",
"227 177 OFFCURVE",
"227 339 CURVE SMOOTH",
"227 466 OFFCURVE",
"248 499 OFFCURVE",
"323 499 CURVE SMOOTH"
);
},
{
closed = 1;
nodes = (
"352 879 OFFCURVE",
"281 840 OFFCURVE",
"198 798 CURVE",
"228 719 LINE",
"245 715 LINE",
"322 735 OFFCURVE",
"397 757 OFFCURVE",
"483 784 CURVE",
"489 800 LINE",
"440 917 LINE",
"423 921 LINE"
);
}
);
};
components = (
{
name = Oslash;
},
{
name = acutecomb.case;
transform = "{1, 0, 0, 1, 131, 175}";
}
);
layerId = "6DC2006A-28B6-4A13-A5DF-3641E0854074";
width = 658;
}
);
leftKerningGroup = O;
rightKerningGroup = O;
unicode = 01FE;
},
{
color = 10;
glyphname = Otilde;
layers = (
{
background = {
paths = (
{
closed = 1;
nodes = (
"135 659 OFFCURVE",
"17 533 OFFCURVE",
"17 312 CURVE SMOOTH",
"17 106 OFFCURVE",
"124 -12 OFFCURVE",
"312 -12 CURVE SMOOTH",
"518 -12 OFFCURVE",
"636 116 OFFCURVE",
"636 340 CURVE SMOOTH",
"636 543 OFFCURVE",
"529 659 OFFCURVE",
"341 659 CURVE SMOOTH"
);
},
{
closed = 1;
nodes = (
"404 499 OFFCURVE",
"426 458 OFFCURVE",
"426 297 CURVE SMOOTH",
"426 169 OFFCURVE",
"405 136 OFFCURVE",
"330 136 CURVE SMOOTH",
"249 136 OFFCURVE",
"227 177 OFFCURVE",
"227 339 CURVE SMOOTH",
"227 466 OFFCURVE",
"248 499 OFFCURVE",
"323 499 CURVE SMOOTH"
);
},
{
closed = 1;
nodes = (
"449 916 LINE",
"426 887 OFFCURVE",
"406 858 OFFCURVE",
"380 858 CURVE SMOOTH",
"354 858 OFFCURVE",
"279 885 OFFCURVE",
"227 892 CURVE",
"211 886 LINE",
"130 773 LINE",
"130 757 LINE",
"187 702 LINE",
"203 702 LINE",
"226 731 OFFCURVE",
"246 760 OFFCURVE",
"272 760 CURVE SMOOTH",
"298 760 OFFCURVE",
"373 733 OFFCURVE",
"425 726 CURVE",
"441 732 LINE",
"522 845 LINE",
"522 861 LINE",
"465 916 LINE"
);
}
);
};
components = (
{
name = O;
},
{
name = tilde;
transform = "{1, 0, 0, 1, 162, 175}";
}
);
layerId = "6DC2006A-28B6-4A13-A5DF-3641E0854074";
width = 658;
}
);
leftKerningGroup = O;
rightKerningGroup = O;
unicode = 00D5;
},
{
color = 1;
glyphname = OE;
layers = (
{
anchors = (
{
name = top;
position = "{656, 647}";
}
);
background = {
paths = (
{
closed = 1;
nodes = (
"141 659 OFFCURVE",
"17 533 OFFCURVE",
"17 313 CURVE SMOOTH",
"17 106 OFFCURVE",
"128 -12 OFFCURVE",
"322 -12 CURVE SMOOTH",
"406 -12 OFFCURVE",
"486 3 OFFCURVE",
"550 0 CURVE",
"864 0 LINE",
"876 146 LINE",
"865 160 LINE",
"699 154 LINE",
"603 154 LINE",
"601 210 LINE",
"601 248 LINE",
"692 248 LINE",
"808 245 LINE",
"820 391 LINE",
"809 405 LINE",
"705 402 LINE",
"606 402 LINE",
"608 493 LINE",
"711 493 LINE",
"870 487 LINE",
"883 633 LINE",
"872 647 LINE",
"550 647 LINE SMOOTH",
"491 647 OFFCURVE",
"427 659 OFFCURVE",
"348 659 CURVE SMOOTH"
);
},
{
closed = 1;
nodes = (
"370 499 OFFCURVE",
"391 494 OFFCURVE",
"401 483 CURVE SMOOTH",
"408 475 OFFCURVE",
"411 460 OFFCURVE",
"412 434 CURVE SMOOTH",
"417 205 LINE SMOOTH",
"418 177 OFFCURVE",
"414 160 OFFCURVE",
"405 151 CURVE SMOOTH",
"395 141 OFFCURVE",
"374 136 OFFCURVE",
"338 136 CURVE SMOOTH",
"253 136 OFFCURVE",
"227 187 OFFCURVE",
"227 330 CURVE SMOOTH",
"227 459 OFFCURVE",
"248 499 OFFCURVE",
"331 499 CURVE SMOOTH"
);
}
);
};
layerId = "6DC2006A-28B6-4A13-A5DF-3641E0854074";
paths = (
{
closed = 1;
nodes = (
"171 659 OFFCURVE",
"24 509 OFFCURVE",
"24 262 CURVE SMOOTH",
"24 88 OFFCURVE",
"120 -12 OFFCURVE",
"293 -12 CURVE SMOOTH",
"377 -12 OFFCURVE",
"459 3 OFFCURVE",
"523 0 CURVE",
"837 0 LINE",
"867 146 LINE",
"858 160 LINE",
"691 154 LINE",
"595 154 LINE",
"600 210 LINE",
"604 248 LINE",
"695 248 LINE",
"811 245 LINE",
"841 391 LINE",
"832 405 LINE",
"727 402 LINE",
"628 402 LINE",
"641 493 LINE",
"744 493 LINE",
"903 487 LINE",
"934 633 LINE",
"924 647 LINE",
"602 647 LINE SMOOTH",
"543 647 OFFCURVE",
"481 659 OFFCURVE",
"402 659 CURVE SMOOTH"
);
},
{
closed = 1;
nodes = (
"404 499 OFFCURVE",
"424 494 OFFCURVE",
"433 483 CURVE SMOOTH",
"439 475 OFFCURVE",
"440 460 OFFCURVE",
"438 434 CURVE SMOOTH",
"415 205 LINE SMOOTH",
"413 177 OFFCURVE",
"406 160 OFFCURVE",
"396 151 CURVE SMOOTH",
"385 141 OFFCURVE",
"364 136 OFFCURVE",
"328 136 CURVE SMOOTH",
"261 136 OFFCURVE",
"235 172 OFFCURVE",
"235 264 CURVE SMOOTH",
"235 459 OFFCURVE",
"282 499 OFFCURVE",
"365 499 CURVE SMOOTH"
);
}
);
width = 891;
}
);
leftKerningGroup = O;
rightKerningGroup = E;
unicode = 0152;
},
{
color = 1;
glyphname = P;
layers = (
{
background = {
paths = (
{
closed = 1;
nodes = (
"60 647 LINE",
"178 500 LINE",
"296 509 LINE",
"356 506 OFFCURVE",
"383 481 OFFCURVE",
"383 422 CURVE SMOOTH",
"383 372 OFFCURVE",
"367 343 OFFCURVE",
"331 323 CURVE",
"131 334 LINE",
"131 183 LINE",
"303 183 LINE",
"477 183 OFFCURVE",
"593 287 OFFCURVE",
"593 442 CURVE SMOOTH",
"593 574 OFFCURVE",
"512 648 OFFCURVE",
"367 648 CURVE"
);
},
{
closed = 1;
nodes = (
"60 647 LINE",
"70 190 LINE",
"60 0 LINE",
"261 0 LINE",
"253 210 LINE",
"264 647 LINE"
);
}
);
};
layerId = "6DC2006A-28B6-4A13-A5DF-3641E0854074";
paths = (
{
closed = 1;
nodes = (
"111 647 LINE",
"211 500 LINE",
"330 509 LINE",
"383 506 OFFCURVE",
"408 485 OFFCURVE",
"408 438 CURVE SMOOTH",
"408 383 OFFCURVE",
"390 348 OFFCURVE",
"342 323 CURVE",
"144 334 LINE",
"125 183 LINE",
"307 183 LINE",
"496 183 OFFCURVE",
"621 301 OFFCURVE",
"621 471 CURVE SMOOTH",
"621 584 OFFCURVE",
"540 648 OFFCURVE",
"408 648 CURVE"
);
},
{
closed = 1;
nodes = (
"111 647 LINE",
"65 190 LINE",
"32 0 LINE",
"233 0 LINE",
"251 210 LINE",
"315 647 LINE"
);
}
);
width = 594;
}
);
leftKerningGroup = H;
rightKerningGroup = P;
unicode = 0050;
},
{
color = 1;
glyphname = Thorn;
layers = (
{
background = {
paths = (
{
closed = 1;
nodes = (
"100 557 LINE",
"201 408 LINE",
"324 418 LINE",
"378 415 OFFCURVE",
"403 398 OFFCURVE",
"403 350 CURVE SMOOTH",
"403 288 OFFCURVE",
"379 262 OFFCURVE",
"337 240 CURVE",
"134 251 LINE",
"115 96 LINE",
"292 100 LINE",
"499 100 OFFCURVE",
"619 207 OFFCURVE",
"619 381 CURVE SMOOTH",
"619 499 OFFCURVE",
"546 558 OFFCURVE",
"413 558 CURVE"
);
},
{
closed = 1;
nodes = (
"111 647 LINE",
"65 190 LINE",
"31 0 LINE",
"234 0 LINE",
"252 210 LINE",
"317 647 LINE"
);
}
);
};
layerId = "6DC2006A-28B6-4A13-A5DF-3641E0854074";
paths = (
{
closed = 1;
nodes = (
"111 647 LINE",
"65 190 LINE",
"31 0 LINE",
"234 0 LINE",
"252 210 LINE",
"317 647 LINE"
);
},
{
closed = 1;
nodes = (
"117 555 LINE",
"215 411 LINE",
"332 420 LINE",
"384 417 OFFCURVE",
"408 397 OFFCURVE",
"408 351 CURVE SMOOTH",
"408 297 OFFCURVE",
"391 262 OFFCURVE",
"343 238 CURVE",
"149 249 LINE",
"131 101 LINE",
"309 101 LINE",
"494 101 OFFCURVE",
"617 216 OFFCURVE",
"617 383 CURVE SMOOTH",
"617 494 OFFCURVE",
"538 556 OFFCURVE",
"408 556 CURVE"
);
}
);
width = 604;
}
);
leftKerningGroup = H;
rightKerningGroup = Thorn;
unicode = 00DE;
},
{
color = 0;
glyphname = Q;
layers = (
{
anchors = (
{
name = bottom;
position = "{267, 0}";
},
{
name = center;
position = "{306, 319}";
},
{
name = ogonek;
position = "{352, 10}";
},
{
name = top;
position = "{345, 637}";
},
{
name = topleft;
position = "{65, 637}";
},
{
name = topright;
position = "{624, 637}";
}
);
associatedMasterId = UUID0;
background = {
paths = (
{
closed = 1;
nodes = (
"310 18 LINE",
"402 -154 OFFCURVE",
"493 -201 OFFCURVE",
"673 -195 CURVE",
"702 -54 LINE",
"692 -38 LINE",
"576 -41 OFFCURVE",
"522 -10 OFFCURVE",
"469 87 CURVE"
);
}
);
};
layerId = "44431840-910A-4AC9-8A26-1AC617743BC9";
name = "Bold Jan 28 13, 16:22";
paths = (
{
closed = 1;
nodes = (
"310 18 LINE",
"388 -95 OFFCURVE",
"482 -162 OFFCURVE",
"632 -214 CURVE",
"718 -79 LINE",
"707 -61 LINE",
"615 -30 OFFCURVE",
"550 12 OFFCURVE",
"484 74 CURVE"
);
},
{
closed = 1;
nodes = (
"160 642 OFFCURVE",
"51 495 OFFCURVE",
"51 253 CURVE SMOOTH",
"51 89 OFFCURVE",
"125 -5 OFFCURVE",
"262 -5 CURVE SMOOTH",
"454 -5 OFFCURVE",
"563 147 OFFCURVE",
"563 391 CURVE SMOOTH",
"563 551 OFFCURVE",
"489 642 OFFCURVE",
"350 642 CURVE"
);
},
{
closed = 1;
nodes = (
"476 622 OFFCURVE",
"542 537 OFFCURVE",
"542 387 CURVE SMOOTH",
"542 159 OFFCURVE",
"440 15 OFFCURVE",
"263 15 CURVE SMOOTH",
"139 15 OFFCURVE",
"72 103 OFFCURVE",
"72 256 CURVE SMOOTH",
"72 483 OFFCURVE",
"174 622 OFFCURVE",
"349 622 CURVE SMOOTH"
);
}
);
width = 659;
},
{
background = {
paths = (
{
closed = 1;
nodes = (
"135 659 OFFCURVE",
"17 533 OFFCURVE",
"17 312 CURVE SMOOTH",
"17 106 OFFCURVE",
"124 -12 OFFCURVE",
"312 -12 CURVE SMOOTH",
"518 -12 OFFCURVE",
"636 116 OFFCURVE",
"636 340 CURVE SMOOTH",
"636 543 OFFCURVE",
"529 659 OFFCURVE",
"341 659 CURVE SMOOTH"
);
},
{
closed = 1;
nodes = (
"304 9 LINE",
"401 -78 OFFCURVE",
"511 -151 OFFCURVE",
"631 -212 CURVE",
"645 -205 LINE",
"686 -169 OFFCURVE",
"716 -127 OFFCURVE",
"741 -78 CURVE",
"733 -60 LINE",
"631 -26 OFFCURVE",
"535 19 OFFCURVE",
"441 74 CURVE"
);
},
{
closed = 1;
nodes = (
"404 499 OFFCURVE",
"426 458 OFFCURVE",
"426 297 CURVE SMOOTH",
"426 169 OFFCURVE",
"405 136 OFFCURVE",
"330 136 CURVE SMOOTH",
"249 136 OFFCURVE",
"227 177 OFFCURVE",
"227 339 CURVE SMOOTH",
"227 466 OFFCURVE",
"248 499 OFFCURVE",
"323 499 CURVE SMOOTH"
);
}
);
};
layerId = "6DC2006A-28B6-4A13-A5DF-3641E0854074";
paths = (
{
closed = 1;
nodes = (
"153 659 OFFCURVE",
"24 498 OFFCURVE",
"24 276 CURVE SMOOTH",
"24 78 OFFCURVE",
"126 -12 OFFCURVE",
"296 -12 CURVE SMOOTH",
"526 -12 OFFCURVE",
"655 152 OFFCURVE",
"655 374 CURVE SMOOTH",
"655 571 OFFCURVE",
"553 659 OFFCURVE",
"383 659 CURVE SMOOTH"
);
},
{
closed = 1;
nodes = (
"278 9 LINE",
"364 -78 OFFCURVE",
"465 -151 OFFCURVE",
"578 -212 CURVE",
"593 -205 LINE",
"638 -169 OFFCURVE",
"673 -127 OFFCURVE",
"704 -78 CURVE",
"698 -60 LINE",
"600 -26 OFFCURVE",
"510 19 OFFCURVE",
"423 74 CURVE"
);
},
{
closed = 1;
nodes = (
"428 499 OFFCURVE",
"443 464 OFFCURVE",
"443 362 CURVE SMOOTH",
"443 170 OFFCURVE",
"390 136 OFFCURVE",
"320 136 CURVE SMOOTH",
"249 136 OFFCURVE",
"234 171 OFFCURVE",
"234 273 CURVE SMOOTH",
"234 465 OFFCURVE",
"287 499 OFFCURVE",
"357 499 CURVE SMOOTH"
);
}
);
width = 663;
}
);
leftKerningGroup = O;
rightKerningGroup = O;
unicode = 0051;
},
{
color = 1;
glyphname = R;
layers = (
{
anchors = (
{
name = bottom;
position = "{265, 0}";
},
{
name = top;
position = "{265, 637}";
}
);
associatedMasterId = UUID0;
background = {
paths = (
{
closed = 1;
nodes = (
"107 637 LINE",
"113 618 LINE",
"255 619 LINE",
"354 615 OFFCURVE",
"409 560 OFFCURVE",
"409 464 CURVE SMOOTH",
"409 371 OFFCURVE",
"359 306 OFFCURVE",
"269 283 CURVE",
"117 283 LINE",
"117 263 LINE",
"269 263 LINE",
"372 290 OFFCURVE",
"429 362 OFFCURVE",
"429 464 CURVE SMOOTH",
"429 577 OFFCURVE",
"364 639 OFFCURVE",
"248 639 CURVE"
);
},
{
closed = 1;
nodes = (
"107 637 LINE",
"107 195 LINE",
"107 0 LINE",
"127 0 LINE",
"127 195 LINE",
"127 637 LINE"
);
},
{
closed = 1;
nodes = (
"252 277 LINE",
"402 60 LINE",
"446 -9 LINE",
"465 1 LINE",
"465 5 LINE",
"278 276 LINE"
);
}
);
};
layerId = "1D0A72C0-2B62-465F-8484-06E437926E48";
name = "Light Jun 25 13, 08:31";
paths = (
{
closed = 1;
nodes = (
"110 637 LINE",
"116 618 LINE",
"258 619 LINE",
"357 615 OFFCURVE",
"412 560 OFFCURVE",
"412 464 CURVE SMOOTH",
"412 371 OFFCURVE",
"362 306 OFFCURVE",
"272 283 CURVE",
"120 283 LINE",
"120 263 LINE",
"272 263 LINE",
"375 290 OFFCURVE",
"432 362 OFFCURVE",
"432 464 CURVE SMOOTH",
"432 577 OFFCURVE",
"367 639 OFFCURVE",
"251 639 CURVE"
);
},
{
closed = 1;
nodes = (
"110 637 LINE",
"110 195 LINE",
"110 0 LINE",
"130 0 LINE",
"130 195 LINE",
"130 637 LINE"
);
},
{
closed = 1;
nodes = (
"255 277 LINE",
"405 60 LINE",
"449 -9 LINE",
"468 1 LINE",
"468 5 LINE",
"280 277 LINE"
);
}
);
width = 518;
},
{
anchors = (
{
name = bottom;
position = "{316, 0}";
},
{
name = top;
position = "{316, 647}";
}
);
associatedMasterId = UUID0;
background = {
paths = (
{
closed = 1;
nodes = (
"341 228 LINE",
"403 75 LINE SMOOTH",
"429 9 OFFCURVE",
"461 -16 OFFCURVE",
"517 -16 CURVE",
"672 -5 LINE",
"681 68 LINE",
"670 84 LINE",
"641 84 OFFCURVE",
"607 115 OFFCURVE",
"573 172 CURVE SMOOTH",
"511 276 LINE",
"590 323 OFFCURVE",
"631 387 OFFCURVE",
"631 465 CURVE SMOOTH",
"631 591 OFFCURVE",
"539 653 OFFCURVE",
"355 653 CURVE SMOOTH",
"355 653 OFFCURVE",
"218 647 OFFCURVE",
"170 647 CURVE SMOOTH",
"129 647 OFFCURVE",
"28 648 OFFCURVE",
"28 648 CURVE",
"17 569 LINE",
"27 557 LINE",
"27 557 OFFCURVE",
"47 559 OFFCURVE",
"62 559 CURVE SMOOTH",
"82 559 OFFCURVE",
"88 548 OFFCURVE",
"88 515 CURVE SMOOTH",
"88 168 LINE SMOOTH",
"88 112 OFFCURVE",
"72 91 OFFCURVE",
"23 83 CURVE",
"14 -9 LINE",
"14 -9 OFFCURVE",
"113 0 OFFCURVE",
"187 0 CURVE SMOOTH",
"229 0 OFFCURVE",
"351 -4 OFFCURVE",
"351 -4 CURVE",
"361 80 LINE",
"356 88 LINE",
"292 91 OFFCURVE",
"285 98 OFFCURVE",
"285 160 CURVE SMOOTH",
"285 228 LINE"
);
},
{
closed = 1;
nodes = (
"288 354 LINE",
"289 405 OFFCURVE",
"291 455 OFFCURVE",
"295 506 CURVE SMOOTH",
"296 525 OFFCURVE",
"298 528 OFFCURVE",
"312 528 CURVE SMOOTH",
"390 528 OFFCURVE",
"425 502 OFFCURVE",
"425 445 CURVE SMOOTH",
"425 388 OFFCURVE",
"409 363 OFFCURVE",
"364 344 CURVE"
);
}
);
};
layerId = "4C104F2F-6165-411B-AFA4-CACABBC298C2";
name = "Bold Jun 25 13, 08:31";
paths = (
{
closed = 1;
nodes = (
"60 647 LINE",
"178 500 LINE",
"296 509 LINE",
"357 506 OFFCURVE",
"383 482 OFFCURVE",
"383 428 CURVE SMOOTH",
"383 380 OFFCURVE",
"367 352 OFFCURVE",
"329 335 CURVE",
"131 346 LINE",
"131 193 LINE",
"351 193 LINE",
"507 227 OFFCURVE",
"594 319 OFFCURVE",
"594 448 CURVE SMOOTH",
"594 577 OFFCURVE",
"512 648 OFFCURVE",
"367 648 CURVE"
);
},
{
closed = 1;
nodes = (
"60 647 LINE",
"70 190 LINE",
"60 0 LINE",
"261 0 LINE",
"253 210 LINE",
"264 647 LINE"
);
},
{
closed = 1;
nodes = (
"282 256 LINE",
"377 80 LINE",
"413 -12 LINE",
"627 13 LINE",
"633 25 LINE",
"472 295 LINE"
);
}
);
width = 631;
},
{
anchors = (
{
name = bottom;
position = "{287, 0}";
},
{
name = top;
position = "{366, 647}";
}
);
background = {
paths = (
{
closed = 1;
nodes = (
"60 647 LINE",
"178 500 LINE",
"296 509 LINE",
"357 506 OFFCURVE",
"383 482 OFFCURVE",
"383 428 CURVE SMOOTH",
"383 380 OFFCURVE",
"367 352 OFFCURVE",
"329 335 CURVE",
"131 346 LINE",
"131 193 LINE",
"341 193 LINE",
"493 225 OFFCURVE",
"594 327 OFFCURVE",
"594 448 CURVE SMOOTH",
"594 577 OFFCURVE",
"512 648 OFFCURVE",
"367 648 CURVE"
);
},
{
closed = 1;
nodes = (
"60 647 LINE",
"70 190 LINE",
"60 0 LINE",
"261 0 LINE",
"253 210 LINE",
"264 647 LINE"
);
},
{
closed = 1;
nodes = (
"282 289 LINE",
"319 191 OFFCURVE",
"364 96 OFFCURVE",
"407 4 CURVE",
"426 -12 LINE",
"495 -8 OFFCURVE",
"562 5 OFFCURVE",
"627 25 CURVE",
"630 47 LINE",
"570 127 OFFCURVE",
"515 209 OFFCURVE",
"463 291 CURVE"
);
}
);
};
layerId = "6DC2006A-28B6-4A13-A5DF-3641E0854074";
paths = (
{
closed = 1;
nodes = (
"111 647 LINE",
"211 500 LINE",
"330 509 LINE",
"384 506 OFFCURVE",
"408 486 OFFCURVE",
"408 442 CURVE SMOOTH",
"408 390 OFFCURVE",
"391 356 OFFCURVE",
"342 335 CURVE",
"145 346 LINE",
"126 193 LINE",
"346 193 LINE",
"514 227 OFFCURVE",
"623 339 OFFCURVE",
"623 475 CURVE SMOOTH",
"623 586 OFFCURVE",
"540 648 OFFCURVE",
"408 648 CURVE"
);
},
{
closed = 1;
nodes = (
"111 647 LINE",
"65 190 LINE",
"31 0 LINE",
"232 0 LINE",
"250 210 LINE",
"315 647 LINE"
);
},
{
closed = 1;
nodes = (
"289 289 LINE",
"314 191 OFFCURVE",
"347 96 OFFCURVE",
"379 4 CURVE",
"396 -12 LINE",
"465 -8 OFFCURVE",
"534 5 OFFCURVE",
"602 25 CURVE",
"607 47 LINE",
"557 127 OFFCURVE",
"512 209 OFFCURVE",
"470 291 CURVE"
);
}
);
width = 631;
}
);
leftKerningGroup = H;
rightKerningGroup = R;
unicode = 0052;
},
{
color = 10;
glyphname = Racute;
layers = (
{
background = {
paths = (
{
closed = 1;
nodes = (
"60 647 LINE",
"178 500 LINE",
"296 509 LINE",
"357 506 OFFCURVE",
"383 482 OFFCURVE",
"383 428 CURVE SMOOTH",
"383 380 OFFCURVE",
"367 352 OFFCURVE",
"329 335 CURVE",
"131 346 LINE",
"131 193 LINE",
"341 193 LINE",
"493 225 OFFCURVE",
"594 327 OFFCURVE",
"594 448 CURVE SMOOTH",
"594 577 OFFCURVE",
"512 648 OFFCURVE",
"367 648 CURVE"
);
},
{
closed = 1;
nodes = (
"60 647 LINE",
"70 190 LINE",
"60 0 LINE",
"261 0 LINE",
"253 210 LINE",
"264 647 LINE"
);
},
{
closed = 1;
nodes = (
"282 289 LINE",
"319 191 OFFCURVE",
"364 96 OFFCURVE",
"407 4 CURVE",
"426 -12 LINE",
"495 -8 OFFCURVE",
"562 5 OFFCURVE",
"627 25 CURVE",
"630 47 LINE",
"570 127 OFFCURVE",
"515 209 OFFCURVE",
"463 291 CURVE"
);
},
{
closed = 1;
nodes = (
"330 876 OFFCURVE",
"267 825 OFFCURVE",
"192 769 CURVE",
"236 697 LINE",
"253 696 LINE",
"325 729 OFFCURVE",
"395 764 OFFCURVE",
"476 805 CURVE",
"479 822 LINE",
"410 929 LINE",
"393 930 LINE"
);
}
);
};
components = (
{
name = R;
},
{
name = acutecomb;
transform = "{1, 0, 0, 1, 148, 175}";
}
);
layerId = "6DC2006A-28B6-4A13-A5DF-3641E0854074";
width = 631;
}
);
leftKerningGroup = H;
rightKerningGroup = R;
unicode = 0154;
},
{
color = 10;
glyphname = Rcaron;
layers = (
{
background = {
paths = (
{
closed = 1;
nodes = (
"60 647 LINE",
"178 500 LINE",
"296 509 LINE",
"357 506 OFFCURVE",
"383 482 OFFCURVE",
"383 428 CURVE SMOOTH",
"383 380 OFFCURVE",
"367 352 OFFCURVE",
"329 335 CURVE",
"131 346 LINE",
"131 193 LINE",
"341 193 LINE",
"493 225 OFFCURVE",
"594 327 OFFCURVE",
"594 448 CURVE SMOOTH",
"594 577 OFFCURVE",
"512 648 OFFCURVE",
"367 648 CURVE"
);
},
{
closed = 1;
nodes = (
"60 647 LINE",
"70 190 LINE",
"60 0 LINE",
"261 0 LINE",
"253 210 LINE",
"264 647 LINE"
);
},
{
closed = 1;
nodes = (
"282 289 LINE",
"319 191 OFFCURVE",
"364 96 OFFCURVE",
"407 4 CURVE",
"426 -12 LINE",
"495 -8 OFFCURVE",
"562 5 OFFCURVE",
"627 25 CURVE",
"630 47 LINE",
"570 127 OFFCURVE",
"515 209 OFFCURVE",
"463 291 CURVE"
);
},
{
closed = 1;
nodes = (
"431 923 LINE",
"387 895 OFFCURVE",
"345 867 OFFCURVE",
"316 845 CURVE",
"287 867 OFFCURVE",
"245 895 OFFCURVE",
"201 923 CURVE",
"183 923 LINE",
"136 851 LINE",
"193 802 OFFCURVE",
"252 748 OFFCURVE",
"299 701 CURVE",
"333 701 LINE",
"389 756 OFFCURVE",
"447 810 OFFCURVE",
"496 851 CURVE",
"449 923 LINE"
);
}
);
};
components = (
{
name = R;
},
{
name = caroncomb;
transform = "{1, 0, 0, 1, 140, 175}";
}
);
layerId = "6DC2006A-28B6-4A13-A5DF-3641E0854074";
width = 631;
}
);
leftKerningGroup = H;
rightKerningGroup = R;
unicode = 0158;
},
{
color = 10;
glyphname = Rcommaaccent;
layers = (
{
background = {
paths = (
{
closed = 1;
nodes = (
"60 647 LINE",
"178 500 LINE",
"296 509 LINE",
"357 506 OFFCURVE",
"383 482 OFFCURVE",
"383 428 CURVE SMOOTH",
"383 380 OFFCURVE",
"367 352 OFFCURVE",
"329 335 CURVE",
"131 346 LINE",
"131 193 LINE",
"341 193 LINE",
"493 225 OFFCURVE",
"594 327 OFFCURVE",
"594 448 CURVE SMOOTH",
"594 577 OFFCURVE",
"512 648 OFFCURVE",
"367 648 CURVE"
);
},
{
closed = 1;
nodes = (
"60 647 LINE",
"70 190 LINE",
"60 0 LINE",
"261 0 LINE",
"253 210 LINE",
"264 647 LINE"
);
},
{
closed = 1;
nodes = (
"282 289 LINE",
"319 191 OFFCURVE",
"364 96 OFFCURVE",
"407 4 CURVE",
"426 -12 LINE",
"495 -8 OFFCURVE",
"562 5 OFFCURVE",
"627 25 CURVE",
"630 47 LINE",
"570 127 OFFCURVE",
"515 209 OFFCURVE",
"463 291 CURVE"
);
},
{
closed = 1;
nodes = (
"325 -39 OFFCURVE",
"278 -59 OFFCURVE",
"233 -84 CURVE",
"232 -100 LINE",
"255 -123 OFFCURVE",
"265 -146 OFFCURVE",
"265 -175 CURVE SMOOTH",
"265 -217 OFFCURVE",
"247 -251 OFFCURVE",
"209 -284 CURVE",
"211 -298 LINE",
"272 -351 LINE",
"376 -279 OFFCURVE",
"424 -210 OFFCURVE",
"424 -132 CURVE SMOOTH",
"424 -90 OFFCURVE",
"409 -57 OFFCURVE",
"376 -26 CURVE"
);
}
);
};
components = (
{
name = R;
},
{
name = commaaccentcomb;
transform = "{1, 0, 0, 1, 257, 0}";
}
);
layerId = "6DC2006A-28B6-4A13-A5DF-3641E0854074";
width = 631;
}
);
leftKerningGroup = H;
rightKerningGroup = R;
unicode = 0156;
},
{
color = 1;
glyphname = S;
layers = (
{
anchors = (
{
name = bottom;
position = "{236, 0}";
},
{
name = top;
position = "{319, 647}";
}
);
background = {
paths = (
{
closed = 1;
nodes = (
"146 659 OFFCURVE",
"37 564 OFFCURVE",
"37 437 CURVE SMOOTH",
"37 241 OFFCURVE",
"306 249 OFFCURVE",
"306 169 CURVE SMOOTH",
"306 153 OFFCURVE",
"294 136 OFFCURVE",
"253 136 CURVE SMOOTH",
"210 136 OFFCURVE",
"132 162 OFFCURVE",
"67 212 CURVE",
"47 200 LINE",
"18 26 LINE",
"92 1 OFFCURVE",
"164 -12 OFFCURVE",
"232 -12 CURVE SMOOTH",
"400 -12 OFFCURVE",
"505 85 OFFCURVE",
"505 206 CURVE SMOOTH",
"505 398 OFFCURVE",
"234 397 OFFCURVE",
"234 472 CURVE SMOOTH",
"234 491 OFFCURVE",
"252 505 OFFCURVE",
"284 505 CURVE SMOOTH",
"317 505 OFFCURVE",
"376 484 OFFCURVE",
"433 449 CURVE",
"461 461 LINE",
"493 624 LINE",
"424 650 OFFCURVE",
"358 659 OFFCURVE",
"305 659 CURVE SMOOTH"
);
}
);
};
layerId = "6DC2006A-28B6-4A13-A5DF-3641E0854074";
paths = (
{
closed = 1;
nodes = (
"182 659 OFFCURVE",
"59 554 OFFCURVE",
"59 420 CURVE SMOOTH",
"59 244 OFFCURVE",
"300 247 OFFCURVE",
"300 171 CURVE SMOOTH",
"300 154 OFFCURVE",
"288 136 OFFCURVE",
"245 136 CURVE SMOOTH",
"202 136 OFFCURVE",
"126 162 OFFCURVE",
"66 212 CURVE",
"45 200 LINE",
"-3 26 LINE",
"68 1 OFFCURVE",
"140 -12 OFFCURVE",
"208 -12 CURVE SMOOTH",
"386 -12 OFFCURVE",
"505 95 OFFCURVE",
"505 222 CURVE SMOOTH",
"505 396 OFFCURVE",
"261 399 OFFCURVE",
"261 470 CURVE SMOOTH",
"261 490 OFFCURVE",
"281 505 OFFCURVE",
"314 505 CURVE SMOOTH",
"347 505 OFFCURVE",
"404 484 OFFCURVE",
"457 449 CURVE",
"486 461 LINE",
"536 624 LINE",
"470 650 OFFCURVE",
"404 659 OFFCURVE",
"351 659 CURVE SMOOTH"
);
}
);
width = 529;
}
);
leftKerningGroup = S;
rightKerningGroup = S;
unicode = 0053;
},
{
color = 10;
glyphname = Sacute;
layers = (
{
background = {
paths = (
{
closed = 1;
nodes = (
"146 659 OFFCURVE",
"37 564 OFFCURVE",
"37 437 CURVE SMOOTH",
"37 241 OFFCURVE",
"306 249 OFFCURVE",
"306 169 CURVE SMOOTH",
"306 153 OFFCURVE",
"294 136 OFFCURVE",
"253 136 CURVE SMOOTH",
"210 136 OFFCURVE",
"132 162 OFFCURVE",
"67 212 CURVE",
"47 200 LINE",
"18 26 LINE",
"92 1 OFFCURVE",
"164 -12 OFFCURVE",
"232 -12 CURVE SMOOTH",
"400 -12 OFFCURVE",
"505 85 OFFCURVE",
"505 206 CURVE SMOOTH",
"505 398 OFFCURVE",
"234 397 OFFCURVE",
"234 472 CURVE SMOOTH",
"234 491 OFFCURVE",
"252 505 OFFCURVE",
"284 505 CURVE SMOOTH",
"317 505 OFFCURVE",
"376 484 OFFCURVE",
"433 449 CURVE",
"461 461 LINE",
"493 624 LINE",
"424 650 OFFCURVE",
"358 659 OFFCURVE",
"305 659 CURVE SMOOTH"
);
},
{
closed = 1;
nodes = (
"289 876 OFFCURVE",
"226 825 OFFCURVE",
"151 769 CURVE",
"195 697 LINE",
"212 696 LINE",
"284 729 OFFCURVE",
"354 764 OFFCURVE",
"435 805 CURVE",
"438 822 LINE",
"369 929 LINE",
"352 930 LINE"
);
}
);
};
components = (
{
name = S;
},
{
name = acutecomb;
transform = "{1, 0, 0, 1, 101, 175}";
}
);
layerId = "6DC2006A-28B6-4A13-A5DF-3641E0854074";
width = 529;
}
);
leftKerningGroup = S;
rightKerningGroup = S;
unicode = 015A;
},
{
color = 1;
glyphname = Saltillo;
layers = (
{
background = {
paths = (
{
closed = 0;
nodes = (
"96 153 LINE"
);
},
{
closed = 1;
nodes = (
"16 607 LINE",
"26 266 LINE",
"41 252 LINE",
"129 270 LINE",
"177 603 LINE",
"167 618 LINE"
);
}
);
};
layerId = "6DC2006A-28B6-4A13-A5DF-3641E0854074";
paths = (
{
closed = 1;
nodes = (
"60 605 LINE",
"37 264 LINE",
"51 250 LINE",
"140 268 LINE",
"221 601 LINE",
"212 616 LINE"
);
},
{
closed = 0;
nodes = (
"93 153 LINE"
);
}
);
width = 189.88;
}
);
leftKerningGroup = asterisk;
rightKerningGroup = asterisk;
unicode = A78B;
},
{
color = 10;
glyphname = Scaron;
layers = (
{
background = {
paths = (
{
closed = 1;
nodes = (
"146 659 OFFCURVE",
"37 564 OFFCURVE",
"37 437 CURVE SMOOTH",
"37 241 OFFCURVE",
"306 249 OFFCURVE",
"306 169 CURVE SMOOTH",
"306 153 OFFCURVE",
"294 136 OFFCURVE",
"253 136 CURVE SMOOTH",
"210 136 OFFCURVE",
"132 162 OFFCURVE",
"67 212 CURVE",
"47 200 LINE",
"18 26 LINE",
"92 1 OFFCURVE",
"164 -12 OFFCURVE",
"232 -12 CURVE SMOOTH",
"400 -12 OFFCURVE",
"505 85 OFFCURVE",
"505 206 CURVE SMOOTH",
"505 398 OFFCURVE",
"234 397 OFFCURVE",
"234 472 CURVE SMOOTH",
"234 491 OFFCURVE",
"252 505 OFFCURVE",
"284 505 CURVE SMOOTH",
"317 505 OFFCURVE",
"376 484 OFFCURVE",
"433 449 CURVE",
"461 461 LINE",
"493 624 LINE",
"424 650 OFFCURVE",
"358 659 OFFCURVE",
"305 659 CURVE SMOOTH"
);
},
{
closed = 1;
nodes = (
"390 923 LINE",
"346 895 OFFCURVE",
"304 867 OFFCURVE",
"275 845 CURVE",
"246 867 OFFCURVE",
"204 895 OFFCURVE",
"160 923 CURVE",
"142 923 LINE",
"95 851 LINE",
"152 802 OFFCURVE",
"211 748 OFFCURVE",
"258 701 CURVE",
"292 701 LINE",
"348 756 OFFCURVE",
"406 810 OFFCURVE",
"455 851 CURVE",
"408 923 LINE"
);
}
);
};
components = (
{
name = S;
},
{
name = caroncomb.case;
transform = "{1, 0, 0, 1, 91, 175}";
}
);
layerId = "6DC2006A-28B6-4A13-A5DF-3641E0854074";
width = 529;
}
);
leftKerningGroup = S;
rightKerningGroup = S;
unicode = 0160;
},
{
color = 10;
glyphname = Scedilla;
layers = (
{
background = {
paths = (
{
closed = 1;
nodes = (
"146 659 OFFCURVE",
"37 564 OFFCURVE",
"37 437 CURVE SMOOTH",
"37 241 OFFCURVE",
"306 249 OFFCURVE",
"306 169 CURVE SMOOTH",
"306 153 OFFCURVE",
"294 136 OFFCURVE",
"253 136 CURVE SMOOTH",
"210 136 OFFCURVE",
"132 162 OFFCURVE",
"67 212 CURVE",
"47 200 LINE",
"18 26 LINE",
"92 1 OFFCURVE",
"164 -12 OFFCURVE",
"232 -12 CURVE SMOOTH",
"400 -12 OFFCURVE",
"505 85 OFFCURVE",
"505 206 CURVE SMOOTH",
"505 398 OFFCURVE",
"234 397 OFFCURVE",
"234 472 CURVE SMOOTH",
"234 491 OFFCURVE",
"252 505 OFFCURVE",
"284 505 CURVE SMOOTH",
"317 505 OFFCURVE",
"376 484 OFFCURVE",
"433 449 CURVE",
"461 461 LINE",
"493 624 LINE",
"424 650 OFFCURVE",
"358 659 OFFCURVE",
"305 659 CURVE SMOOTH"
);
},
{
closed = 1;
nodes = (
"219 33 LINE",
"198 -76 LINE",
"247 -102 LINE SMOOTH",
"254 -106 OFFCURVE",
"258 -110 OFFCURVE",
"258 -117 CURVE SMOOTH",
"258 -125 OFFCURVE",
"253 -130 OFFCURVE",
"243 -130 CURVE SMOOTH",
"229 -130 OFFCURVE",
"205 -120 OFFCURVE",
"184 -103 CURVE",
"177 -106 LINE",
"166 -179 LINE",
"192 -193 OFFCURVE",
"221 -202 OFFCURVE",
"255 -202 CURVE SMOOTH",
"322 -202 OFFCURVE",
"362 -167 OFFCURVE",
"362 -120 CURVE SMOOTH",
"362 -97 OFFCURVE",
"352 -77 OFFCURVE",
"319 -59 CURVE SMOOTH",
"286 -41 LINE",
"300 33 LINE"
);
}
);
};
components = (
{
name = S;
},
{
name = cedillacomb;
transform = "{1, 0, 0, 1, 99, 1}";
}
);
layerId = "6DC2006A-28B6-4A13-A5DF-3641E0854074";
width = 529;
}
);
leftKerningGroup = S;
rightKerningGroup = S;
unicode = 015E;
},
{
color = 10;
glyphname = Scircumflex;
layers = (
{
background = {
paths = (
{
closed = 1;
nodes = (
"146 659 OFFCURVE",
"37 564 OFFCURVE",
"37 437 CURVE SMOOTH",
"37 241 OFFCURVE",
"306 249 OFFCURVE",
"306 169 CURVE SMOOTH",
"306 153 OFFCURVE",
"294 136 OFFCURVE",
"253 136 CURVE SMOOTH",
"210 136 OFFCURVE",
"132 162 OFFCURVE",
"67 212 CURVE",
"47 200 LINE",
"18 26 LINE",
"92 1 OFFCURVE",
"164 -12 OFFCURVE",
"232 -12 CURVE SMOOTH",
"400 -12 OFFCURVE",
"505 85 OFFCURVE",
"505 206 CURVE SMOOTH",
"505 398 OFFCURVE",
"234 397 OFFCURVE",
"234 472 CURVE SMOOTH",
"234 491 OFFCURVE",
"252 505 OFFCURVE",
"284 505 CURVE SMOOTH",
"317 505 OFFCURVE",
"376 484 OFFCURVE",
"433 449 CURVE",
"461 461 LINE",
"493 624 LINE",
"424 650 OFFCURVE",
"358 659 OFFCURVE",
"305 659 CURVE SMOOTH"
);
},
{
closed = 1;
nodes = (
"160 705 LINE",
"204 733 OFFCURVE",
"246 761 OFFCURVE",
"275 783 CURVE",
"304 761 OFFCURVE",
"346 733 OFFCURVE",
"390 705 CURVE",
"408 705 LINE",
"455 777 LINE",
"398 826 OFFCURVE",
"339 880 OFFCURVE",
"292 927 CURVE",
"258 927 LINE",
"202 872 OFFCURVE",
"144 818 OFFCURVE",
"95 777 CURVE",
"142 705 LINE"
);
}
);
};
components = (
{
name = S;
},
{
name = circumflexcomb;
transform = "{1, 0, 0, 1, 101, 175}";
}
);
layerId = "6DC2006A-28B6-4A13-A5DF-3641E0854074";
width = 529;
}
);
leftKerningGroup = S;
rightKerningGroup = S;
unicode = 015C;
},
{
color = 10;
glyphname = Scommaaccent;
layers = (
{
background = {
paths = (
{
closed = 1;
nodes = (
"146 659 OFFCURVE",
"37 564 OFFCURVE",
"37 437 CURVE SMOOTH",
"37 241 OFFCURVE",
"306 249 OFFCURVE",
"306 169 CURVE SMOOTH",
"306 153 OFFCURVE",
"294 136 OFFCURVE",
"253 136 CURVE SMOOTH",
"210 136 OFFCURVE",
"132 162 OFFCURVE",
"67 212 CURVE",
"47 200 LINE",
"18 26 LINE",
"92 1 OFFCURVE",
"164 -12 OFFCURVE",
"232 -12 CURVE SMOOTH",
"400 -12 OFFCURVE",
"505 85 OFFCURVE",
"505 206 CURVE SMOOTH",
"505 398 OFFCURVE",
"234 397 OFFCURVE",
"234 472 CURVE SMOOTH",
"234 491 OFFCURVE",
"252 505 OFFCURVE",
"284 505 CURVE SMOOTH",
"317 505 OFFCURVE",
"376 484 OFFCURVE",
"433 449 CURVE",
"461 461 LINE",
"493 624 LINE",
"424 650 OFFCURVE",
"358 659 OFFCURVE",
"305 659 CURVE SMOOTH"
);
},
{
closed = 1;
nodes = (
"264 -39 OFFCURVE",
"217 -59 OFFCURVE",
"172 -84 CURVE",
"171 -100 LINE",
"194 -123 OFFCURVE",
"204 -146 OFFCURVE",
"204 -175 CURVE SMOOTH",
"204 -217 OFFCURVE",
"186 -251 OFFCURVE",
"148 -284 CURVE",
"150 -298 LINE",
"211 -351 LINE",
"315 -279 OFFCURVE",
"363 -210 OFFCURVE",
"363 -132 CURVE SMOOTH",
"363 -90 OFFCURVE",
"348 -57 OFFCURVE",
"315 -26 CURVE"
);
}
);
};
components = (
{
name = S;
},
{
name = commaaccentcomb;
transform = "{1, 0, 0, 1, 206, 0}";
}
);
layerId = "6DC2006A-28B6-4A13-A5DF-3641E0854074";
width = 529;
}
);
leftKerningGroup = S;
rightKerningGroup = S;
unicode = 0218;
},
